<?xml version="1.0" encoding="UTF-8"?>
<svg version="1.1" xmlns="http://www.w3.org/2000/svg" width="1024" height="1024">
<path d="M0 0 C337.92 0 675.84 0 1024 0 C1024 337.92 1024 675.84 1024 1024 C686.08 1024 348.16 1024 0 1024 C0 686.08 0 348.16 0 0 Z " fill="#FAFAFA" transform="translate(0,0)"/>
<path d="M0 0 C3.27275661 1.55061157 5.41172854 3.19670105 7.9375 5.8125 C8.58589844 6.47894531 9.23429688 7.14539063 9.90234375 7.83203125 C10.94068359 8.90517578 10.94068359 8.90517578 12 10 C12.79148437 10.78246094 13.58296875 11.56492187 14.3984375 12.37109375 C17.76769322 15.77576207 20.96152669 19.32461145 24.15820312 22.890625 C26.75886077 25.84374738 26.75886077 25.84374738 30 28 C29.46670225 32.0826311 27.40882241 33.96134934 24.55186462 36.80889893 C24.08548523 37.27784159 23.61910584 37.74678426 23.13859373 38.22993731 C21.57331595 39.80015827 19.99755346 41.3594135 18.42163086 42.91894531 C17.29770066 44.04202936 16.17443052 45.1657743 15.05177307 46.29013062 C12.00076021 49.3420053 8.94057652 52.38453277 5.87868953 55.42549229 C2.68091145 58.60453485 -0.50839046 61.79205749 -3.69859314 64.97869873 C-9.74161666 71.01239261 -15.79224783 77.03839749 -21.84563488 83.061692 C-28.73655829 89.91910005 -35.61897968 96.78501398 -42.50069249 103.6516633 C-56.65767416 117.77727512 -70.82532349 131.89214603 -85 146 C-88.71713736 144.26239853 -91.08741012 142.14323122 -93.984375 139.2109375 C-94.67506073 138.51600693 -94.67506073 138.51600693 -95.37969971 137.80703735 C-96.84125078 136.33434102 -98.29567168 134.85482597 -99.75 133.375 C-100.74302611 132.37193678 -101.73651089 131.36932743 -102.73046875 130.3671875 C-105.15897941 127.91669165 -107.58114675 125.4600333 -110 123 C-112.87373429 124.30433099 -114.94476547 125.69283069 -117.17626953 127.91748047 C-117.77013458 128.5050412 -118.36399963 129.09260193 -118.9758606 129.69796753 C-119.60515472 130.33131012 -120.23444885 130.96465271 -120.8828125 131.6171875 C-121.86602982 132.59753464 -121.86602982 132.59753464 -122.86911011 133.59768677 C-124.25162658 134.97884413 -125.6316281 136.36252288 -127.00927734 137.74853516 C-129.11728014 139.86724094 -131.23572592 141.9750787 -133.35546875 144.08203125 C-134.6985584 145.42644254 -136.04102749 146.77147412 -137.3828125 148.1171875 C-138.33282639 149.06112869 -138.33282639 149.06112869 -139.30203247 150.0241394 C-139.8895932 150.61800446 -140.47715393 151.21186951 -141.08251953 151.82373047 C-141.59896027 152.34176239 -142.115401 152.85979431 -142.64749146 153.39352417 C-144.32351985 155.25713484 -144.32351985 155.25713484 -146 159 C-138.74 166.26 -131.48 173.52 -124 181 C-126.39226239 185.78452478 -129.38278891 189.10059514 -133 193 C-133.44150391 193.48082031 -133.88300781 193.96164062 -134.33789062 194.45703125 C-135.77248339 196.00741194 -137.2267324 197.5367877 -138.6875 199.0625 C-139.1508374 199.56402588 -139.6141748 200.06555176 -140.09155273 200.58227539 C-141.44921875 201.97265625 -141.44921875 201.97265625 -144 204 C-147.39047407 203.6762325 -149.23306499 202.21833496 -151.70556641 199.97285461 C-152.40417786 199.3385383 -153.10278931 198.70422199 -153.8225708 198.05068398 C-157.5148084 194.57336656 -161.12573059 191.02165405 -164.7109375 187.43432617 C-165.54115921 186.60746307 -166.37138092 185.78059998 -167.22676086 184.92868042 C-169.9454721 182.21940026 -172.66046089 179.5064287 -175.375 176.79296875 C-176.7901273 175.38024335 -178.20525557 173.96751891 -179.62050915 172.55492002 C-184.05589062 168.12764076 -188.48845863 163.69755819 -192.91943359 159.26586914 C-197.49112819 154.6935708 -202.06840561 150.12691371 -206.64825821 145.56278819 C-210.58825148 141.63584343 -214.52440742 137.70508054 -218.45756149 133.77128583 C-220.80368534 131.42490675 -223.15179593 129.08057867 -225.50286865 126.73915672 C-228.11472666 124.13702882 -230.7202529 121.52872339 -233.32421875 118.91870117 C-234.10646317 118.14207626 -234.88870758 117.36545135 -235.69465637 116.56529236 C-236.39829819 115.85745605 -237.10194 115.14961975 -237.8269043 114.42033386 C-238.75154732 113.49650799 -238.75154732 113.49650799 -239.69487 112.55401897 C-241 111 -241 111 -241 109 C-239.61694336 107.63598633 -239.61694336 107.63598633 -237.65234375 106.01953125 C-232.35015614 101.50969171 -227.47131131 96.61782546 -222.5625 91.6875 C-221.65306641 90.78193359 -220.74363281 89.87636719 -219.80664062 88.94335938 C-218.94361328 88.07904297 -218.08058594 87.21472656 -217.19140625 86.32421875 C-216.40967041 85.54135498 -215.62793457 84.75849121 -214.82250977 83.9519043 C-212.94470633 82.12569468 -212.94470633 82.12569468 -212 80 C-207.89161251 81.6217319 -205.14968046 84.58760463 -202.125 87.6875 C-201.59052246 88.22769775 -201.05604492 88.76789551 -200.50537109 89.32446289 C-197.27278868 92.61676171 -194.22088236 96.00196921 -191.28515625 99.5625 C-189.8232978 101.26906153 -189.8232978 101.26906153 -187.0625 103.4375 C-184.63296055 105.47037995 -182.78222678 107.31467473 -180.75268555 109.69897461 C-175.39814042 115.88869429 -169.6337619 121.66537288 -163.87426758 127.47583008 C-162.48903645 128.87779224 -161.1092163 130.28511966 -159.73461914 131.69750977 C-157.73730516 133.74924647 -155.72434358 135.784353 -153.70703125 137.81640625 C-153.09342239 138.45268448 -152.47981354 139.08896271 -151.84761047 139.74452209 C-149.01658917 142.89465613 -149.01658917 142.89465613 -145.17580795 144.0039072 C-141.8818286 142.48408116 -139.60086443 140.00190292 -137.09014893 137.45091248 C-136.50278324 136.86611006 -135.91541755 136.28130765 -135.3102529 135.67878395 C-133.33927978 133.7127615 -131.37923647 131.73619071 -129.41894531 129.75952148 C-128.01015052 128.3498807 -126.60069524 126.94089974 -125.19062805 125.53253174 C-121.35985968 121.70262583 -117.53842596 117.86352554 -113.71856403 114.02274585 C-109.72672595 110.01218286 -105.72641841 106.01008628 -101.72698975 102.00709534 C-94.15270684 94.42347966 -86.58610518 86.83224748 -79.02221274 79.23826987 C-70.41150673 70.59405822 -61.79230374 61.95834049 -53.17236567 53.32333648 C-35.43875248 35.55834636 -17.71587182 17.78268122 0 0 Z " fill="#1BA8AD" transform="translate(600,303)"/>
<path d="M0 0 C5.86698458 4.90910955 11.22282417 10.15508817 16.5625 15.625 C19.26248758 18.25575713 22.07718162 20.62096179 25 23 C23.5323992 26.38758344 21.64925912 28.59883382 19.04443359 31.19848633 C18.22953461 32.01646194 17.41463562 32.83443756 16.57504272 33.67720032 C15.691763 34.55329453 14.80848328 35.42938873 13.8984375 36.33203125 C12.5327916 37.69698982 12.5327916 37.69698982 11.13955688 39.08952332 C9.21086144 41.0166559 7.27886 42.94038939 5.34423828 44.86157227 C2.88497649 47.30395241 0.43223938 49.75275406 -2.01821327 52.203969 C-4.37654211 54.56195736 -6.73911635 56.91566774 -9.1015625 59.26953125 C-10.40826401 60.57456352 -10.40826401 60.57456352 -11.74136353 61.90596008 C-16.12905016 66.26007465 -20.58386903 70.46185012 -25.26977539 74.4931488 C-27.52822208 76.46002818 -29.65210982 78.53915802 -31.76171875 80.6640625 C-32.57060547 81.47617187 -33.37949219 82.28828125 -34.21289062 83.125 C-35.02951172 83.95 -35.84613281 84.775 -36.6875 85.625 C-37.51572266 86.45773437 -38.34394531 87.29046875 -39.19726562 88.1484375 C-40.73775235 89.69755786 -42.27719928 91.24771354 -43.81518555 92.79931641 C-46.20411749 95.20560007 -48.60193871 97.60281307 -51 100 C-51.89999222 100.89999222 -52.79998444 101.79998444 -53.72724915 102.72724915 C-71.48483276 120.48483276 -89.24241638 138.24241638 -107 156 C-110.81786824 154.25671719 -112.36872979 152.28908776 -115 149 C-116.16342984 147.95072156 -117.34754399 146.92418485 -118.54492188 145.91381836 C-123.43380503 141.68543662 -127.97658831 137.14926634 -132.53125 132.56640625 C-133.84603333 131.2495005 -133.84603333 131.2495005 -135.18737793 129.9059906 C-137.96062796 127.12718504 -140.73036282 124.34490603 -143.5 121.5625 C-145.39010805 119.66680135 -147.28101518 117.77190217 -149.171875 115.87695312 C-153.78391004 111.25394811 -158.39307141 106.62809343 -163 102 C-161.48505076 98.78388815 -160.08728584 96.99599561 -157.3125 94.75 C-153.71068394 91.71483493 -150.71272528 88.45566849 -147.67578125 84.8671875 C-145.33217528 82.25589693 -142.76267903 80.15623729 -140 78 C-135.55434312 81.63564313 -131.42713539 85.49944387 -127.390625 89.58203125 C-126.89357056 90.08459442 -126.39651611 90.58715759 -125.88439941 91.10494995 C-123.80846657 93.20860334 -121.73631589 95.31589926 -119.66845703 97.42749023 C-118.1427003 98.98336371 -116.61084904 100.53302545 -115.078125 102.08203125 C-113.72315918 103.46225464 -113.72315918 103.46225464 -112.34082031 104.87036133 C-110.11052155 107.18788744 -110.11052155 107.18788744 -107 108 C-106.62746786 107.14011679 -106.62746786 107.14011679 -106.24740982 106.26286221 C-104.8088687 103.6532785 -103.14963824 101.90080591 -101.04144287 99.79420471 C-100.21436325 98.9629306 -99.38728363 98.13165649 -98.53514099 97.27519226 C-97.6260347 96.37170547 -96.71692841 95.46821869 -95.78027344 94.53735352 C-94.81393405 93.56994082 -93.84802788 92.60209524 -92.88252258 91.6338501 C-90.26085442 89.00733667 -87.63298114 86.38711347 -85.00382137 83.76810193 C-82.25001096 81.02308439 -79.50148332 78.27278664 -76.7522583 75.5231781 C-72.1320242 70.90388054 -67.50793467 66.28847125 -62.88134766 61.67553711 C-57.54080568 56.35069727 -52.20548442 51.02067274 -46.87315536 45.68760926 C-41.18845702 40.00223383 -35.49995051 34.32068036 -29.81033039 28.64023089 C-28.17557891 27.00760534 -26.54153424 25.37427521 -24.90764618 23.7407856 C-22.33271461 21.16686332 -19.7552305 18.59552348 -17.17580223 16.02610779 C-15.78456111 14.63915188 -14.39572414 13.24978568 -13.00697327 11.8603363 C-8.81712351 7.69180158 -4.62847144 3.67831823 0 0 Z " fill="#F68A36" transform="translate(629,360)"/>
<path d="M0 0 C4.10838749 1.6217319 6.85031954 4.58760463 9.875 7.6875 C10.67671631 8.49779663 10.67671631 8.49779663 11.49462891 9.32446289 C14.72721132 12.61676171 17.77911764 16.00196921 20.71484375 19.5625 C22.1767022 21.26906153 22.1767022 21.26906153 24.9375 23.4375 C27.36703945 25.47037995 29.21777322 27.31467473 31.24731445 29.69897461 C36.60185958 35.88869429 42.3662381 41.66537288 48.12573242 47.47583008 C49.51096355 48.87779224 50.8907837 50.28511966 52.26538086 51.69750977 C54.26269484 53.74924647 56.27565642 55.784353 58.29296875 57.81640625 C58.90657761 58.45268448 59.52018646 59.08896271 60.15238953 59.74452209 C62.05467822 61.69606791 62.05467822 61.69606791 65 64 C69.16988701 63.92888878 71.58350446 60.81839282 74.31933594 58.02124023 C74.83685928 57.50415497 75.35438263 56.9870697 75.8875885 56.45431519 C77.59372597 54.74609034 79.28899592 53.02749105 80.984375 51.30859375 C82.16627559 50.12109704 83.34884096 48.93426165 84.53204346 47.74806213 C87.64252102 44.6261371 90.74388392 41.49530756 93.84344482 38.36254883 C97.00867181 35.16661903 100.18242168 31.9791781 103.35546875 28.79101562 C109.57869148 22.53563046 115.79231978 16.27080675 122 10 C122.99 10.33 123.98 10.66 125 11 C119.07058824 18.24705882 119.07058824 18.24705882 116 21 C115.34 21 114.68 21 114 21 C114 21.66 114 22.32 114 23 C112.64453125 24.33203125 112.64453125 24.33203125 110.8125 25.8125 C106.00036839 29.80967383 101.82692616 34.0391698 98 39 C98.99 40.98 98.99 40.98 100 43 C99.60354279 43.39201599 99.20708557 43.78403198 98.7986145 44.18792725 C94.6723547 48.26993147 90.55315864 52.35896553 86.43798828 56.45214844 C84.90137779 57.978703 83.36297683 59.50345748 81.82275391 61.02636719 C79.60886748 63.21598793 77.401506 65.41200665 75.1953125 67.609375 C74.16085495 68.62834869 74.16085495 68.62834869 73.10549927 69.66790771 C72.14472977 70.62845062 72.14472977 70.62845062 71.16455078 71.60839844 C70.60051544 72.16799255 70.0364801 72.72758667 69.45535278 73.30413818 C67.68115765 75.23249356 67.68115765 75.23249356 66 79 C73.26 86.26 80.52 93.52 88 101 C85.60773761 105.78452478 82.61721109 109.10059514 79 113 C78.55849609 113.48082031 78.11699219 113.96164062 77.66210938 114.45703125 C76.22751661 116.00741194 74.7732676 117.5367877 73.3125 119.0625 C72.8491626 119.56402588 72.3858252 120.06555176 71.90844727 120.58227539 C70.55078125 121.97265625 70.55078125 121.97265625 68 124 C64.60952593 123.6762325 62.76693501 122.21833496 60.29443359 119.97285461 C59.59582214 119.3385383 58.89721069 118.70422199 58.1774292 118.05068398 C54.4851916 114.57336656 50.87426941 111.02165405 47.2890625 107.43432617 C46.45884079 106.60746307 45.62861908 105.78059998 44.77323914 104.92868042 C42.0545279 102.21940026 39.33953911 99.5064287 36.625 96.79296875 C35.2098727 95.38024335 33.79474443 93.96751891 32.37949085 92.55492002 C27.94410938 88.12764076 23.51154137 83.69755819 19.08056641 79.26586914 C14.50887181 74.6935708 9.93159439 70.12691371 5.35174179 65.56278819 C1.41174852 61.63584343 -2.52440742 57.70508054 -6.45756149 53.77128583 C-8.80368534 51.42490675 -11.15179593 49.08057867 -13.50286865 46.73915672 C-16.11472666 44.13702882 -18.7202529 41.52872339 -21.32421875 38.91870117 C-22.10646317 38.14207626 -22.88870758 37.36545135 -23.69465637 36.56529236 C-24.39829819 35.85745605 -25.10194 35.14961975 -25.8269043 34.42033386 C-26.44333298 33.80444995 -27.05976166 33.18856604 -27.69487 32.55401897 C-29 31 -29 31 -29 29 C-27.61694336 27.63598633 -27.61694336 27.63598633 -25.65234375 26.01953125 C-20.35015614 21.50969171 -15.47131131 16.61782546 -10.5625 11.6875 C-9.65306641 10.78193359 -8.74363281 9.87636719 -7.80664062 8.94335938 C-6.94361328 8.07904297 -6.08058594 7.21472656 -5.19140625 6.32421875 C-4.40967041 5.54135498 -3.62793457 4.75849121 -2.82250977 3.9519043 C-0.94470633 2.12569468 -0.94470633 2.12569468 0 0 Z " fill="#1D608D" transform="translate(388,383)"/>
<path d="M0 0 C5.51884557 3.94859167 9.23289301 8.56300542 12.47265625 14.4921875 C12.81296875 15.09417969 13.15328125 15.69617188 13.50390625 16.31640625 C17.55169095 24.95542822 16.48867208 35.69198581 13.41015625 44.4296875 C10.97178116 50.05245613 7.9306289 54.31413407 3.47265625 58.4921875 C2.68890625 59.2346875 1.90515625 59.9771875 1.09765625 60.7421875 C-8.69850788 67.27296359 -18.93587824 68.38383869 -30.52734375 67.4921875 C-40.52517473 65.26903576 -48.43026151 60.03402902 -54.20703125 51.58984375 C-54.64273437 50.89761719 -55.0784375 50.20539062 -55.52734375 49.4921875 C-55.94242187 48.87214844 -56.3575 48.25210938 -56.78515625 47.61328125 C-61.43012811 39.31404832 -60.58236724 28.31927088 -58.9375 19.234375 C-56.1897511 10.34534398 -49.89010806 3.1619574 -41.90234375 -1.5078125 C-28.9579544 -8.25278166 -12.42797824 -7.41452798 0 0 Z " fill="#1D3268" transform="translate(334.52734375,595.5078125)"/>
<path d="M0 0 C4.95 0 9.9 0 15 0 C18.48063248 8.03222879 20.93795705 16.25513233 23.40625 24.63671875 C24.99690354 30.02891555 26.67391979 35.39175003 28.375 40.75 C28.63780762 41.57814209 28.90061523 42.40628418 29.17138672 43.25952148 C29.7797247 45.17339609 30.3896679 47.08676038 31 49 C33.29239353 45.5614097 34.42028659 42.07615513 35.6796875 38.18359375 C35.93372345 37.41249771 36.1877594 36.64140167 36.44949341 35.84693909 C37.26230074 33.37851519 38.06917135 30.90821015 38.875 28.4375 C45.25910311 8.90044307 45.25910311 8.90044307 49 0 C53.29 0 57.58 0 62 0 C64.67595167 6.34299655 66.91882887 12.73249655 68.92138672 19.31347656 C70.17650042 23.41816676 71.49274902 27.49474799 72.875 31.55859375 C73.3558606 32.97434692 73.3558606 32.97434692 73.84643555 34.41870117 C74.48105154 36.27860555 75.12039498 38.13690487 75.76489258 39.9934082 C76.20031372 41.27284302 76.20031372 41.27284302 76.64453125 42.578125 C76.90596924 43.33512695 77.16740723 44.09212891 77.43676758 44.87207031 C78 47 78 47 78 51 C78.66 51 79.32 51 80 51 C80.10666992 50.45762695 80.21333984 49.91525391 80.32324219 49.35644531 C81.51672189 43.61543884 83.22381882 38.24494549 85.25 32.75 C88.24856725 24.43939088 90.80180099 16.06064928 93.13378906 7.54003906 C93.36549805 6.69795898 93.59720703 5.85587891 93.8359375 4.98828125 C94.03751465 4.24102783 94.2390918 3.49377441 94.44677734 2.72387695 C95 1 95 1 96 0 C98.18639453 -0.07258946 100.37500389 -0.08373783 102.5625 -0.0625 C104.35880859 -0.04896484 104.35880859 -0.04896484 106.19140625 -0.03515625 C107.11824219 -0.02355469 108.04507813 -0.01195312 109 0 C108.36696628 5.87455295 106.81924429 11.17766827 104.98046875 16.78125 C104.68062576 17.71239624 104.38078278 18.64354248 104.07185364 19.60290527 C103.11574083 22.57036041 102.1522894 25.53535553 101.1875 28.5 C99.92634602 32.38393056 98.66929222 36.26914073 97.41796875 40.15625 C97.11607635 41.09364014 96.81418396 42.03103027 96.50314331 42.99682617 C94.38938748 49.62303462 92.50659324 56.27522928 90.81762695 63.02148438 C90 66 90 66 88 71 C82.39 71 76.78 71 71 71 C67.9929246 62.11863776 65.02082108 53.26347621 62.4375 44.25 C60.27389026 36.70812398 57.7383198 29.35267997 55 22 C54.81937012 22.60247559 54.63874023 23.20495117 54.45263672 23.82568359 C51.32640926 34.23130108 48.18874533 44.63012106 44.75 54.9375 C44.51651855 55.63858887 44.28303711 56.33967773 44.04248047 57.06201172 C42.46374785 61.74855679 40.75619939 66.37706337 39 71 C33.72 71 28.44 71 23 71 C17.7954285 58.58909873 13.74292519 45.78116028 10.04638672 32.85107422 C7.79965356 25.10476795 5.19324443 17.47787608 2.59033203 9.84521484 C2.08735596 8.36142334 2.08735596 8.36142334 1.57421875 6.84765625 C1.11921997 5.5174646 1.11921997 5.5174646 0.6550293 4.16040039 C0 2 0 2 0 0 Z " fill="#1D3063" transform="translate(161,591)"/>
<path d="M0 0 C5.919375 -0.061875 11.83875 -0.12375 17.9375 -0.1875 C20.71208618 -0.22846802 20.71208618 -0.22846802 23.54272461 -0.27026367 C25.03759105 -0.2790398 26.53246477 -0.28668105 28.02734375 -0.29296875 C29.15662292 -0.3159906 29.15662292 -0.3159906 30.30871582 -0.33947754 C39.42470656 -0.34388353 47.47401865 2.54495323 54 9 C58.78491467 14.74886593 59.79064256 20.39582163 59.48828125 27.7734375 C58.52491538 34.13935917 55.96926034 39.03073966 51.4375 43.5625 C49.22343321 44.8682317 47.52982446 45.62521119 45 46 C48.37243507 52.12659037 52.24458438 57.77750519 56.28515625 63.47851562 C56.76339844 64.16236328 57.24164063 64.84621094 57.734375 65.55078125 C58.16975586 66.16606689 58.60513672 66.78135254 59.05371094 67.4152832 C60 69 60 69 60 71 C54.6870986 72.00852843 49.17569334 73.00730785 44 71 C39.19242756 66.43953929 36.7548724 59.91091793 34 54 C32.93190172 51.4595774 32.93190172 51.4595774 31 50 C28.12713553 49.53844814 25.68658269 49.30616913 22.8125 49.25 C20.234375 49.1675 17.65625 49.085 15 49 C15 56.26 15 63.52 15 71 C10.05 71 5.1 71 0 71 C0 47.57 0 24.14 0 0 Z " fill="#1F3569" transform="translate(363,591)"/>
<path d="M0 0 C4.62 0 9.24 0 14 0 C14.33 10.89 14.66 21.78 15 33 C17.536875 30.2465625 17.536875 30.2465625 20.125 27.4375 C23.65968782 23.60189275 27.20429202 19.77625101 30.7734375 15.97265625 C31.39460449 15.31015869 32.01577148 14.64766113 32.65576172 13.96508789 C33.86156909 12.68026613 35.06886564 11.39683993 36.27783203 10.11499023 C36.83583496 9.52016846 37.39383789 8.92534668 37.96875 8.3125 C38.50145508 7.75006592 39.03416016 7.18763184 39.58300781 6.6081543 C41.18885465 4.86501409 41.18885465 4.86501409 42.890625 2.08203125 C45 0 45 0 48.890625 -0.48828125 C50.3445554 -0.45523738 51.79808575 -0.39586963 53.25 -0.3125 C53.99507813 -0.28994141 54.74015625 -0.26738281 55.5078125 -0.24414062 C57.339409 -0.18543561 59.16996653 -0.09575757 61 0 C56.04093673 7.02533963 50.3207918 13.16250455 44.45996094 19.42675781 C41.24274101 22.89360818 38.12144931 26.44705622 35 30 C36.41163701 33.03170938 38.08000776 35.60370389 40.08984375 38.2734375 C41.01192627 39.50139038 41.01192627 39.50139038 41.95263672 40.75415039 C42.6076416 41.61903076 43.26264648 42.48391113 43.9375 43.375 C44.60539551 44.26243896 45.27329102 45.14987793 45.96142578 46.06420898 C50.47191521 52.03847786 55.04752209 57.95749732 59.76147461 63.77294922 C61.70240923 66.19489318 63.00789826 68.02369477 64 71 C58.29948496 72.04452551 52.6028121 72.87816695 47 71 C41.97533862 67.17162622 38.73564901 61.52671609 35.42822266 56.23681641 C33.3593252 52.9966047 31.03588071 49.97757872 28.6875 46.9375 C27.45747217 45.29231017 26.22792873 43.64675714 25 42 C23.8944811 42.93590504 22.79064547 43.87379858 21.6875 44.8125 C20.76517578 45.59560547 20.76517578 45.59560547 19.82421875 46.39453125 C19.22222656 46.92433594 18.62023437 47.45414063 18 48 C17.47792969 48.43183594 16.95585937 48.86367188 16.41796875 49.30859375 C14.57769111 51.50374587 14.57871043 52.82849238 14.48828125 55.66796875 C14.45283203 56.56064453 14.41738281 57.45332031 14.38085938 58.37304688 C14.34702148 59.76620117 14.34702148 59.76620117 14.3125 61.1875 C14.27833984 62.12787109 14.24417969 63.06824219 14.20898438 64.03710938 C14.12652849 66.3576536 14.06158697 68.67880817 14 71 C9.38 71 4.76 71 0 71 C0 47.57 0 24.14 0 0 Z " fill="#1B3268" transform="translate(436,591)"/>
<path d="M0 0 C0.82927002 -0.00128906 1.65854004 -0.00257813 2.51293945 -0.00390625 C10.15823744 0.12553795 16.80259498 1.74495314 24 4.375 C25.12377697 7.67935084 24.89554742 9.4256862 23.5625 12.625 C23.13130859 13.68460938 23.13130859 13.68460938 22.69140625 14.765625 C22.46324219 15.29671875 22.23507812 15.8278125 22 16.375 C19.19653451 15.865279 16.57195556 15.23674962 13.85546875 14.359375 C9.57503431 13.26649812 5.76635056 13.00775857 1.375 13 C0.63765625 12.97550781 -0.0996875 12.95101562 -0.859375 12.92578125 C-4.52141871 12.90609284 -6.8102739 13.26595067 -10.00390625 15.1015625 C-12.16275707 17.18298953 -12.16275707 17.18298953 -12.48828125 19.734375 C-12.40126953 20.91773438 -12.40126953 20.91773438 -12.3125 22.125 C-12.20833333 23.54166667 -12.10416667 24.95833333 -12 26.375 C-11.4021167 26.55240723 -10.8042334 26.72981445 -10.18823242 26.91259766 C-3.87540302 28.79488855 2.4187023 30.72574823 8.6875 32.75 C9.58533203 33.0284375 10.48316406 33.306875 11.40820312 33.59375 C18.06304191 35.75840086 23.71989798 38.21227784 27.9375 44.0625 C29.62398385 49.32036141 30.21114448 54.39889711 28.0859375 59.62109375 C24.08993007 66.44008707 18.99241819 70.36840678 11.52832031 72.7487793 C7.27103306 73.80323486 3.11942549 73.90478971 -1.25 73.875 C-2.16442871 73.87290527 -3.07885742 73.87081055 -4.02099609 73.86865234 C-13.05134652 73.65997781 -20.41833949 71.42944034 -28 66.375 C-27.45660208 61.81045749 -26.20536179 58.4021824 -24 54.375 C-22.89591797 54.89900391 -22.89591797 54.89900391 -21.76953125 55.43359375 C-20.79371094 55.88863281 -19.81789063 56.34367188 -18.8125 56.8125 C-17.84957031 57.26496094 -16.88664063 57.71742188 -15.89453125 58.18359375 C-10.65096023 60.34187872 -5.62480417 60.60966599 0 60.6875 C0.69867187 60.71650391 1.39734375 60.74550781 2.1171875 60.77539062 C5.77046026 60.82019491 7.83364381 60.47744039 10.96875 58.546875 C13.27340457 56.48642227 13.27340457 56.48642227 13.5 53.3125 C12.93772686 50.0091453 12.55738202 49.3943697 10 47.375 C7.54019393 46.40839344 7.54019393 46.40839344 4.73828125 45.7265625 C3.70123047 45.44296875 2.66417969 45.159375 1.59570312 44.8671875 C-0.57291391 44.29439395 -2.74217538 43.72403406 -4.91210938 43.15625 C-12.71413189 41.01659713 -19.34789169 38.77513886 -24.4375 32.25 C-27.58467542 26.45919723 -27.8615114 20.84864279 -27 14.375 C-24.03221043 7.99784664 -18.80915603 3.9394748 -12.375 1.296875 C-8.1750649 0.1496705 -4.33511254 -0.00698297 0 0 Z " fill="#F48F3A" transform="translate(827,589.625)"/>
<path d="M0 0 C4.11533941 2.54654868 7.63137494 5.53837609 11 9 C9.44499019 12.81684226 6.96404505 15.19195732 4 18 C0.58087165 16.70496731 -2.50894859 15.17180096 -5.6875 13.375 C-10.91378401 10.761858 -15.2264641 9.97359362 -21 11 C-24.14734973 12.09134108 -27.03702649 13.49124662 -30 15 C-30.99 15.33 -31.98 15.66 -33 16 C-34.06716704 17.79932579 -34.06716704 17.79932579 -35 20 C-35.7734375 21.2375 -35.7734375 21.2375 -36.5625 22.5 C-39.91642258 28.33290883 -39.91857866 35.22608045 -38.3515625 41.6640625 C-35.92754167 48.52176244 -32.47744576 52.64014382 -26.05078125 56.02734375 C-19.90817001 58.64609943 -14.21006042 58.92017219 -7.875 56.8125 C-3.92657337 55.18943134 -1.1199592 52.88596226 2 50 C6.2742558 51.5830577 8.26531794 54.50568404 11 58 C9.55898828 61.57928719 7.85719199 63.07400774 4.625 65.125 C3.85414063 65.62257813 3.08328125 66.12015625 2.2890625 66.6328125 C1.53367187 67.08398438 0.77828125 67.53515625 0 68 C-0.61101563 68.36867188 -1.22203125 68.73734375 -1.8515625 69.1171875 C-10.85445267 72.81655692 -23.49855435 72.39737109 -32.4375 68.9375 C-41.42031212 64.63298466 -47.04316247 58.54028377 -52 50 C-52.36351562 49.37480469 -52.72703125 48.74960937 -53.1015625 48.10546875 C-56.15730018 40.94441393 -56.31836091 30.72014192 -54.24609375 23.30078125 C-53.29051707 21.09358649 -52.23611901 19.0616241 -51 17 C-50.401875 15.96875 -49.80375 14.9375 -49.1875 13.875 C-38.0391631 -0.77709993 -17.69928812 -7.78914952 0 0 Z " fill="#F58A37" transform="translate(777,592)"/>
<path d="M0 0 C0 33.66 0 67.32 0 102 C-6.6 102 -13.2 102 -20 102 C-20.43236821 91.50658116 -20.77949304 81.01923465 -20.98443127 70.51886272 C-21.08288736 65.64075633 -21.21590227 60.7691426 -21.43334961 55.89477539 C-22.99155942 20.06490191 -22.99155942 20.06490191 -13.16706848 9.29145813 C-3.04688983 0 -3.04688983 0 0 0 Z " fill="#18839D" transform="translate(610,442)"/>
<path d="M0 0 C6.06796709 -0.29692687 10.49977122 -0.05235108 15.484375 3.58984375 C20.11260016 7.89852552 23.93098534 12.58548174 24.4765625 19.04296875 C24.67695131 27.96554424 23.21431312 33.60467575 18.42578125 41.03515625 C12.94387795 46.51705955 8.83205619 47.60003758 1.17578125 47.72265625 C0.4909668 47.74110596 -0.19384766 47.75955566 -0.89941406 47.77856445 C-6.90521086 47.70534071 -10.30879599 45.51834037 -14.58984375 41.51171875 C-15.0590625 40.96257813 -15.52828125 40.4134375 -16.01171875 39.84765625 C-16.73101562 39.03167969 -16.73101562 39.03167969 -17.46484375 38.19921875 C-21.9591279 31.34949652 -21.55642535 23.07866216 -20.76171875 15.22265625 C-18.94925121 9.42114185 -15.64794718 5.28933354 -10.49609375 2.0859375 C-7.02547582 0.35844524 -3.80305502 0.30661122 0 0 Z " fill="#F9FAFA" transform="translate(310.76171875,602.77734375)"/>
<path d="M0 0 C5.05640638 -0.97595378 10.06258069 -1.75980417 15 0 C19.93373765 4.05515783 22.5905123 10.42184617 25.4375 16 C26.27925471 17.54453972 27.12621839 19.08625266 27.97851562 20.625 C30.04736452 24.38664674 32.04136756 28.17988888 34 32 C38.57183945 25.33416445 42.74182458 18.48095306 46.8125 11.5 C47.9635082 9.53046889 49.11578108 7.56167612 50.26953125 5.59375 C50.77073486 4.73458984 51.27193848 3.87542969 51.78833008 2.99023438 C53 1 53 1 54 0 C56.35313555 -0.07271741 58.70833668 -0.08370868 61.0625 -0.0625 C62.35285156 -0.05347656 63.64320313 -0.04445313 64.97265625 -0.03515625 C65.97167969 -0.02355469 66.97070312 -0.01195312 68 0 C62.73539748 11.24170764 56.50834885 21.87261657 50.20703125 32.55859375 C49.65257324 33.51290283 49.09811523 34.46721191 48.52685547 35.45043945 C47 38 47 38 45.71142578 39.80541992 C41.81529845 45.44198031 42.32895422 51.85917831 42.25 58.4375 C42.20552734 60.25024414 42.20552734 60.25024414 42.16015625 62.09960938 C42.08980582 65.06605245 42.0425983 68.03302863 42 71 C37.05 71 32.1 71 27 71 C27.14824219 69.5665625 27.29648437 68.133125 27.44921875 66.65625 C28.60044005 45.84731644 19.32373093 32.37392021 8.15368652 15.72033691 C6.37820296 13.07279805 4.62284264 10.41315567 2.8828125 7.7421875 C2.04194092 6.46770752 2.04194092 6.46770752 1.18408203 5.16748047 C0 3 0 3 0 0 Z " fill="#19A9B1" transform="translate(550,591)"/>
<path d="M0 0 C20.46 0 40.92 0 62 0 C62 3.96 62 7.92 62 12 C54.41 12 46.82 12 39 12 C39 31.47 39 50.94 39 71 C34.05 71 29.1 71 24 71 C24 51.53 24 32.06 24 12 C16.08 12 8.16 12 0 12 C0 8.04 0 4.08 0 0 Z " fill="#14BDB7" transform="translate(619,591)"/>
<path d="M0 0 C4.95 0 9.9 0 15 0 C15 19.14 15 38.28 15 58 C27.21 58 39.42 58 52 58 C52 62.29 52 66.58 52 71 C34.84 71 17.68 71 0 71 C0 47.57 0 24.14 0 0 Z " fill="#218BA4" transform="translate(509,591)"/>
<path d="M0 0 C10.02146777 9.0437636 10.02146777 9.0437636 11.03125 15.14453125 C11.11596505 23.22422909 9.73267275 28.04407711 4.0703125 33.83984375 C-0.96231815 38.33792037 -5.47492811 39.80131223 -12.09765625 39.625 C-17.51282613 38.90177197 -21.75302298 36.41318405 -25.3125 32.3125 C-29.95531877 25.75793232 -30.36458776 20.30265842 -29.4375 12.3125 C-27.31553243 6.59320544 -23.30771035 2.80634655 -18.4375 -0.6875 C-12.43740194 -2.68753269 -5.68943572 -2.79299572 0 0 Z " fill="#207F9B" transform="translate(421.4375,327.6875)"/>
<path d="M0 0 C0.66 0 1.32 0 2 0 C2 19.8 2 39.6 2 60 C-4.93 60 -11.86 60 -19 60 C-21.74858694 21.50181816 -21.74858694 21.50181816 -15.28515625 12.4921875 C-11.43401688 8.32264195 -7.08253111 4.58707914 -2 2 C-1.34 2 -0.68 2 0 2 C0 1.34 0 0.68 0 0 Z " fill="#236C94" transform="translate(565,485)"/>
<path d="M0 0 C6.93 0 13.86 0 21 0 C24.07200751 37.16949432 24.07200751 37.16949432 16.83984375 46.88671875 C12.47276907 51.56971841 7.60085353 55.84787237 2 59 C1.34 59 0.68 59 0 59 C0 39.53 0 20.06 0 0 Z " fill="#1DB7B5" transform="translate(546,284)"/>
<path d="M0 0 C5.02591316 4.30792556 9.66089478 8.57560099 14.25585938 13.29492188 C16.86489872 15.99141512 16.86489872 15.99141512 20 18 C20 32.19 20 46.38 20 61 C13.4 61 6.8 61 0 61 C0 40.87 0 20.74 0 0 Z " fill="#17386F" transform="translate(415,483)"/>
<path d="M0 0 C4.62 0 9.24 0 14 0 C14 23.43 14 46.86 14 71 C9.38 71 4.76 71 0 71 C0 47.57 0 24.14 0 0 Z " fill="#F48732" transform="translate(692,591)"/>
<path d="M0 0 C6.93 0 13.86 0 21 0 C23.82535534 24.0072591 23.82535534 24.0072591 19.16748047 32.23828125 C14.3403001 38.28972448 8.50201173 43.76491458 2 48 C1.34 48 0.68 48 0 48 C0 32.16 0 16.32 0 0 Z " fill="#2198A7" transform="translate(502,339)"/>
<path d="M0 0 C0 15.51 0 31.02 0 47 C-6.6 47 -13.2 47 -20 47 C-22.82951559 23.88401594 -22.82951559 23.88401594 -18.15136719 15.80908203 C-5.35391928 0 -5.35391928 0 0 0 Z " fill="#18467A" transform="translate(479,497)"/>
<path d="M0 0 C6.93 0 13.86 0 21 0 C23.68551545 20.52264273 23.68551545 20.52264273 19.24951172 27.91845703 C14.97794886 33.06854831 10.03181159 37.40712285 4.76586914 41.51733398 C2.88644802 42.89591616 2.88644802 42.89591616 2 45 C1.34 45 0.68 45 0 45 C0 30.15 0 15.3 0 0 Z " fill="#237B9B" transform="translate(458,387)"/>
<path d="M0 0 C3.17625 -0.0825 6.3525 -0.165 9.625 -0.25 C10.6145166 -0.28641602 11.6040332 -0.32283203 12.62353516 -0.36035156 C18.28794413 -0.43134274 21.53334219 0.17928963 26 4 C26.6084375 4.46792969 27.216875 4.93585937 27.84375 5.41796875 C30.01922176 8.39454329 29.51429589 11.71286675 29.4296875 15.26171875 C28.76491231 19.49814972 27.14466889 21.15482338 24 24 C21.49502996 25.25248502 19.79146726 25.11374406 16.9921875 25.09765625 C16.1038623 25.09515869 15.21553711 25.09266113 14.30029297 25.09008789 C13.16994629 25.08098389 12.03959961 25.07187988 10.875 25.0625 C5.491875 25.0315625 5.491875 25.0315625 0 25 C0 16.75 0 8.5 0 0 Z " fill="#FBFBFB" transform="translate(378,603)"/>
<path d="M0 0 C2 1.125 2 1.125 3 3 C2.87059529 6.6233318 2.75012072 9.06985031 0.4375 11.9375 C-0.036875 12.288125 -0.51125 12.63875 -1 13 C0.49097658 16.7952131 2.75700849 18.61042731 6 21 C6.33 20.01 6.66 19.02 7 18 C7.99 18 8.98 18 10 18 C9.6596875 19.5778125 9.6596875 19.5778125 9.3125 21.1875 C8.96819556 25.38801417 9.51227742 26.7162062 12 30 C9.33333333 30 6.66666667 30 4 30 C3.35933594 30.32097656 2.71867187 30.64195312 2.05859375 30.97265625 C-1.74379855 32.87024481 -5.87057499 32.68155558 -10 32 C-13.0625 29.5625 -13.0625 29.5625 -15 27 C-15.33 26.67 -15.66 26.34 -16 26 C-15.82741843 21.51287922 -15.43095011 19.49401598 -12.4375 16.0625 C-11.633125 15.381875 -10.82875 14.70125 -10 14 C-10.495 12.948125 -10.495 12.948125 -11 11.875 C-12.14269902 8.58974033 -12.51368804 6.44904829 -12 3 C-8.26005342 -1.41993687 -5.4320109 -1.50889192 0 0 Z " fill="#364270" transform="translate(447,687)"/>
<path d="M0 0 C3.33679633 1.66839816 4.7063346 2.47946287 7.09375 5.0390625 C7.64933594 5.61914062 8.20492188 6.19921875 8.77734375 6.796875 C9.92968647 8.01976932 11.07810911 9.24636898 12.22265625 10.4765625 C12.77824219 11.0540625 13.33382812 11.6315625 13.90625 12.2265625 C14.40447266 12.75846191 14.90269531 13.29036133 15.41601562 13.83837891 C17.21021916 15.39424963 17.21021916 15.39424963 21 15 C21 20.94 21 26.88 21 33 C14.07 33 7.14 33 0 33 C0 22.11 0 11.22 0 0 Z " fill="#1B5184" transform="translate(502,511)"/>
<path d="M0 0 C3.27981751 2.06771104 4.84746007 3.77119011 7 7 C7.69502786 11.76821439 7.69437161 15.76556158 5.3125 20 C1.63500444 23.1805367 -0.60614721 24.04978046 -5.5 23.875 C-9.38661446 22.90334639 -11.22074092 21.85866648 -14 19 C-16.03798143 15.31222408 -16.66677709 12.16735679 -16 8 C-11.7297377 1.62080448 -7.92685458 -1.12588721 0 0 Z " fill="#F7A962" transform="translate(703,557)"/>
<path d="M0 0 C2.29174805 0.11767578 2.29174805 0.11767578 5 1 C6.76098633 3.63623047 6.76098633 3.63623047 8.33203125 7.1171875 C8.6135051 7.73014679 8.89497894 8.34310608 9.1849823 8.97463989 C9.77587379 10.27031527 10.35782679 11.57009923 10.93139648 12.87353516 C11.8097643 14.86878573 12.71360048 16.85078124 13.62304688 18.83203125 C18 28.49522302 18 28.49522302 18 32 C16.1875 31.9375 16.1875 31.9375 14 31 C12.515 27.535 12.515 27.535 11 24 C5.06 23.67 -0.88 23.34 -7 23 C-7.66 25.31 -8.32 27.62 -9 30 C-9.33 30.66 -9.66 31.32 -10 32 C-10.99 32 -11.98 32 -13 32 C-12.42608045 27.46216977 -11.22072505 23.85880484 -9.27734375 19.7265625 C-8.73916016 18.57285156 -8.20097656 17.41914062 -7.64648438 16.23046875 C-7.08251953 15.04066406 -6.51855469 13.85085938 -5.9375 12.625 C-5.36325687 11.40005599 -4.78968251 10.17479823 -4.21679688 8.94921875 C-2.81773993 5.96299637 -1.41196133 2.98013695 0 0 Z " fill="#223469" transform="translate(497,687)"/>
<path d="M0 0 C3.98066095 1.57724302 5.60667274 2.41000911 8 6 C8.42740092 11.29977145 8.52351458 14.74748241 5 19 C1.94770421 21.54357983 0.50604099 22.00903645 -3.5 21.9375 C-7.28060685 20.92483745 -9.211957 19.70604174 -12 17 C-13.72869779 13.54260443 -13.48966895 9.78024432 -13 6 C-9.39164603 0.22663365 -6.66266435 -0.44417762 0 0 Z " fill="#F7722E" transform="translate(391,513)"/>
<path d="M0 0 C3.71168084 0.96768822 5.55692692 2.80821076 8.1875 5.5703125 C9.76205739 8.71942729 9.53549118 11.09040066 9.1875 14.5703125 C7.41469439 17.54703834 5.33141985 19.99835257 2.1875 21.5703125 C-2.4902683 22.21362052 -5.78511904 22.23382937 -9.8125 19.6328125 C-12.43808352 15.61238773 -13.47497826 12.37123519 -12.8125 7.5703125 C-10.16271564 1.74930027 -6.31735453 -0.49087552 0 0 Z " fill="#F6963B" transform="translate(513.8125,304.4296875)"/>
<path d="M0 0 C5.5 3 5.5 3 7 6 C7.54399285 10.539219 7.62289461 13.9544269 5.25 17.9375 C1.7895112 21.10961473 0.35022674 22.02454958 -4.4375 21.9375 C-8.64827101 20.82940237 -10.25210722 19.31363542 -13 16 C-14.53214888 12.93570224 -14.22938548 10.3834358 -14 7 C-11.01642297 0.60662065 -6.87232279 -1.08919833 0 0 Z " fill="#F58B36" transform="translate(472,353)"/>
<path d="M0 0 C3.58552881 1.63687185 4.79315055 2.68972583 7 6 C7.48384204 10.91906075 7.51355236 13.05848735 5.125 17.4375 C2.99173128 20.00997111 2.25464149 20.84964021 -0.98828125 21.23828125 C-5.15410332 21.3713075 -7.37869331 21.38831668 -11 19.125 C-14.32530877 15.59185943 -14.33074386 12.95338737 -14.29296875 8.26171875 C-13.86344199 4.9457722 -12.39075646 3.25012373 -10 1 C-6.80876226 -0.59561887 -3.47254909 -0.3799142 0 0 Z " fill="#F89338" transform="translate(640,511)"/>
<path d="M0 0 C0.99 0.33 1.98 0.66 3 1 C-2.92941176 8.24705882 -2.92941176 8.24705882 -6 11 C-6.66 11 -7.32 11 -8 11 C-8 11.66 -8 12.32 -8 13 C-9.35546875 14.33203125 -9.35546875 14.33203125 -11.1875 15.8125 C-15.99963161 19.80967383 -20.17307384 24.0391698 -24 29 C-23.34 30.32 -22.68 31.64 -22 33 C-25.03778772 36.31158303 -28.1115835 39.58395582 -31.22241211 42.82666016 C-32.2731718 43.93243429 -33.31381463 45.04792067 -34.34350586 46.17333984 C-42.93088605 55.53761413 -42.93088605 55.53761413 -48.21630859 56.71875 C-50.9167068 56.71875 -53.35821557 56.54003148 -56 56 C-37.33333333 37.33333333 -18.66666667 18.66666667 0 0 Z " fill="#2687A4" transform="translate(510,393)"/>
<path d="M0 0 C0.94488281 -0.04898438 1.88976562 -0.09796875 2.86328125 -0.1484375 C6.97835059 0.61424478 8.29471419 1.95858561 10.6875 5.375 C11.27486322 8.67363771 11.16174037 11.85067169 11 15.1875 C10.97744141 16.07115234 10.95488281 16.95480469 10.93164062 17.86523438 C10.87297428 20.0358891 10.78329979 22.2056669 10.6875 24.375 C9.6975 24.375 8.7075 24.375 7.6875 24.375 C7.6875 23.715 7.6875 23.055 7.6875 22.375 C7.1925 22.705 6.6975 23.035 6.1875 23.375 C2.64404571 24.79238172 -0.54725769 24.98453718 -4.3125 24.375 C-6.8125 22.8125 -6.8125 22.8125 -8.3125 20.375 C-8.8125 16.8125 -8.8125 16.8125 -8.3125 13.375 C-5.9859308 10.95979959 -4.65762289 10.40852878 -1.296875 10.08203125 C-0.22953125 10.11683594 0.8378125 10.15164063 1.9375 10.1875 C3.55398438 10.22810547 3.55398438 10.22810547 5.203125 10.26953125 C6.02296875 10.30433594 6.8428125 10.33914063 7.6875 10.375 C6.59965032 7.12516865 6.59965032 7.12516865 4.6875 4.375 C3.25169394 4.30219036 1.81249502 4.29132577 0.375 4.3125 C-0.40488281 4.32152344 -1.18476563 4.33054687 -1.98828125 4.33984375 C-3.13876953 4.35724609 -3.13876953 4.35724609 -4.3125 4.375 C-5.6325 4.375 -6.9525 4.375 -8.3125 4.375 C-7.9825 3.385 -7.6525 2.395 -7.3125 1.375 C-4.7764472 0.1069736 -2.83238836 0.09965101 0 0 Z " fill="#374673" transform="translate(330.3125,694.625)"/>
<path d="M0 0 C1.43472656 -0.07347656 1.43472656 -0.07347656 2.8984375 -0.1484375 C5.625 0.375 5.625 0.375 7.9609375 2.28515625 C10.30786672 6.64295206 10.06352998 10.32560197 9.875 15.1875 C9.85695313 16.07115234 9.83890625 16.95480469 9.8203125 17.86523438 C9.77338513 20.03562543 9.70164731 22.20545519 9.625 24.375 C8.635 24.375 7.645 24.375 6.625 24.375 C6.625 23.715 6.625 23.055 6.625 22.375 C6.13 22.705 5.635 23.035 5.125 23.375 C1.58517302 24.79093079 -1.61347419 24.99164358 -5.375 24.375 C-7.875 22.75 -7.875 22.75 -9.375 20.375 C-9.9375 17.375 -9.9375 17.375 -9.375 14.375 C-7.5625 12 -7.5625 12 -4.375 10.375 C-0.68275811 10.05348455 2.92937039 10.14200059 6.625 10.375 C6.02316251 8.35454558 5.35193904 6.35388961 4.625 4.375 C0.54238804 2.33369402 -4.07836653 3.36402742 -8.375 4.375 C-8.045 3.385 -7.715 2.395 -7.375 1.375 C-4.82409127 0.09954563 -2.84834154 0.09927196 0 0 Z " fill="#293A6D" transform="translate(570.375,694.625)"/>
<path d="M0 0 C0.99 0 1.98 0 3 0 C3.33 7.26 3.66 14.52 4 22 C7.78329091 18.01910711 7.78329091 18.01910711 11.53808594 14.01147461 C12.984375 12.52734375 12.984375 12.52734375 16 10 C17.32 10.33 18.64 10.66 20 11 C17.36 13.64 14.72 16.28 12 19 C14.14167767 23.28335535 16.73128101 26.8956804 19.5390625 30.7578125 C21 33 21 33 21 35 C18.14820529 34.64037102 17.10604616 34.11014144 15.078125 32.00390625 C14.47484375 31.19824219 13.8715625 30.39257812 13.25 29.5625 C12.63640625 28.75941406 12.0228125 27.95632813 11.390625 27.12890625 C10 25 10 25 10 23 C6.90153551 24.45201834 6.90153551 24.45201834 4 27 C3.16104266 29.76486571 3.09752026 32.07439213 3 35 C2.01 35 1.02 35 0 35 C0 23.45 0 11.9 0 0 Z " fill="#2A3A6E" transform="translate(384,684)"/>
<path d="M0 0 C1.32 0 2.64 0 4 0 C6.64 6.27 9.28 12.54 12 19 C14.21424376 14.24394115 14.21424376 14.24394115 16.42724609 9.48730469 C17.91124115 6.30352303 19.40309346 3.1292916 21 0 C21.99 0 22.98 0 24 0 C14.84172662 28.43884892 14.84172662 28.43884892 8 33 C5.95703125 33.1953125 5.95703125 33.1953125 3.8125 33.125 C2.554375 33.08375 1.29625 33.0425 0 33 C0 31.68 0 30.36 0 29 C2.97 29 5.94 29 9 29 C9.66097084 22.28930994 7.39146351 17.65711311 4.5 11.6875 C3.65323857 9.90116396 2.80933713 8.11346849 1.96875 6.32421875 C1.59169922 5.54135498 1.21464844 4.75849121 0.82617188 3.9519043 C0 2 0 2 0 0 Z " fill="#2A396A" transform="translate(609,695)"/>
<path d="M0 0 C3.27981751 2.06771104 4.84746007 3.77119011 7 7 C7.69502786 11.76821439 7.69437161 15.76556158 5.3125 20 C1.59989227 23.21090399 -0.61935261 24.07266565 -5.5625 23.8125 C-8.88093023 23.02814376 -10.61107635 22.38892365 -13 20 C-13 19.34 -13 18.68 -13 18 C-12.505 18.165 -12.01 18.33 -11.5 18.5 C-6.8012832 19.43974336 -2.63695258 20.06401918 1.5 17.375 C3.42109443 14.33326715 3.45185216 12.53950857 3 9 C2.34 8.01 1.68 7.02 1 6 C-4.30864606 5.38746392 -7.37181613 6.52445979 -12 9 C-12.66 8.67 -13.32 8.34 -14 8 C-13.6858889 5.06829636 -12.9610478 3.95750669 -10.9375 1.75 C-7.15882455 -0.5011258 -4.30049067 -0.87925012 0 0 Z " fill="#F79B54" transform="translate(703,557)"/>
<path d="M0 0 C1.45599609 0.02320313 1.45599609 0.02320313 2.94140625 0.046875 C5.4375 0.25 5.4375 0.25 7.4375 1.25 C7.4375 2.24 7.4375 3.23 7.4375 4.25 C3.4775 4.25 -0.4825 4.25 -4.5625 4.25 C-4.2325 5.9 -3.9025 7.55 -3.5625 9.25 C-2.87542969 9.43175781 -2.18835938 9.61351562 -1.48046875 9.80078125 C-0.57941406 10.05214844 0.32164062 10.30351563 1.25 10.5625 C2.14332031 10.80613281 3.03664063 11.04976562 3.95703125 11.30078125 C6.52970316 12.28528405 7.8057972 13.04720122 9.4375 15.25 C9.36702794 18.63265872 9.19091444 20.51550693 6.7265625 22.91796875 C3.91299286 24.55521661 2.1115781 24.6197456 -1.125 24.5625 C-2.07503906 24.55863281 -3.02507813 24.55476562 -4.00390625 24.55078125 C-6.5625 24.25 -6.5625 24.25 -9.5625 22.25 C-9.5625 21.26 -9.5625 20.27 -9.5625 19.25 C-9.02109375 19.41371094 -8.4796875 19.57742188 -7.921875 19.74609375 C-5.16027407 20.33590587 -2.63431861 20.34609308 0.1875 20.3125 C1.17234375 20.30347656 2.1571875 20.29445313 3.171875 20.28515625 C3.91953125 20.27355469 4.6671875 20.26195312 5.4375 20.25 C5.4375 18.6 5.4375 16.95 5.4375 15.25 C4.19033203 14.99476563 4.19033203 14.99476563 2.91796875 14.734375 C1.83128906 14.49203125 0.74460937 14.2496875 -0.375 14 C-1.99341797 13.65195312 -1.99341797 13.65195312 -3.64453125 13.296875 C-6.89543162 12.13055465 -7.94133374 11.25746391 -9.5625 8.25 C-9.42664985 5.46507198 -9.01196366 3.8594669 -7.35546875 1.61328125 C-4.85575416 -0.2873732 -3.10319521 -0.08264168 0 0 Z " fill="#354270" transform="translate(723.5625,694.75)"/>
<path d="M0 0 C0.99 0 1.98 0 3 0 C3 0.99 3 1.98 3 3 C3.66 3 4.32 3 5 3 C5 2.34 5 1.68 5 1 C7.40513021 -0.20256511 9.12853564 -0.2703777 11.8125 -0.375 C12.66457031 -0.42398438 13.51664063 -0.47296875 14.39453125 -0.5234375 C18.35430143 0.27207855 19.67264087 1.72430414 22 5 C22.59019328 8.29803088 22.47423074 11.4758704 22.3125 14.8125 C22.28994141 15.69615234 22.26738281 16.57980469 22.24414062 17.49023438 C22.18547428 19.6608891 22.09579979 21.8306669 22 24 C21.01 24 20.02 24 19 24 C18.97421875 22.73542969 18.9484375 21.47085938 18.921875 20.16796875 C18.86559734 18.50777782 18.80824993 16.8476229 18.75 15.1875 C18.73582031 14.35412109 18.72164062 13.52074219 18.70703125 12.66210938 C18.62481558 7.86017666 18.62481558 7.86017666 16.140625 3.953125 C13.17990693 2.63484907 11.205712 2.53250033 8 3 C5.58201614 4.67229176 4.21612134 5.99198857 3.58789062 8.92211914 C3.38210905 11.20379871 3.29178286 13.45953941 3.25 15.75 C3.22035156 16.54277344 3.19070313 17.33554687 3.16015625 18.15234375 C3.08972213 20.10102094 3.04256518 22.05051495 3 24 C2.01 24 1.02 24 0 24 C0 16.08 0 8.16 0 0 Z " fill="#29386A" transform="translate(526,695)"/>
<path d="M0 0 C1.45599609 0.02320313 1.45599609 0.02320313 2.94140625 0.046875 C5.4375 0.25 5.4375 0.25 7.4375 1.25 C7.4375 2.24 7.4375 3.23 7.4375 4.25 C6.921875 4.085 6.40625 3.92 5.875 3.75 C2.70386124 3.09951 -0.33468334 3.1879266 -3.5625 3.25 C-3.8925 4.9 -4.2225 6.55 -4.5625 8.25 C-3.71945312 8.51554688 -2.87640625 8.78109375 -2.0078125 9.0546875 C-0.36425781 9.58449219 -0.36425781 9.58449219 1.3125 10.125 C2.94832031 10.64707031 2.94832031 10.64707031 4.6171875 11.1796875 C7.4375 12.25 7.4375 12.25 9.4375 14.25 C9.36653335 18.15316601 9.30247221 20.41205817 6.4375 23.1875 C1.73814984 24.85185318 -3.20899313 25.30362829 -7.83984375 23.23046875 C-8.40832031 22.90691406 -8.97679687 22.58335937 -9.5625 22.25 C-9.5625 21.26 -9.5625 20.27 -9.5625 19.25 C-8.9025 19.415 -8.2425 19.58 -7.5625 19.75 C-3.35991967 20.45043005 1.54166059 21.1979197 5.4375 19.25 C5.31809914 17.27274295 5.31809914 17.27274295 4.4375 15.25 C2.22021679 14.21466921 2.22021679 14.21466921 -0.4375 13.6875 C-4.01839537 12.84708578 -6.30021189 12.25414233 -8.5625 9.25 C-9.19931241 4.15550071 -9.19931241 4.15550071 -7.38671875 1.578125 C-4.85986699 -0.26155294 -3.09282702 -0.08236557 0 0 Z " fill="#253265" transform="translate(362.5625,694.75)"/>
<path d="M0 0 C2.2877649 1.45262949 3.34552667 2.79403556 5 5 C1 5 1 5 -1 4 C-3.93421006 3.71604419 -6.15098834 3.50451971 -9 4 C-12.04666973 6.58966927 -12.88962249 8.09858364 -13.375 12.0625 C-13.01355323 14.89383307 -12.57370678 16.63943983 -11 19 C-7.82587823 20.58706088 -4.46361333 20.28477127 -1 20 C1.88214887 19.11785113 1.88214887 19.11785113 4 18 C4.33 18.99 4.66 19.98 5 21 C0.944922 24.2440624 -2.61502475 24.51557955 -7.625 24.3515625 C-11.08089231 23.83999949 -12.73468427 22.61927131 -15 20 C-17.25059535 16.03466534 -17.47404865 12.50346218 -17 8 C-12.85918326 0.43230044 -8.31697676 -1.36409014 0 0 Z " fill="#354576" transform="translate(700,695)"/>
<path d="M0 0 C8.58 0 17.16 0 26 0 C26 0.99 26 1.98 26 3 C22.37 3 18.74 3 15 3 C15 12.57 15 22.14 15 32 C14.01 32 13.02 32 12 32 C12 22.43 12 12.86 12 3 C8.04 3 4.08 3 0 3 C0 2.01 0 1.02 0 0 Z " fill="#27386C" transform="translate(289,687)"/>
<path d="M0 0 C0.66 0.66 1.32 1.32 2 2 C-13.84 17.84 -29.68 33.68 -46 50 C-46.99 49.67 -47.98 49.34 -49 49 C-32.83 32.83 -16.66 16.66 0 0 Z " fill="#F79845" transform="translate(588,400)"/>
<path d="M0 0 C1.32 0 2.64 0 4 0 C3.60977038 5.00794681 1.00967063 7.86914777 -2.375 11.3125 C-2.90577148 11.85358398 -3.43654297 12.39466797 -3.98339844 12.95214844 C-7.6063063 16.36055613 -10.09174303 17.79689325 -15.25 17.75 C-18.015625 17.421875 -18.015625 17.421875 -20 17 C-18.83137858 15.83137858 -17.6618509 14.66365216 -16.48828125 13.5 C-15.49072379 12.49458776 -14.50889128 11.47334185 -13.54296875 10.4375 C-9.52415114 6.19600384 -5.59011005 3.86337002 0 2 C0 1.34 0 0.68 0 0 Z " fill="#24769A" transform="translate(474,432)"/>
<path d="M0 0 C0.99 0 1.98 0 3 0 C3 1.65 3 3.3 3 5 C5.31 5 7.62 5 10 5 C10.33 5.99 10.66 6.98 11 8 C8.36 8 5.72 8 3 8 C3.33 13.94 3.66 19.88 4 26 C6.31 26.33 8.62 26.66 11 27 C11 27.99 11 28.98 11 30 C3.47991846 30.36984008 3.47991846 30.36984008 1.390625 28.75976562 C-0.37220868 26.52898873 -0.34966133 25.3665129 -0.29296875 22.55078125 C-0.28330078 21.70322266 -0.27363281 20.85566406 -0.26367188 19.98242188 C-0.23853516 19.10134766 -0.21339844 18.22027344 -0.1875 17.3125 C-0.17396484 16.41982422 -0.16042969 15.52714844 -0.14648438 14.60742188 C-0.11114079 12.40433834 -0.06180493 10.20247418 0 8 C-1.65 8 -3.3 8 -5 8 C-5 7.34 -5 6.68 -5 6 C-3.35 6 -1.7 6 0 6 C0 4.02 0 2.04 0 0 Z " fill="#29396C" transform="translate(644,689)"/>
<path d="M0 0 C2.65340073 1.02429072 4.28276835 2.46493348 6.375 4.3828125 C7.08140625 5.02347656 7.7878125 5.66414062 8.515625 6.32421875 C9.04671875 6.81792969 9.5778125 7.31164062 10.125 7.8203125 C8.375 11.6953125 8.375 11.6953125 6.125 12.8203125 C4.06640625 13.0234375 4.06640625 13.0234375 1.6875 13.0703125 C0.90503906 13.09609375 0.12257813 13.121875 -0.68359375 13.1484375 C-3.40586455 12.74082476 -4.24750975 12.00565319 -5.875 9.8203125 C-6.43016073 6.09280477 -6.3422176 4.47107987 -4.125 1.3828125 C-1.875 -0.1796875 -1.875 -0.1796875 0 0 Z " fill="#F7F7F7" transform="translate(440.875,703.1796875)"/>
<path d="M0 0 C4.53786224 2.26893112 5.94678157 4.09866534 9 8 C8.443125 7.71125 7.88625 7.4225 7.3125 7.125 C4.91505355 5.9586747 2.48403061 4.9660119 0 4 C-0.71929688 4.72002197 -1.43859375 5.44004395 -2.1796875 6.18188477 C-4.82297731 8.82311522 -7.47298791 11.4573754 -10.125 14.08984375 C-11.58437484 15.54184469 -13.04326866 16.99432701 -14.50195312 18.44702148 C-15.49975628 19.43978358 -16.4984534 20.43164799 -17.49804688 21.42260742 C-22.56193171 26.44407141 -27.51032272 31.45185264 -32 37 C-33.63072616 38.37705764 -35.2866438 39.72722111 -37 41 C-37.495 39.515 -37.495 39.515 -38 38 C-25.46 25.46 -12.92 12.92 0 0 Z " fill="#1BC8BC" transform="translate(600,303)"/>
<path d="M0 0 C2.66355234 -0.39169887 4.39224373 -0.40564529 6.66796875 1.11328125 C8.1510888 2.36389317 9.57954352 3.67864514 11 5 C11.33 4.01 11.66 3.02 12 2 C12.99 2 13.98 2 15 2 C14.773125 3.051875 14.54625 4.10375 14.3125 5.1875 C13.96819556 9.38801417 14.51227742 10.7162062 17 14 C14.33333333 14 11.66666667 14 9 14 C8.36320312 14.32484375 7.72640625 14.6496875 7.0703125 14.984375 C4.53584734 16.22769753 2.6851856 16.26677723 -0.125 16.25 C-1.42824219 16.25773438 -1.42824219 16.25773438 -2.7578125 16.265625 C-5 16 -5 16 -7 14 C-6.34 14 -5.68 14 -5 14 C-4.67 13.34 -4.34 12.68 -4 12 C-3.09507812 12.06960938 -3.09507812 12.06960938 -2.171875 12.140625 C3.08413333 12.47810312 3.08413333 12.47810312 7.5625 10 C8.2740625 9.01 8.2740625 9.01 9 8 C8.443125 7.79375 7.88625 7.5875 7.3125 7.375 C4.07498698 5.44999226 2.31768859 2.96149098 0 0 Z " fill="#314174" transform="translate(442,703)"/>
<path d="M0 0 C0.66 0 1.32 0 2 0 C3.00696568 2.10084209 4.0053589 4.20579489 5 6.3125 C5.556875 7.48425781 6.11375 8.65601563 6.6875 9.86328125 C8 13 8 13 8 16 C3.38 16 -1.24 16 -6 16 C-4.23196827 10.52752083 -2.34565002 5.24978815 0 0 Z " fill="#EDEEF2" transform="translate(498,691)"/>
<path d="M0 0 C0.94488281 -0.04898438 1.88976562 -0.09796875 2.86328125 -0.1484375 C6.95913617 0.61068361 8.29267573 1.9902574 10.6875 5.375 C11.27057734 8.50954211 11.16283874 11.51339709 11 14.6875 C10.97744141 15.52345703 10.95488281 16.35941406 10.93164062 17.22070312 C10.8730061 19.27291149 10.78333215 21.32419202 10.6875 23.375 C10.0275 23.375 9.3675 23.375 8.6875 23.375 C8.6875 22.715 8.6875 22.055 8.6875 21.375 C8.0275 21.375 7.3675 21.375 6.6875 21.375 C7.1825 16.92 7.1825 16.92 7.6875 12.375 C4.7175 12.375 1.7475 12.375 -1.3125 12.375 C-1.3125 12.045 -1.3125 11.715 -1.3125 11.375 C1.6575 11.375 4.6275 11.375 7.6875 11.375 C6.71973902 7.57952079 6.71973902 7.57952079 4.6875 4.375 C3.25169394 4.30219036 1.81249502 4.29132577 0.375 4.3125 C-0.40488281 4.32152344 -1.18476563 4.33054687 -1.98828125 4.33984375 C-3.13876953 4.35724609 -3.13876953 4.35724609 -4.3125 4.375 C-5.6325 4.375 -6.9525 4.375 -8.3125 4.375 C-7.9825 3.385 -7.6525 2.395 -7.3125 1.375 C-4.7764472 0.1069736 -2.83238836 0.09965101 0 0 Z " fill="#213064" transform="translate(330.3125,694.625)"/>
<path d="M0 0 C0.99 0 1.98 0 3 0 C3 11.22 3 22.44 3 34 C2.01 34 1.02 34 0 34 C0 22.78 0 11.56 0 0 Z " fill="#303E6D" transform="translate(596,685)"/>
<path d="M0 0 C0.35555556 5.33333333 0.35555556 5.33333333 -1 7.875 C-4.33905554 9.75321874 -7.20998874 9.30079454 -11 9 C-11.66 8.34 -12.32 7.68 -13 7 C-12.875 4.5 -12.875 4.5 -12 2 C-8.57759562 -0.87481968 -4.22398815 -0.1407996 0 0 Z " fill="#EFEFF2" transform="translate(577,707)"/>
<path d="M0 0 C1.51400391 0.01740234 1.51400391 0.01740234 3.05859375 0.03515625 C4.07050781 0.04417969 5.08242188 0.05320312 6.125 0.0625 C7.29869141 0.07990234 7.29869141 0.07990234 8.49609375 0.09765625 C8.62109375 4.87109375 8.62109375 4.87109375 7.49609375 6.91015625 C4.1725224 8.88352674 1.3155113 8.40078463 -2.50390625 8.09765625 C-3.16390625 7.43765625 -3.82390625 6.77765625 -4.50390625 6.09765625 C-3.77826013 0.14735804 -3.77826013 0.14735804 0 0 Z " fill="#F6F6F6" transform="translate(329.50390625,707.90234375)"/>
<path d="M0 0 C2.72869407 0.03287583 5.2966618 0.56397771 8 1 C8.1875 4.375 8.1875 4.375 8 8 C4.79191085 10.1387261 3.72301503 10.47730962 0 10 C-2.14915785 6.77626323 -2.38286803 5.73296326 -2 2 C-1.34 1.34 -0.68 0.68 0 0 Z " fill="#F9D29D" transform="translate(696,565)"/>
<path d="M0 0 C0.66 0 1.32 0 2 0 C2 7.59 2 15.18 2 23 C3.32 23.33 4.64 23.66 6 24 C5.34 24.66 4.68 25.32 4 26 C3.54188325 27.97235333 3.54188325 27.97235333 3.375 30.125 C3.25125 31.40375 3.1275 32.6825 3 34 C2.01 34 1.02 34 0 34 C0 22.78 0 11.56 0 0 Z " fill="#1C275B" transform="translate(384,685)"/>
<path d="M0 0 C-2.67826051 6.33043394 -7.55254171 10.57414467 -12.6640625 14.921875 C-17.31749391 19.06171699 -21.63367584 23.56143886 -26 28 C-26.99 27.67 -27.98 27.34 -29 27 C-25.19776083 23.14844023 -21.38908788 19.30340607 -17.57421875 15.46435547 C-16.27651486 14.15657422 -14.98060901 12.84700631 -13.68652344 11.53564453 C-11.82953602 9.65448499 -9.96624438 7.77977878 -8.1015625 5.90625 C-7.52129303 5.31565796 -6.94102356 4.72506592 -6.34317017 4.11657715 C-2.22774341 0 -2.22774341 0 0 0 Z " fill="#1EB5B4" transform="translate(563,342)"/>
<path d="M0 0 C0.99 0 1.98 0 3 0 C0.60309494 7.44302097 -2.15262441 14.71837152 -5 22 C-8 22 -8 22 -10 21 C-9.67 20.34 -9.34 19.68 -9 19 C-7.53467911 15.86369915 -6.07371238 12.72542417 -4.61523438 9.5859375 C-3.11765281 6.36914497 -1.6128471 3.16085613 0 0 Z " fill="#354777" transform="translate(630,695)"/>
<path d="M0 0 C0.99 0 1.98 0 3 0 C3 8.25 3 16.5 3 25 C2.01 25 1.02 25 0 25 C0 16.75 0 8.5 0 0 Z " fill="#2F3C6D" transform="translate(668,694)"/>
<path d="M0 0 C0.99 0.33 1.98 0.66 3 1 C2.67 1.66 2.34 2.32 2 3 C1.34 3 0.68 3 0 3 C-0.31324219 3.78697266 -0.31324219 3.78697266 -0.6328125 4.58984375 C-2.58059396 8.02350422 -5.18371683 10.69373412 -7.875 13.5625 C-8.40480469 14.13935547 -8.93460937 14.71621094 -9.48046875 15.31054688 C-12.14816813 18.1801441 -14.73962206 20.78703816 -18 23 C-18.66 22.67 -19.32 22.34 -20 22 C-19.53625977 21.51120361 -19.07251953 21.02240723 -18.59472656 20.51879883 C-16.47781673 18.28525266 -14.36388822 16.04890596 -12.25 13.8125 C-11.52039063 13.04357422 -10.79078125 12.27464844 -10.0390625 11.48242188 C-6.53051801 7.7665543 -3.10044139 4.07136909 0 0 Z " fill="#223970" transform="translate(481,591)"/>
<path d="M0 0 C0.33 0 0.66 0 1 0 C1.06058594 1.21558594 1.12117187 2.43117188 1.18359375 3.68359375 C1.26798332 5.26824228 1.3526321 6.85287702 1.4375 8.4375 C1.47681641 9.23994141 1.51613281 10.04238281 1.55664062 10.86914062 C1.4054296 14.75239561 1.4054296 14.75239561 3 18 C5.32817964 18.36760731 7.6618385 18.70241581 10 19 C10 19.99 10 20.98 10 22 C2.47360564 22.37015054 2.47360564 22.37015054 0.39282227 20.74389648 C-1.32793054 18.58941142 -1.36294862 17.53233776 -1.328125 14.8046875 C-1.32296875 14.00675781 -1.3178125 13.20882812 -1.3125 12.38671875 C-1.291875 11.55785156 -1.27125 10.72898437 -1.25 9.875 C-1.24484375 9.03839844 -1.2396875 8.20179688 -1.234375 7.33984375 C-1.1541718 1.1541718 -1.1541718 1.1541718 0 0 Z " fill="#1D2D63" transform="translate(645,697)"/>
<path d="M0 0 C0.33 0.66 0.66 1.32 1 2 C0.34 2 -0.32 2 -1 2 C0.71124433 4.52183375 2.27469617 6.21720163 4.6875 8.125 C5.450625 8.74375 6.21375 9.3625 7 10 C7 10.66 7 11.32 7 12 C7.66 12 8.32 12 9 12 C9.33 12.99 9.66 13.98 10 15 C10.99 15.33 11.98 15.66 13 16 C13 16.99 13 17.98 13 19 C13.99 19.33 14.98 19.66 16 20 C16.6875 22.0625 16.6875 22.0625 17 24 C11.93376232 19.76183463 7.19961931 15.32591037 2.5625 10.625 C1.92634766 9.98433594 1.29019531 9.34367187 0.63476562 8.68359375 C-0.91250332 7.12469121 -2.45736492 5.56348584 -4 4 C-3.67 3.01 -3.34 2.02 -3 1 C-2.01 0.67 -1.02 0.34 0 0 Z " fill="#F76E37" transform="translate(470,458)"/>
<path d="M0 0 C0.78503906 0.00386719 1.57007813 0.00773438 2.37890625 0.01171875 C4.4375 0.3125 4.4375 0.3125 6.4375 2.3125 C6.5625 5.9375 6.5625 5.9375 6.4375 9.3125 C6.1075 9.3125 5.7775 9.3125 5.4375 9.3125 C5.4375 7.3325 5.4375 5.3525 5.4375 3.3125 C1.43495544 3.22068866 1.43495544 3.22068866 -2.5625 3.3125 C-2.8925 3.6425 -3.2225 3.9725 -3.5625 4.3125 C-3.27519945 6.65194736 -2.94313221 8.9864143 -2.5625 11.3125 C-0.9125 11.6425 0.7375 11.9725 2.4375 12.3125 C2.4375 12.6425 2.4375 12.9725 2.4375 13.3125 C-1.09927664 13.63402515 -2.9587104 13.7256192 -5.9375 11.6875 C-8.02629841 8.63464079 -8.10318562 6.94281776 -7.5625 3.3125 C-5.32204259 0.31113252 -3.6731531 -0.0786672 0 0 Z " fill="#F9BB77" transform="translate(698.5625,562.6875)"/>
<path d="M0 0 C2.5625 0.1875 2.5625 0.1875 4.5625 2.1875 C4.23278521 5.48464793 3.9398161 6.8101839 1.5625 9.1875 C0.2425 9.1875 -1.0775 9.1875 -2.4375 9.1875 C-4.4375 6.1875 -4.4375 6.1875 -4.125 3.5625 C-3.16420807 0.24340062 -3.16420807 0.24340062 0 0 Z " fill="#ECECF0" transform="translate(442.4375,688.8125)"/>
<path d="M0 0 C0.33 0.66 0.66 1.32 1 2 C0.34 2.66 -0.32 3.32 -1 4 C-1.33 3.67 -1.66 3.34 -2 3 C-3.66617115 2.95936168 -5.33388095 2.957279 -7 3 C-7.59732819 5.76264289 -8 8.16032769 -8 11 C-8.99 11 -9.98 11 -11 11 C-12.43735246 8.12529507 -12.38172649 6.18105412 -12 3 C-8.26249016 -1.41705708 -5.43661968 -1.4637053 0 0 Z " fill="#324071" transform="translate(447,687)"/>
<path d="M0 0 C0.99 1.32 1.98 2.64 3 4 C1.6875 6 1.6875 6 -1 8 C-6.19863438 8.66928526 -10.57048752 8.95300832 -15 6 C-15 5.01 -15 4.02 -15 3 C-14.45859375 3.16371094 -13.9171875 3.32742188 -13.359375 3.49609375 C-10.59777407 4.08590587 -8.07181861 4.09609308 -5.25 4.0625 C-4.26515625 4.05347656 -3.2803125 4.04445313 -2.265625 4.03515625 C-1.51796875 4.02355469 -0.7703125 4.01195312 0 4 C0 2.68 0 1.36 0 0 Z " fill="#3E4B7A" transform="translate(729,711)"/>
<path d="M0 0 C0 1.98 0 3.96 0 6 C-0.99 6 -1.98 6 -3 6 C-4.61090549 7.19643335 -4.61090549 7.19643335 -6.13671875 8.84375 C-6.71357422 9.43027344 -7.29042969 10.01679688 -7.88476562 10.62109375 C-8.77711914 11.55115234 -8.77711914 11.55115234 -9.6875 12.5 C-10.29400391 13.12003906 -10.90050781 13.74007813 -11.52539062 14.37890625 C-13.02373743 15.91264707 -14.51276493 17.45548198 -16 19 C-16.99 18.67 -17.98 18.34 -19 18 C-16.02484693 14.99599642 -13.04422593 11.99747845 -10.0625 9 C-9.21236328 8.14148438 -8.36222656 7.28296875 -7.48632812 6.3984375 C-6.67744141 5.58632813 -5.86855469 4.77421875 -5.03515625 3.9375 C-4.2862915 3.18339844 -3.53742676 2.42929687 -2.76586914 1.65234375 C-1 0 -1 0 0 0 Z " fill="#1A9BA8" transform="translate(610,442)"/>
<path d="M0 0 C0.33 1.32 0.66 2.64 1 4 C0.29875 4.515625 -0.4025 5.03125 -1.125 5.5625 C-3.42565892 7.51305865 -5.11552271 9.25816508 -7 11.5625 C-9.3811352 14.41618007 -11.54307507 16.46358892 -15 18 C-15.66 17.67 -16.32 17.34 -17 17 C-11.39 11.39 -5.78 5.78 0 0 Z " fill="#25598A" transform="translate(478,497)"/>
<path d="M0 0 C0.99 0.33 1.98 0.66 3 1 C-2.92941176 8.24705882 -2.92941176 8.24705882 -6 11 C-6.66 11 -7.32 11 -8 11 C-8 11.66 -8 12.32 -8 13 C-9.53125 14.2890625 -9.53125 14.2890625 -11.5 15.625 C-12.1496875 16.07101562 -12.799375 16.51703125 -13.46875 16.9765625 C-13.9740625 17.31429688 -14.479375 17.65203125 -15 18 C-15.66 17.67 -16.32 17.34 -17 17 C-11.39 11.39 -5.78 5.78 0 0 Z " fill="#1B90A4" transform="translate(510,393)"/>
<path d="M0 0 C1.45212891 -0.03867187 1.45212891 -0.03867187 2.93359375 -0.078125 C5.5625 0.25 5.5625 0.25 7.41015625 1.765625 C7.79042969 2.25546875 8.17070312 2.7453125 8.5625 3.25 C7.5725 3.91 6.5825 4.57 5.5625 5.25 C5.2325 4.92 4.9025 4.59 4.5625 4.25 C3.12669394 4.17719036 1.68749502 4.16632577 0.25 4.1875 C-0.52988281 4.19652344 -1.30976563 4.20554687 -2.11328125 4.21484375 C-3.26376953 4.23224609 -3.26376953 4.23224609 -4.4375 4.25 C-5.7575 4.25 -7.0775 4.25 -8.4375 4.25 C-8.1075 3.26 -7.7775 2.27 -7.4375 1.25 C-4.85741408 -0.04004296 -2.88008426 0.04589776 0 0 Z " fill="#2F3B6F" transform="translate(330.4375,694.75)"/>
<path d="M0 0 C2.45391569 3.68087353 2.22802759 6.44355588 2.125 10.6875 C2.11597656 11.38939453 2.10695313 12.09128906 2.09765625 12.81445312 C2.07413704 14.54311525 2.03826713 16.27160145 2 18 C1.01 18 0.02 18 -1 18 C-1.02684312 15.18743719 -1.04676188 12.37512759 -1.0625 9.5625 C-1.07087891 8.76005859 -1.07925781 7.95761719 -1.08789062 7.13085938 C-1.0965143 5.08704779 -1.0522815 3.04316098 -1 1 C-0.67 0.67 -0.34 0.34 0 0 Z " fill="#243666" transform="translate(546,701)"/>
<path d="M0 0 C1.32 0 2.64 0 4 0 C3.64212875 2.64824722 3.31760089 4.55535876 1.75 6.75 C-0.44464124 8.31760089 -2.35175278 8.64212875 -5 9 C-4.67 8.34 -4.34 7.68 -4 7 C-4.66 6.34 -5.32 5.68 -6 5 C-2.25 2 -2.25 2 0 2 C0 1.34 0 0.68 0 0 Z M-8 6 C-7.01 6.495 -7.01 6.495 -6 7 C-6.99 7.495 -6.99 7.495 -8 8 C-8 7.34 -8 6.68 -8 6 Z " fill="#207194" transform="translate(474,432)"/>
<path d="M0 0 C-0.12568359 0.99580078 -0.12568359 0.99580078 -0.25390625 2.01171875 C-1.05425042 8.54720848 -1.05425042 8.54720848 0 15 C-0.99 15 -1.98 15 -3 15 C-4.99584278 10.88357426 -5.42196743 7.55724828 -5 3 C-3.37600669 0.7116458 -2.82814211 0 0 0 Z " fill="#363F71" transform="translate(688,700)"/>
<path d="M0 0 C0.33 0 0.66 0 1 0 C1.33 2.31 1.66 4.62 2 7 C0.09598862 8.90401138 -1.33425686 9.93520439 -4.046875 10.19921875 C-6.03233273 10.1886578 -8.0169914 10.09915043 -10 10 C-10 8.68 -10 7.36 -10 6 C-7.03 6 -4.06 6 -1 6 C-0.67 4.02 -0.34 2.04 0 0 Z " fill="#384C7D" transform="translate(619,718)"/>
<path d="M0 0 C4 2 4 2 5 4 C4.01 4 3.02 4 2 4 C1.67 13.57 1.34 23.14 1 33 C0.67 33 0.34 33 0 33 C0 22.11 0 11.22 0 0 Z " fill="#698DAE" transform="translate(502,511)"/>
<path d="M0 0 C2.11635213 2.57642867 3.67339287 4.62505968 4 8 C3.01 9.485 3.01 9.485 2 11 C-0.62697064 11.22137393 -3.00893964 11.28162025 -5.625 11.1875 C-6.33140625 11.17396484 -7.0378125 11.16042969 -7.765625 11.14648438 C-9.51074128 11.1111104 -11.25546608 11.05730221 -13 11 C-13 10.67 -13 10.34 -13 10 C-8.38 10 -3.76 10 1 10 C0.01 7.36 -0.98 4.72 -2 2 C-1.34 2 -0.68 2 0 2 C0 1.34 0 0.68 0 0 Z " fill="#374978" transform="translate(505,697)"/>
<path d="M0 0 C0.33 0.66 0.66 1.32 1 2 C1.66 2 2.32 2 3 2 C3.33 5.3 3.66 8.6 4 12 C3.01 12.33 2.02 12.66 1 13 C-0.80098121 9.17291493 -1.28143104 6.22146566 -1 2 C-0.67 1.34 -0.34 0.68 0 0 Z " fill="#F99D5D" transform="translate(688,563)"/>
<path d="M0 0 C0.99 0 1.98 0 3 0 C3.33 2.31 3.66 4.62 4 7 C4.99 7.33 5.98 7.66 7 8 C6.67 9.98 6.34 11.96 6 14 C5.34 14 4.68 14 4 14 C0.74031891 4.58997722 0.74031891 4.58997722 0 0 Z " fill="#26376A" transform="translate(616,709)"/>
<path d="M0 0 C0.99 0 1.98 0 3 0 C3.33 7.26 3.66 14.52 4 22 C5.32 21.01 6.64 20.02 8 19 C8 20.65 8 22.3 8 24 C6 25 6 25 2 24 C2 16.41 2 8.82 2 1 C1.34 0.67 0.68 0.34 0 0 Z " fill="#394572" transform="translate(384,684)"/>
<path d="M0 0 C0.33 0 0.66 0 1 0 C1.33 3.3 1.66 6.6 2 10 C2.33 10 2.66 10 3 10 C3.33 13.96 3.66 17.92 4 22 C3.34 22 2.68 22 2 22 C0.33325679 19.08175756 -0.2432008 17.02405621 -0.1953125 13.671875 C-0.18886719 12.87265625 -0.18242187 12.0734375 -0.17578125 11.25 C-0.15902344 10.425 -0.14226562 9.6 -0.125 8.75 C-0.11597656 7.90953125 -0.10695313 7.0690625 -0.09765625 6.203125 C-0.07415817 4.13529396 -0.03828908 2.06761005 0 0 Z " fill="#293D6E" transform="translate(275,618)"/>
<path d="M0 0 C4.29 0 8.58 0 13 0 C13 0.33 13 0.66 13 1 C11.96939453 1.05607422 11.96939453 1.05607422 10.91796875 1.11328125 C10.01691406 1.17902344 9.11585938 1.24476563 8.1875 1.3125 C7.29417969 1.37050781 6.40085937 1.42851563 5.48046875 1.48828125 C2.64954407 2.07229878 1.67161339 2.66853922 0 5 C-0.25048636 8.12549017 -0.25048636 8.12549017 0 11 C-0.99 11 -1.98 11 -3 11 C-2.50639991 6.72213252 -1.95216435 3.90432869 0 0 Z " fill="#324372" transform="translate(257,591)"/>
<path d="M0 0 C0.66 0.99 1.32 1.98 2 3 C1.27231556 6.19061641 0.46534977 9.06930047 -1 12 C-1.99 12 -2.98 12 -4 12 C-3.45660208 7.43545749 -2.20536179 4.0271824 0 0 Z " fill="#314675" transform="translate(488,707)"/>
<path d="M0 0 C1.21236328 0.04060547 1.21236328 0.04060547 2.44921875 0.08203125 C3.06410156 0.11683594 3.67898438 0.15164063 4.3125 0.1875 C4.3125 0.8475 4.3125 1.5075 4.3125 2.1875 C2.70375 2.31125 2.70375 2.31125 1.0625 2.4375 C-3.02250175 3.25450035 -4.03641677 4.1436637 -6.6875 7.1875 C-7.3475 7.1875 -8.0075 7.1875 -8.6875 7.1875 C-7.75422802 1.77452251 -5.49696006 -0.23899826 0 0 Z " fill="#F88338" transform="translate(697.6875,557.8125)"/>
<path d="M0 0 C5.94 0.99 5.94 0.99 12 2 C12.33 2.99 12.66 3.98 13 5 C11.58376784 5.05447047 10.16691809 5.09300508 8.75 5.125 C7.96109375 5.14820313 7.1721875 5.17140625 6.359375 5.1953125 C3.79268059 4.9828378 2.2083933 4.28654105 0 3 C0 2.01 0 1.02 0 0 Z " fill="#404F7A" transform="translate(353,714)"/>
<path d="M0 0 C0.33 0 0.66 0 1 0 C1.32325181 4.12146058 1.39022067 6.3675734 -0.8125 9.9375 C-3 12 -3 12 -6 12 C-4 8 -2 4 0 0 Z " fill="#F4853F" transform="translate(709,567)"/>
<path d="M0 0 C2.1875 -0.375 2.1875 -0.375 5 0 C6.99022836 1.83961648 8.38989899 3.79186148 10 6 C9.01 6.66 8.02 7.32 7 8 C5.83035398 6.8572081 4.66435444 5.71068285 3.5 4.5625 C2.8503125 3.92441406 2.200625 3.28632812 1.53125 2.62890625 C0 1 0 1 0 0 Z " fill="#455280" transform="translate(442,703)"/>
<path d="M0 0 C1.26457031 0.04640625 2.52914062 0.0928125 3.83203125 0.140625 C5.74048828 0.19476562 5.74048828 0.19476562 7.6875 0.25 C8.66332031 0.29640625 9.63914062 0.3428125 10.64453125 0.390625 C9.65453125 1.875625 9.65453125 1.875625 8.64453125 3.390625 C8.64453125 2.730625 8.64453125 2.070625 8.64453125 1.390625 C7.65453125 1.720625 6.66453125 2.050625 5.64453125 2.390625 C3.31119792 2.390625 0.97786458 2.390625 -1.35546875 2.390625 C-2.34546875 2.720625 -3.33546875 3.050625 -4.35546875 3.390625 C-4.69889324 4.72139489 -5.03166749 6.05494479 -5.35546875 7.390625 C-6.34546875 8.050625 -7.33546875 8.710625 -8.35546875 9.390625 C-5.18226459 0.60329041 -5.18226459 0.60329041 0 0 Z " fill="#16BFBD" transform="translate(607.35546875,590.609375)"/>
<path d="M0 0 C0.66 0 1.32 0 2 0 C1.34 6.27 0.68 12.54 0 19 C-0.33 19 -0.66 19 -1 19 C-1.02683987 16.02077407 -1.04676037 13.04178705 -1.0625 10.0625 C-1.07087891 9.21236328 -1.07925781 8.36222656 -1.08789062 7.48632812 C-1.09111328 6.67744141 -1.09433594 5.86855469 -1.09765625 5.03515625 C-1.10289307 4.2862915 -1.10812988 3.53742676 -1.11352539 2.76586914 C-1 1 -1 1 0 0 Z " fill="#102657" transform="translate(277,615)"/>
<path d="M0 0 C1.65 0.33 3.3 0.66 5 1 C4.67 2.65 4.34 4.3 4 6 C2.35 5.67 0.7 5.34 -1 5 C-0.67 3.35 -0.34 1.7 0 0 Z " fill="#FBF0D8" transform="translate(697,566)"/>
<path d="M0 0 C3.16115776 1.36983503 3.9927092 1.9890638 6 5 C5.64111965 7.96076291 5.15341979 8.84658021 3 11 C0 4.5 0 4.5 0 0 Z " fill="#F6924E" transform="translate(704,559)"/>
<path d="M0 0 C0.66 0.33 1.32 0.66 2 1 C2 2.32 2 3.64 2 5 C2.66 5.33 3.32 5.66 4 6 C3.01 6 2.02 6 1 6 C1 5.34 1 4.68 1 4 C0.01 4.33 -0.98 4.66 -2 5 C-3.73324119 4.91538508 -5.46392812 4.76395645 -7.1875 4.5625 C-8.08855469 4.46066406 -8.98960937 4.35882812 -9.91796875 4.25390625 C-10.60503906 4.17011719 -11.29210937 4.08632813 -12 4 C-12 3.01 -12 2.02 -12 1 C-11.34 1.33 -10.68 1.66 -10 2 C-8.08596924 2.19668734 -8.08596924 2.19668734 -6 2.1875 C-5.29875 2.20167969 -4.5975 2.21585938 -3.875 2.23046875 C-1.75475062 2.16512323 -1.75475062 2.16512323 0 0 Z " fill="#41527F" transform="translate(576,713)"/>
<path d="M0 0 C5.53846154 0.61538462 5.53846154 0.61538462 7.875 2.5625 C8.431875 3.2740625 8.431875 3.2740625 9 4 C8.01 4.66 7.02 5.32 6 6 C3.73828125 5.5390625 3.73828125 5.5390625 1.3125 4.625 C0.50425781 4.32851563 -0.30398438 4.03203125 -1.13671875 3.7265625 C-1.75160156 3.48679687 -2.36648438 3.24703125 -3 3 C-2.01 2.67 -1.02 2.34 0 2 C0 1.34 0 0.68 0 0 Z " fill="#3A4572" transform="translate(362,705)"/>
<path d="M0 0 C0.99 0.33 1.98 0.66 3 1 C2.75 4.375 2.75 4.375 2 8 C0.02 8.99 0.02 8.99 -2 10 C-1.34 6.7 -0.68 3.4 0 0 Z " fill="#26356A" transform="translate(447,689)"/>
<path d="M0 0 C0.66 0 1.32 0 2 0 C2 4.29 2 8.58 2 13 C1.34 13 0.68 13 0 13 C-1.29676812 8.38926889 -0.71109139 4.66159911 0 0 Z " fill="#13255C" transform="translate(578,705)"/>
<path d="M0 0 C0.66 0.33 1.32 0.66 2 1 C0.95125002 3.62187494 0.35068687 4.79371361 -2.125 6.25 C-2.74375 6.4975 -3.3625 6.745 -4 7 C-4.66 5.68 -5.32 4.36 -6 3 C-5.195625 2.690625 -4.39125 2.38125 -3.5625 2.0625 C-1.10919595 1.23664655 -1.10919595 1.23664655 0 0 Z " fill="#2F85A1" transform="translate(517,442)"/>
<path d="M0 0 C0.61875 0.639375 1.2375 1.27875 1.875 1.9375 C3.82597612 4.03883584 3.82597612 4.03883584 6 5 C6 5.66 6 6.32 6 7 C3.69 6.67 1.38 6.34 -1 6 C-1.33 4.68 -1.66 3.36 -2 2 C-1.34 2 -0.68 2 0 2 C0 1.34 0 0.68 0 0 Z " fill="#2C3868" transform="translate(356,700)"/>
<path d="M0 0 C2.64 0 5.28 0 8 0 C8 0.99 8 1.98 8 3 C5.36 3 2.72 3 0 3 C0 2.01 0 1.02 0 0 Z " fill="#31467C" transform="translate(647,716)"/>
<path d="M0 0 C1 3 1 3 0.22265625 5.04296875 C-0.16019531 5.75066406 -0.54304688 6.45835937 -0.9375 7.1875 C-1.31777344 7.90292969 -1.69804687 8.61835938 -2.08984375 9.35546875 C-2.54037109 10.16951172 -2.54037109 10.16951172 -3 11 C-3.33 11 -3.66 11 -4 11 C-4.17754126 7.09409237 -4.20731737 4.31097606 -2 1 C-1.34 0.67 -0.68 0.34 0 0 Z " fill="#256591" transform="translate(396,335)"/>
<path d="M0 0 C2.76223278 2.76223278 2.57856291 5.20706617 3 9 C2.01 8.67 1.02 8.34 0 8 C-1.1875 4.9375 -1.1875 4.9375 -2 2 C-1.34 2 -0.68 2 0 2 C0 1.34 0 0.68 0 0 Z " fill="#2B3D6E" transform="translate(502,690)"/>
<path d="M0 0 C0.33 0 0.66 0 1 0 C1.36923077 5.53846154 1.36923077 5.53846154 -0.5 7.875 C-1.2425 8.431875 -1.2425 8.431875 -2 9 C-2.66 8.67 -3.32 8.34 -4 8 C-2.87548273 5.0280615 -1.77706209 2.66559313 0 0 Z " fill="#223A6D" transform="translate(282,603)"/>
<path d="M0 0 C0.99 0.33 1.98 0.66 3 1 C2.01 1.495 2.01 1.495 1 2 C1 2.66 1 3.32 1 4 C-0.96147874 5.38938077 -2.96166576 6.7260411 -5 8 C-5.66 7.67 -6.32 7.34 -7 7 C-4.69 4.69 -2.38 2.38 0 0 Z " fill="#30829D" transform="translate(473,430)"/>
<path d="M0 0 C0.99 0 1.98 0 3 0 C3 1.65 3 3.3 3 5 C5.31 5 7.62 5 10 5 C10 5.33 10 5.66 10 6 C7.03 6 4.06 6 1 6 C0.67 4.02 0.34 2.04 0 0 Z " fill="#3D4D7B" transform="translate(644,689)"/>
<path d="M0 0 C0.33 1.32 0.66 2.64 1 4 C-1.3125 6.0625 -1.3125 6.0625 -4 8 C-4.99 7.67 -5.98 7.34 -7 7 C-6.34 7 -5.68 7 -5 7 C-5 6.01 -5 5.02 -5 4 C-4.360625 3.71125 -3.72125 3.4225 -3.0625 3.125 C-0.84793921 2.17176549 -0.84793921 2.17176549 0 0 Z " fill="#206A95" transform="translate(425,357)"/>
<path d="M0 0 C0.33 0.66 0.66 1.32 1 2 C-0.27984466 5.83953399 -2.81501296 7.65316744 -6 10 C-6.33 9.01 -6.66 8.02 -7 7 C-4.69 4.69 -2.38 2.38 0 0 Z " fill="#27C8C2" transform="translate(569,334)"/>
<path d="M0 0 C-3.24481751 2.16321167 -6.35055759 3.6314591 -10 5 C-10.99 4.67 -11.98 4.34 -13 4 C-8.38987758 1.04952165 -5.63470383 -0.5497272 0 0 Z " fill="#27A8B2" transform="translate(412,326)"/>
<path d="M0 0 C5.61 0.33 11.22 0.66 17 1 C17 1.33 17 1.66 17 2 C8.585 2.495 8.585 2.495 0 3 C0 2.01 0 1.02 0 0 Z " fill="#11255B" transform="translate(489,707)"/>
<path d="M0 0 C2.3125 -0.25 2.3125 -0.25 5 0 C6.8125 2 6.8125 2 8 4 C4.23312136 4 3.08809695 3.76462683 0 2 C0 1.34 0 0.68 0 0 Z " fill="#344270" transform="translate(697,696)"/>
<path d="M0 0 C2.97 0.495 2.97 0.495 6 1 C6 1.99 6 2.98 6 4 C2.37 3.67 -1.26 3.34 -5 3 C-5 2.67 -5 2.34 -5 2 C-3.35 1.67 -1.7 1.34 0 1 C0 0.67 0 0.34 0 0 Z " fill="#4A557F" transform="translate(725,695)"/>
<path d="M0 0 C2.475 0.495 2.475 0.495 5 1 C5 2.32 5 3.64 5 5 C3.35 5 1.7 5 0 5 C0 3.35 0 1.7 0 0 Z " fill="#1C2E66" transform="translate(497,687)"/>
<path d="M0 0 C1.98 0.495 1.98 0.495 4 1 C3.67 2.32 3.34 3.64 3 5 C1.68 4.67 0.36 4.34 -1 4 C-0.67 2.68 -0.34 1.36 0 0 Z " fill="#25376E" transform="translate(668,684)"/>
<path d="M0 0 C1.1157177 3.34715311 1.1807689 4.71071522 0 8 C-1.65 8.66 -3.3 9.32 -5 10 C-3.35 6.7 -1.7 3.4 0 0 Z " fill="#24B8B9" transform="translate(592,610)"/>
<path d="M0 0 C1.32 0.33 2.64 0.66 4 1 C4 1.66 4 2.32 4 3 C6.31 3 8.62 3 11 3 C11 3.33 11 3.66 11 4 C4.64102564 5.34516765 4.64102564 5.34516765 1.5625 3.6875 C0 2 0 2 0 0 Z " fill="#F68F4A" transform="translate(690,575)"/>
<path d="M0 0 C-0.39803561 2.88575819 -0.79009069 3.82189513 -3.0625 5.75 C-3.701875 6.1625 -4.34125 6.575 -5 7 C-5 3 -5 3 -3.625 1.25 C-2 0 -2 0 0 0 Z " fill="#30588A" transform="translate(461,499)"/>
<path d="M0 0 C0.598125 0.804375 1.19625 1.60875 1.8125 2.4375 C3.80947276 5.22327984 3.80947276 5.22327984 7 6 C6.67 7.32 6.34 8.64 6 10 C3.69 7.69 1.38 5.38 -1 3 C-0.67 2.01 -0.34 1.02 0 0 Z " fill="#F57543" transform="translate(492,484)"/>
<path d="M0 0 C0.33 1.32 0.66 2.64 1 4 C-0.75 5.5625 -0.75 5.5625 -3 7 C-4.32 6.67 -5.64 6.34 -7 6 C-4.69 4.02 -2.38 2.04 0 0 Z " fill="#35839F" transform="translate(461,442)"/>
<path d="M0 0 C4.2742558 1.5830577 6.26531794 4.50568404 9 8 C5.4213696 6.34832443 2.25179812 4.21713508 -1 2 C-0.67 1.34 -0.34 0.68 0 0 Z " fill="#32D3C8" transform="translate(600,303)"/>
<path d="M0 0 C0.66 0 1.32 0 2 0 C2 2.31 2 4.62 2 7 C1.01 7 0.02 7 -1 7 C-1.04254356 5.00045254 -1.04080783 2.99958364 -1 1 C-0.67 0.67 -0.34 0.34 0 0 Z " fill="#314072" transform="translate(385,712)"/>
<path d="M0 0 C-2.31 1.65 -4.62 3.3 -7 5 C-7.33 4.01 -7.66 3.02 -8 2 C-7.34 2 -6.68 2 -6 2 C-6 1.34 -6 0.68 -6 0 C-4 -1 -4 -1 0 0 Z " fill="#334273" transform="translate(537,696)"/>
<path d="M0 0 C1.32 0.33 2.64 0.66 4 1 C3.67 2.98 3.34 4.96 3 7 C2.34 7 1.68 7 1 7 C0.67 4.69 0.34 2.38 0 0 Z " fill="#192C64" transform="translate(619,716)"/>
<path d="M0 0 C0.33 0.66 0.66 1.32 1 2 C1.66 2 2.32 2 3 2 C3 2.66 3 3.32 3 4 C3.66 4.33 4.32 4.66 5 5 C4.01 5 3.02 5 2 5 C2 4.34 2 3.68 2 3 C1.01 3.33 0.02 3.66 -1 4 C-3.3406065 3.72230092 -5.67624308 3.39460023 -8 3 C-8 2.67 -8 2.34 -8 2 C-6.865625 1.855625 -5.73125 1.71125 -4.5625 1.5625 C-1.19222799 1.38828522 -1.19222799 1.38828522 0 0 Z " fill="#506188" transform="translate(336,714)"/>
<path d="M0 0 C1.32 0.66 2.64 1.32 4 2 C3.01 2.99 2.02 3.98 1 5 C0.67 4.67 0.34 4.34 0 4 C-2.32817964 3.63239269 -4.6618385 3.29758419 -7 3 C-7 2.67 -7 2.34 -7 2 C-4.69 2 -2.38 2 0 2 C0 1.34 0 0.68 0 0 Z " fill="#556089" transform="translate(335,695)"/>
<path d="M0 0 C0.33 0 0.66 0 1 0 C0.67 2.31 0.34 4.62 0 7 C-2.31 7 -4.62 7 -7 7 C-6.401875 6.773125 -5.80375 6.54625 -5.1875 6.3125 C-2.44106051 4.66463631 -1.52827786 2.76545517 0 0 Z " fill="#12265B" transform="translate(200,654)"/>
<path d="M0 0 C0.66 0.66 1.32 1.32 2 2 C-1.465 4.97 -1.465 4.97 -5 8 C-5.66 7.67 -6.32 7.34 -7 7 C-4.69 4.69 -2.38 2.38 0 0 Z " fill="#F8A753" transform="translate(588,400)"/>
<path d="M0 0 C3 3.625 3 3.625 3 7 C1.68 6.67 0.36 6.34 -1 6 C-0.67 4.02 -0.34 2.04 0 0 Z " fill="#314475" transform="translate(512,712)"/>
<path d="M0 0 C1.5625 1.25 1.5625 1.25 3 3 C2.6875 5.1875 2.6875 5.1875 2 7 C0.4375 5.75 0.4375 5.75 -1 4 C-0.6875 1.8125 -0.6875 1.8125 0 0 Z " fill="#2A396F" transform="translate(685,709)"/>
<path d="M0 0 C0.99 0 1.98 0 3 0 C2.67 1.98 2.34 3.96 2 6 C0.68 5.34 -0.64 4.68 -2 4 C-1.34 2.68 -0.68 1.36 0 0 Z " fill="#455083" transform="translate(454,705)"/>
<path d="M0 0 C0.66 0.99 1.32 1.98 2 3 C1.1875 4.9375 1.1875 4.9375 0 7 C-0.99 7.33 -1.98 7.66 -3 8 C-1.125 2.25 -1.125 2.25 0 0 Z " fill="#324476" transform="translate(496,689)"/>
<path d="M0 0 C2.3431213 0.25561323 4.67843403 0.59270772 7 1 C7.33 1.66 7.66 2.32 8 3 C7.34 3.66 6.68 4.32 6 5 C3.98079663 3.69593116 1.98075027 2.36176581 0 1 C0 0.67 0 0.34 0 0 Z " fill="#485781" transform="translate(440,686)"/>
<path d="M0 0 C0.33 0 0.66 0 1 0 C0.88637738 1.4800841 0.75877092 2.95910074 0.625 4.4375 C0.52058594 5.67306641 0.52058594 5.67306641 0.4140625 6.93359375 C0.27742187 7.61550781 0.14078125 8.29742188 0 9 C-0.99 9.495 -0.99 9.495 -2 10 C-2.17942163 6.05272412 -2.09350689 3.4019487 0 0 Z " fill="#14779A" transform="translate(512,644)"/>
<path d="M0 0 C4.455 0.99 4.455 0.99 9 2 C9 2.33 9 2.66 9 3 C4.545 3.495 4.545 3.495 0 4 C0 2.68 0 1.36 0 0 Z " fill="#455380" transform="translate(688,714)"/>
<path d="M0 0 C2.475 0.495 2.475 0.495 5 1 C5 1.66 5 2.32 5 3 C5.66 3.33 6.32 3.66 7 4 C4.03 3.505 4.03 3.505 1 3 C0.67 2.01 0.34 1.02 0 0 Z " fill="#1F2D5F" transform="translate(439,699)"/>
<path d="M0 0 C0.66 0 1.32 0 2 0 C4 3 4 3 3.625 5.1875 C3.41875 5.785625 3.2125 6.38375 3 7 C1.68 5.68 0.36 4.36 -1 3 C-0.67 2.01 -0.34 1.02 0 0 Z " fill="#2F3F6D" transform="translate(544,697)"/>
<path d="M0 0 C1.65 1.65 3.3 3.3 5 5 C4.34 5.66 3.68 6.32 3 7 C1.68 5.68 0.36 4.36 -1 3 C-0.67 2.01 -0.34 1.02 0 0 Z " fill="#1E4176" transform="translate(417,485)"/>
</svg>
