<?xml version="1.0" encoding="UTF-8"?>
<svg version="1.1" xmlns="http://www.w3.org/2000/svg" width="1024" height="1024">
<path d="M0 0 C337.92 0 675.84 0 1024 0 C1024 337.92 1024 675.84 1024 1024 C686.08 1024 348.16 1024 0 1024 C0 686.08 0 348.16 0 0 Z " fill="#FDFEFE" transform="translate(0,0)"/>
<path d="M0 0 C3.76603869 1.56282982 6.13639151 3.9063475 8.984375 6.7890625 C9.67506073 7.48399307 9.67506073 7.48399307 10.37969971 8.19296265 C11.84125078 9.66565898 13.29567168 11.14517403 14.75 12.625 C15.74302611 13.62806322 16.73651089 14.63067257 17.73046875 15.6328125 C20.15897941 18.08330835 22.58114675 20.5399667 25 23 C23.56906155 26.26362976 21.82129135 28.42615023 19.30477905 30.93572998 C18.53634171 31.70691666 17.76790436 32.47810333 16.97618103 33.2726593 C16.13245438 34.1091954 15.28872772 34.94573151 14.41943359 35.80761719 C13.53156662 36.69577621 12.64369965 37.58393524 11.72892761 38.49900818 C9.29763109 40.93087819 6.86022036 43.35653521 4.42166471 45.78112316 C1.87296197 48.31731792 -0.67007289 50.85918285 -3.2137146 53.40045166 C-8.02976284 58.21028534 -12.85088633 63.01499831 -17.67385423 67.81789231 C-23.16504458 73.28672294 -28.65055261 78.76123807 -34.13559079 84.236238 C-45.41741655 95.4971623 -56.70635667 106.75092689 -68 118 C-69.26437441 117.06961263 -70.5262544 116.13583494 -71.78710938 115.20068359 C-72.49009155 114.68106049 -73.19307373 114.16143738 -73.9173584 113.62606812 C-77.02860441 111.19689455 -79.75890681 108.45699679 -82.5 105.625 C-83.03625 105.07972656 -83.5725 104.53445313 -84.125 103.97265625 C-85.4214176 102.65308834 -86.71142743 101.32722975 -88 100 C-91.95769636 101.60797932 -94.68905756 104.34952654 -97.67578125 107.3046875 C-98.20519821 107.82507599 -98.73461517 108.34546448 -99.28007507 108.88162231 C-100.39295341 109.98003406 -101.50307652 111.08124348 -102.6105957 112.18505859 C-104.31212681 113.87462943 -106.03142393 115.54465115 -107.75195312 117.21484375 C-108.83187272 118.28530591 -109.91068831 119.35688322 -110.98828125 120.4296875 C-111.76465691 121.17676468 -111.76465691 121.17676468 -112.55671692 121.93893433 C-115.26311618 124.57119242 -115.26311618 124.57119242 -116.03808594 128.11157227 C-114.7659418 130.42578556 -113.3212334 131.96668578 -111.40234375 133.78515625 C-110.68369141 134.48060547 -109.96503906 135.17605469 -109.22460938 135.89257812 C-108.46986328 136.60865234 -107.71511719 137.32472656 -106.9375 138.0625 C-105.43985649 139.48379805 -103.9486127 140.91187983 -102.46484375 142.34765625 C-101.800896 142.97679932 -101.13694824 143.60594238 -100.45288086 144.25415039 C-99 146 -99 146 -99 149 C-100.60294573 150.7280395 -102.28347791 152.38472681 -104 154 C-104.92436943 154.9705061 -105.84231122 155.94717264 -106.75390625 156.9296875 C-107.69004068 157.91151887 -108.62623894 158.89328938 -109.5625 159.875 C-110.03107422 160.38546875 -110.49964844 160.8959375 -110.98242188 161.421875 C-112.37890625 162.8671875 -112.37890625 162.8671875 -115 165 C-118.29898058 164.68706559 -119.96088427 163.41173185 -122.25238037 161.10838318 C-123.18197823 160.18497131 -123.18197823 160.18497131 -124.13035583 159.24290466 C-124.79857864 158.56389603 -125.46680145 157.88488739 -126.15527344 157.18530273 C-127.22416557 156.11706772 -127.22416557 156.11706772 -128.31465149 155.0272522 C-130.67007234 152.66974005 -133.01468718 150.30177685 -135.359375 147.93359375 C-136.98968162 146.29769242 -138.6206515 144.66245185 -140.2522583 143.02784729 C-144.54639194 138.72225516 -148.83144078 134.40773006 -153.11468506 130.09130859 C-157.48638956 125.68892511 -161.86659092 121.29501395 -166.24609375 116.90039062 C-174.83908564 108.27521683 -183.42250771 99.64058593 -192 91 C-190.26239853 87.28286264 -188.14323122 84.91258988 -185.2109375 82.015625 C-184.74765045 81.55516785 -184.2843634 81.09471069 -183.80703735 80.62030029 C-182.33434102 79.15874922 -180.85482597 77.70432832 -179.375 76.25 C-178.37193678 75.25697389 -177.36932743 74.26348911 -176.3671875 73.26953125 C-173.91669165 70.84102059 -171.4600333 68.41885325 -169 66 C-165.96649792 67.43839561 -164.16902006 68.68080873 -162.0625 71.3125 C-160.02313795 73.84040003 -157.86541725 76.14737369 -155.56251526 78.43650818 C-153.75898691 80.24116373 -151.97454825 82.06361944 -150.19116211 83.88818359 C-146.29328144 87.87498223 -142.38024168 91.84653095 -138.46166992 95.81298828 C-136.77263189 97.527348 -135.08808331 99.24614195 -133.40795898 100.96923828 C-130.98019025 103.45737572 -128.53687204 105.92925795 -126.08984375 108.3984375 C-125.33871811 109.17536957 -124.58759247 109.95230164 -123.81370544 110.7527771 C-122.75724571 111.80980331 -122.75724571 111.80980331 -121.67944336 112.88818359 C-121.0638707 113.51485931 -120.44829803 114.14153503 -119.81407166 114.78720093 C-118.10248132 116.2111464 -118.10248132 116.2111464 -116.13915062 115.80536175 C-113.4223132 114.78250861 -112.01013933 113.38200454 -109.95951843 111.32701111 C-108.76742767 110.14327408 -108.76742767 110.14327408 -107.55125427 108.93562317 C-106.68831253 108.06346664 -105.82537079 107.19131012 -104.9362793 106.29272461 C-104.02035004 105.37883972 -103.10442078 104.46495483 -102.16073608 103.52337646 C-99.64752206 101.01529916 -97.14375294 98.49798173 -94.64168143 95.97879481 C-92.01684108 93.3389027 -89.38388149 90.70713232 -86.75190735 88.07435608 C-82.32769615 83.64645055 -77.90916027 79.21294714 -73.49438477 74.77563477 C-67.84571277 69.098184 -62.18790116 63.42993549 -56.52705669 57.7646246 C-51.64502497 52.87859416 -46.76725337 47.98831695 -41.8901484 43.09736943 C-40.33099305 41.53413577 -38.77126694 39.97147335 -37.21146202 38.40888786 C-34.28847846 35.48004471 -31.36994489 32.54680502 -28.4519043 29.61303711 C-27.59503525 28.7550502 -26.7381662 27.89706329 -25.85533142 27.01307678 C-21.58632801 22.71372349 -17.45621106 18.35364561 -13.52206135 13.74468327 C-11.00576069 10.86033983 -8.2899543 8.18296634 -5.5625 5.5 C-5.02173828 4.96375 -4.48097656 4.4275 -3.92382812 3.875 C-2.61823383 2.58095964 -1.30947004 1.29011826 0 0 Z " fill="#1DA7AC" transform="translate(570,333)"/>
<path d="M0 0 C5.00886366 2.39396761 8.39713201 5.99056995 12.3125 9.875 C13.06595703 10.59558594 13.81941406 11.31617188 14.59570312 12.05859375 C15.30275391 12.75855469 16.00980469 13.45851563 16.73828125 14.1796875 C17.71341675 15.13464111 17.71341675 15.13464111 18.70825195 16.10888672 C20 18 20 18 20.01635742 19.92626953 C18.89915698 22.20575562 17.45928344 23.61087814 15.66043758 25.37184334 C13.65535525 27.33794443 11.6806834 29.33263111 9.70518494 31.32846069 C8.87950516 32.16136627 8.05382538 32.99427185 7.203125 33.85241699 C6.31101318 34.75238403 5.41890137 35.65235107 4.49975586 36.57958984 C-5.1675663 46.32946408 -14.84838124 56.06585077 -24.53624821 65.79530907 C-30.39856983 71.68348028 -36.2560669 77.5763102 -42.1027832 83.47998047 C-47.21310937 88.6400603 -52.33209352 93.79136199 -57.46176809 98.93221056 C-60.17459534 101.65156308 -62.88282857 104.3751639 -65.58070564 107.10935593 C-68.11366684 109.67614616 -70.65799764 112.23107721 -73.21169472 114.77723312 C-74.59578675 116.16336454 -75.96739446 117.56192648 -77.33865356 118.96075439 C-78.16151352 119.77674103 -78.98437347 120.59272766 -79.83216858 121.43344116 C-80.54467301 122.15055456 -81.25717745 122.86766796 -81.99127293 123.60651207 C-84 125 -84 125 -86.14475918 124.80687237 C-88.40664766 123.82314277 -89.90956427 122.6040377 -91.73632812 120.94506836 C-92.4337915 120.3118869 -93.13125488 119.67870544 -93.84985352 119.02633667 C-97.37161483 115.70736555 -100.80957518 112.31313128 -104.21875 108.87890625 C-104.96209595 108.13414536 -105.70544189 107.38938446 -106.47131348 106.62205505 C-108.81659301 104.27123255 -111.15834836 101.91693569 -113.5 99.5625 C-115.10132961 97.95614801 -116.70288998 96.35002603 -118.3046875 94.74414062 C-122.20579473 90.83208015 -126.1040242 86.91717048 -130 83 C-128.46712414 79.77685313 -126.85849312 77.62264402 -124.3046875 75.109375 C-123.23154297 74.04589844 -123.23154297 74.04589844 -122.13671875 72.9609375 C-121.39035156 72.23132813 -120.64398438 71.50171875 -119.875 70.75 C-119.12089844 70.00492187 -118.36679687 69.25984375 -117.58984375 68.4921875 C-115.73099228 66.6568658 -113.86762995 64.8263809 -112 63 C-108.13330218 65.12743608 -105.23280375 67.53193427 -102.13671875 70.66796875 C-101.25048828 71.56064453 -100.36425781 72.45332031 -99.45117188 73.37304688 C-98.53916016 74.30181641 -97.62714844 75.23058594 -96.6875 76.1875 C-95.7472112 77.1378315 -94.80646029 78.087706 -93.86523438 79.03710938 C-91.57224041 81.35362123 -89.28405348 83.67467801 -87 86 C-81.687124 81.56256247 -76.74262837 76.88042951 -71.86157227 71.97509766 C-71.08026443 71.19393585 -70.2989566 70.41277405 -69.49397278 69.60794067 C-66.9324042 67.04567983 -64.37438812 64.47990363 -61.81640625 61.9140625 C-60.03300993 60.12879956 -58.24939154 58.34375842 -56.46556091 56.55892944 C-52.26360797 52.35355877 -48.06388593 48.14596893 -43.86525911 43.93727815 C-39.08120723 39.14201069 -34.29428207 34.34961586 -29.50712502 29.55744863 C-19.66823821 19.70813696 -9.83292745 9.85526086 0 0 Z " fill="#F58B37" transform="translate(593,379)"/>
<path d="M0 0 C3.03350208 1.43839561 4.83097994 2.68080873 6.9375 5.3125 C8.97686205 7.84040003 11.13458275 10.14737369 13.43748474 12.43650818 C15.24101309 14.24116373 17.02545175 16.06361944 18.80883789 17.88818359 C22.70671856 21.87498223 26.61975832 25.84653095 30.53833008 29.81298828 C32.22736811 31.527348 33.91191669 33.24614195 35.59204102 34.96923828 C38.01980975 37.45737572 40.46312796 39.92925795 42.91015625 42.3984375 C43.66128189 43.17536957 44.41240753 43.95230164 45.18629456 44.7527771 C45.89060104 45.45746124 46.59490753 46.16214539 47.32055664 46.88818359 C47.9361293 47.51485931 48.55170197 48.14153503 49.18592834 48.78720093 C50.92423433 50.2199943 50.92423433 50.2199943 53.06388855 49.83927917 C56.1847184 48.48643996 58.30851191 46.05605762 60.640625 43.65234375 C61.16767029 43.12105362 61.69471558 42.58976349 62.23773193 42.04237366 C63.91567187 40.34767175 65.58286728 38.64282783 67.25 36.9375 C68.38732745 35.78512255 69.52534066 34.63342148 70.6640625 33.48242188 C73.45071992 30.66272816 76.22778792 27.83389412 79 25 C79.99 25.99 79.99 25.99 81 27 C80.484375 27.598125 79.96875 28.19625 79.4375 28.8125 C78.963125 29.534375 78.48875 30.25625 78 31 C78.495 32.485 78.495 32.485 79 34 C78.207146 34.76666992 77.41429199 35.53333984 76.59741211 36.32324219 C73.66460631 39.16568158 70.74827066 42.02452844 67.83666992 44.88867188 C66.57321526 46.12695164 65.30531379 47.36071084 64.03295898 48.58984375 C62.20674998 50.35553511 60.39705228 52.13676718 58.58984375 53.921875 C58.0159642 54.46994812 57.44208466 55.01802124 56.85081482 55.58270264 C55.07649431 57.29757582 55.07649431 57.29757582 53 60 C53.46192278 63.67413095 54.94358958 65.26998199 57.59765625 67.78515625 C58.31630859 68.48060547 59.03496094 69.17605469 59.77539062 69.89257812 C60.53013672 70.60865234 61.28488281 71.32472656 62.0625 72.0625 C63.56014351 73.48379805 65.0513873 74.91187983 66.53515625 76.34765625 C67.199104 76.97679932 67.86305176 77.60594238 68.54711914 78.25415039 C70 80 70 80 70 83 C68.39705427 84.7280395 66.71652209 86.38472681 65 88 C64.07563057 88.9705061 63.15768878 89.94717264 62.24609375 90.9296875 C61.30995932 91.91151887 60.37376106 92.89328938 59.4375 93.875 C58.96892578 94.38546875 58.50035156 94.8959375 58.01757812 95.421875 C56.62109375 96.8671875 56.62109375 96.8671875 54 99 C50.70101942 98.68706559 49.03911573 97.41173185 46.74761963 95.10838318 C46.12788773 94.49277527 45.50815582 93.87716736 44.86964417 93.24290466 C44.20142136 92.56389603 43.53319855 91.88488739 42.84472656 91.18530273 C41.77583443 90.11706772 41.77583443 90.11706772 40.68534851 89.0272522 C38.32992766 86.66974005 35.98531282 84.30177685 33.640625 81.93359375 C32.01031838 80.29769242 30.3793485 78.66245185 28.7477417 77.02784729 C24.45360806 72.72225516 20.16855922 68.40773006 15.88531494 64.09130859 C11.51361044 59.68892511 7.13340908 55.29501395 2.75390625 50.90039062 C-5.83908564 42.27521683 -14.42250771 33.64058593 -23 25 C-21.26239853 21.28286264 -19.14323122 18.91258988 -16.2109375 16.015625 C-15.74765045 15.55516785 -15.2843634 15.09471069 -14.80703735 14.62030029 C-13.33434102 13.15874922 -11.85482597 11.70432832 -10.375 10.25 C-9.37193678 9.25697389 -8.36932743 8.26348911 -7.3671875 7.26953125 C-4.91669165 4.84102059 -2.4600333 2.41885325 0 0 Z M94 12 C94.33 12.66 94.66 13.32 95 14 C94.34 13.67 93.68 13.34 93 13 C93.33 12.67 93.66 12.34 94 12 Z M89 17 C89.33 17.66 89.66 18.32 90 19 C89.34 18.67 88.68 18.34 88 18 C88.33 17.67 88.66 17.34 89 17 Z M85 21 C85.33 21.66 85.66 22.32 86 23 C85.34 22.67 84.68 22.34 84 22 C84.33 21.67 84.66 21.34 85 21 Z " fill="#1E5F8C" transform="translate(401,399)"/>
<path d="M0 0 C3.81052855 2.76968974 6.2393583 5.75464731 8.53125 9.83984375 C9.459375 11.41765625 9.459375 11.41765625 10.40625 13.02734375 C12.6358335 20.58315451 12.78753963 28.08558117 9.34375 35.27734375 C8.44526031 36.82154469 7.51033848 38.34544554 6.53125 39.83984375 C6.15871094 40.43667969 5.78617187 41.03351562 5.40234375 41.6484375 C1.50505197 47.09378247 -5.07671846 49.57092469 -11.46875 50.83984375 C-21.48380386 51.78978111 -28.56382123 50.43876748 -36.53515625 44.23046875 C-42.02096005 39.2371275 -44.17682333 34.37580548 -44.78125 27.0546875 C-45.20037405 17.13308983 -44.0124237 10.55675039 -37.28125 3.08984375 C-26.73125794 -6.61614894 -12.29008993 -7.02054868 0 0 Z " fill="#1F3066" transform="translate(377.46875,594.16015625)"/>
<path d="M0 0 C3.96 0 7.92 0 12 0 C15.92001305 12.26304967 19.50984626 24.60823716 23 37 C25.51450947 33.14803397 27.02213076 29.38701772 28.4453125 25.01953125 C28.7683284 24.03843636 28.7683284 24.03843636 29.09786987 23.03752136 C29.77932546 20.96434392 30.45249261 18.8885954 31.125 16.8125 C31.80623518 14.72624731 32.48918116 12.64056925 33.17355347 10.55534363 C33.79089175 8.67179625 34.40361862 6.78673933 35.01611328 4.90161133 C36 2 36 2 37 0 C40.3 0 43.6 0 47 0 C48.7148681 4.92758532 50.42370025 9.85720608 52.12695312 14.78881836 C52.70732517 16.4664766 53.28934749 18.14356488 53.87304688 19.82006836 C54.71137224 22.22882807 55.54375694 24.63956978 56.375 27.05078125 C56.63748535 27.80087967 56.8999707 28.55097809 57.17041016 29.32380676 C58.20420273 32.33806007 59 34.78955964 59 38 C59.66 38 60.32 38 61 38 C61.38671875 36.10121094 61.38671875 36.10121094 61.78125 34.1640625 C62.98134098 28.76576592 64.7010014 23.59887043 66.5 18.375 C67.11600622 16.57079769 67.73061977 14.7661192 68.34375 12.9609375 C68.77494141 11.6920166 68.77494141 11.6920166 69.21484375 10.39746094 C69.9189388 8.24751898 70.5557511 6.09476313 71.15625 3.9140625 C72 1 72 1 73 0 C74.68608966 -0.07205511 76.37500659 -0.08386068 78.0625 -0.0625 C78.98160156 -0.05347656 79.90070313 -0.04445313 80.84765625 -0.03515625 C81.55792969 -0.02355469 82.26820313 -0.01195312 83 0 C80.81588489 8.38131979 78.27831924 16.63810992 75.66601562 24.89306641 C74.56221829 28.38491794 73.4681093 31.87979026 72.375 35.375 C72.16738037 36.03846436 71.95976074 36.70192871 71.74584961 37.38549805 C70.12396086 42.57879234 68.54838953 47.7843721 67 53 C62.71 53 58.42 53 54 53 C50.04 41.12 46.08 29.24 42 17 C38.6706266 25.28218934 38.6706266 25.28218934 35.859375 33.6640625 C35.51132812 34.80488281 35.16328125 35.94570313 34.8046875 37.12109375 C34.28261719 38.85552734 34.28261719 38.85552734 33.75 40.625 C33.38648438 41.81996094 33.02296875 43.01492188 32.6484375 44.24609375 C31.76173375 47.16288239 30.88031746 50.08127756 30 53 C25.71 53 21.42 53 17 53 C13.24681352 43.14653349 9.66097957 33.31816319 6.78564453 23.16992188 C5.03281776 16.99927109 3.00787805 10.94285845 0.91796875 4.87890625 C0 2 0 2 0 0 Z " fill="#212F63" transform="translate(246,591)"/>
<path d="M0 0 C4.57875 -0.103125 9.1575 -0.20625 13.875 -0.3125 C16.0094458 -0.38078003 16.0094458 -0.38078003 18.18701172 -0.45043945 C26.15706799 -0.53679194 32.45025647 0.18065435 39 5 C42.73956658 9.00423199 44.28279271 12.5654847 44.5 18.0625 C44.19959914 23.21674635 43.23693538 27.75737267 39.46484375 31.5390625 C38.0274776 32.75555678 36.51850146 33.88643226 35 35 C36.480544 39.2078619 38.60377695 42.58112344 41.125 46.25 C45 51.90391459 45 51.90391459 45 53 C40.72536922 53.9113426 37.23574989 54.19430941 33 53 C28.91293296 49.22224681 26.35791618 43.96591437 24 39 C24 38.34 24 37.68 24 37 C19.71 37 15.42 37 11 37 C11 42.28 11 47.56 11 53 C7.37 53 3.74 53 0 53 C0 35.51 0 18.02 0 0 Z " fill="#203166" transform="translate(399,591)"/>
<path d="M0 0 C3.63 0 7.26 0 11 0 C11.33 7.59 11.66 15.18 12 23 C21.07648119 14.07053333 21.07648119 14.07053333 29.59765625 4.62109375 C30.06042969 4.08613281 30.52320313 3.55117188 31 3 C31.42796875 2.43796875 31.8559375 1.8759375 32.296875 1.296875 C34.86696182 -0.66016359 37.01626153 -0.28979802 40.1875 -0.1875 C41.27417969 -0.16042969 42.36085938 -0.13335938 43.48046875 -0.10546875 C44.72763672 -0.05326172 44.72763672 -0.05326172 46 0 C42.85295182 3.68434909 39.69478579 7.35694805 36.5 11 C35.9225 11.66515625 35.345 12.3303125 34.75 13.015625 C33.58439172 14.33734153 32.39659398 15.63981845 31.1875 16.921875 C30.630625 17.52515625 30.07375 18.1284375 29.5 18.75 C28.9946875 19.28109375 28.489375 19.8121875 27.96875 20.359375 C26.79825174 21.95369559 26.79825174 21.95369559 27.25512695 23.85180664 C28.12341193 26.35591662 29.29011134 27.94700252 30.94921875 30.01171875 C31.85124023 31.14963867 31.85124023 31.14963867 32.77148438 32.31054688 C33.71991211 33.48713867 33.71991211 33.48713867 34.6875 34.6875 C39.43649614 40.61500623 43.89028515 46.60869468 48 53 C43.52486883 53.61396617 39.45874625 53.81581203 35 53 C31.45190145 50.2377613 29.37187861 46.78002549 27 43 C25.51096308 40.95032397 24.01119801 38.90839208 22.5 36.875 C21.33090007 35.25174972 20.16331389 33.62740188 19 32 C15.61178129 33.40202154 13.77463413 34.76169483 12 38 C11.63082726 40.64902575 11.40031112 43.09559527 11.3125 45.75 C11.27833984 46.44738281 11.24417969 47.14476562 11.20898438 47.86328125 C11.12691705 49.57497108 11.06177081 51.2874576 11 53 C7.37 53 3.74 53 0 53 C0 35.51 0 18.02 0 0 Z " fill="#1C2F65" transform="translate(454,591)"/>
<path d="M0 0 C0.66 0 1.32 0 2 0 C2 27.39 2 54.78 2 83 C-3.61 83 -9.22 83 -15 83 C-15.15844561 74.25484699 -15.28673745 65.51065433 -15.3626852 56.76438808 C-15.39914545 52.7026511 -15.44855834 48.64195087 -15.52807617 44.58081055 C-15.60440173 40.65794325 -15.64604448 36.73606993 -15.6641407 32.81251717 C-15.67702803 31.31933004 -15.70219589 29.82619448 -15.7401104 28.33343315 C-16.02525079 16.63670086 -16.02525079 16.63670086 -13.47634888 12.56765747 C-11.74051929 10.81961985 -10.00841671 9.41652113 -8 8 C-7.236875 7.195625 -6.47375 6.39125 -5.6875 5.5625 C-4 4 -4 4 -2 4 C-1.34 2.68 -0.68 1.36 0 0 Z " fill="#247E99" transform="translate(577,445)"/>
<path d="M0 0 C1.13985352 -0.0299707 1.13985352 -0.0299707 2.30273438 -0.06054688 C8.1952744 -0.05551482 11.96452145 1.50862722 17.0625 4.4375 C16.4025 6.7475 15.7425 9.0575 15.0625 11.4375 C12.47612302 12.3954174 11.41345232 12.58869837 8.83203125 11.4765625 C5.5508983 10.24555917 2.93394306 10.1714244 -0.5625 10.1875 C-1.68914063 10.18234375 -2.81578125 10.1771875 -3.9765625 10.171875 C-7.12376454 10.21635517 -7.12376454 10.21635517 -9.9375 12.4375 C-10.18765873 16.02107241 -10.18765873 16.02107241 -9.9375 19.4375 C-6.20937662 21.55346192 -2.72552371 22.82121653 1.4375 23.875 C7.58091555 25.48816898 12.69299655 27.42342207 17.5625 31.5625 C19.79182259 35.83536831 19.70143546 39.71561113 19.0625 44.4375 C17.33626356 48.61680929 14.78858758 50.92455722 11.0625 53.4375 C1.86268751 57.14389928 -8.70063405 56.41522017 -17.984375 53.2890625 C-19.9375 52.4375 -19.9375 52.4375 -22.9375 50.4375 C-22.45171457 47.31459365 -21.9388988 44.44169641 -20.9375 41.4375 C-15.26797945 43.28339041 -15.26797945 43.28339041 -12.67578125 44.4921875 C-9.2784464 45.66501922 -6.40084587 45.70273714 -2.8125 45.6875 C-0.98332031 45.69523438 -0.98332031 45.69523438 0.8828125 45.703125 C4.21886008 45.68246027 4.21886008 45.68246027 7.0625 43.4375 C7.72930368 40.48029372 7.72930368 40.48029372 7.0625 37.4375 C3.62269511 34.89638287 0.39747124 33.87515448 -3.75 33 C-10.19473048 31.4840597 -16.46514208 29.62284252 -20.9375 24.4375 C-22.49399155 19.76802534 -22.64441519 15.3043392 -21.9375 10.4375 C-19.48828032 5.57404948 -15.95282777 3.05871313 -10.93334961 1.03076172 C-7.31184495 -0.04572223 -3.75286598 -0.03483673 0 0 Z " fill="#F48D3A" transform="translate(748.9375,589.5625)"/>
<path d="M0 0 C2.15863068 1.77243498 3.06106717 3.12826463 4.07421875 5.703125 C1.82421875 8.265625 1.82421875 8.265625 -0.92578125 10.703125 C-3.98544023 10.35129563 -6.50182962 8.99669961 -9.23828125 7.640625 C-13.37707222 5.80116235 -16.34623068 4.953744 -20.92578125 5.703125 C-26.31521836 8.09278108 -30.60216995 11.18454817 -32.92578125 16.703125 C-33.63895311 23.67089604 -34.21371031 29.85500971 -29.92578125 35.703125 C-25.99775547 39.52778168 -22.7215031 40.00793038 -17.42578125 40.140625 C-12.5051287 39.99507669 -9.13843926 39.4035468 -4.92578125 36.703125 C-2.55078125 36.015625 -2.55078125 36.015625 -0.92578125 35.703125 C0.72421875 37.683125 2.37421875 39.663125 4.07421875 41.703125 C2.97185939 42.66353671 1.86725251 43.62136907 0.76171875 44.578125 C0.14683594 45.11179687 -0.46804688 45.64546875 -1.1015625 46.1953125 C-7.2596647 51.28530704 -13.60020201 51.10757107 -21.33984375 51.05078125 C-28.98145474 50.3099279 -35.05124984 46.5812364 -39.92578125 40.703125 C-45.65380157 32.84755428 -47.00455403 26.3558939 -45.92578125 16.703125 C-43.51516262 8.92242292 -38.71384743 2.64224759 -31.78125 -1.61328125 C-21.2448271 -6.6281293 -9.90928912 -5.86558818 0 0 Z " fill="#F48A39" transform="translate(713.92578125,594.296875)"/>
<path d="M0 0 C4.79744464 2.66211144 7.56853723 6.33026087 9.75 11.3125 C10.83905177 17.93545438 9.24492248 23.66161885 5.75 29.3125 C1.58018645 33.48231355 -2.25100019 35.08310658 -8.0625 35.75 C-12.94140261 35.61165683 -16.66848508 33.54790213 -20.25 30.3125 C-24.89587376 24.57736277 -24.90598113 20.05335831 -24.6953125 12.890625 C-23.97929749 7.13738156 -22.02633999 4.54974484 -17.640625 1.015625 C-11.90164675 -2.82791089 -6.15330792 -2.79695815 0 0 Z " fill="#F8F9F9" transform="translate(368.25,600.6875)"/>
<path d="M0 0 C3.96 0 7.92 0 12 0 C12.51949219 0.9178125 13.03898438 1.835625 13.57421875 2.78125 C14.27824291 4.02106222 14.98269838 5.26062958 15.6875 6.5 C16.05037109 7.1384082 16.41324219 7.77681641 16.78710938 8.43457031 C18.78192481 11.92638313 20.82536639 15.36584395 23 18.75 C25 22 25 22 25 24 C28.95065512 20.54430168 31.11569658 16.55526303 33.5625 12 C39.02166312 1.93837048 39.02166312 1.93837048 41 0 C43.48046875 -0.390625 43.48046875 -0.390625 46.1875 -0.25 C47.08855469 -0.21390625 47.98960937 -0.1778125 48.91796875 -0.140625 C49.94857422 -0.07101562 49.94857422 -0.07101562 51 0 C49.7071126 4.26534591 48.07504006 7.89495855 45.8125 11.73046875 C44.88824219 13.30538086 44.88824219 13.30538086 43.9453125 14.91210938 C42.98238281 16.53342773 42.98238281 16.53342773 42 18.1875 C41.35804688 19.27998047 40.71609375 20.37246094 40.0546875 21.49804688 C35.4015377 29.39769345 35.4015377 29.39769345 33 33 C32.6349209 35.22131423 32.6349209 35.22131423 32.5859375 37.66796875 C32.54726563 38.56064453 32.50859375 39.45332031 32.46875 40.37304688 C32.42234375 41.76620117 32.42234375 41.76620117 32.375 43.1875 C32.33632813 44.12787109 32.29765625 45.06824219 32.2578125 46.03710938 C32.16357326 48.35775066 32.08069877 50.67884841 32 53 C28.04 53 24.08 53 20 53 C20.03222656 51.8140625 20.06445312 50.628125 20.09765625 49.40625 C20.12844262 37.56211718 17.83003132 29.88214158 11.34082031 20.06494141 C8.90419988 16.31240396 6.69179086 12.4261864 4.4375 8.5625 C3.99607666 7.82177246 3.55465332 7.08104492 3.09985352 6.31787109 C0 1.11100409 0 1.11100409 0 0 Z " fill="#23A5B0" transform="translate(539,591)"/>
<path d="M0 0 C15.18 0 30.36 0 46 0 C46 2.97 46 5.94 46 9 C40.39 9 34.78 9 29 9 C29 23.52 29 38.04 29 53 C25.04 53 21.08 53 17 53 C17 38.48 17 23.96 17 9 C11.39 9 5.78 9 0 9 C0 6.03 0 3.06 0 0 Z " fill="#1FBDBA" transform="translate(591,591)"/>
<path d="M0 0 C3.77702297 2.63513231 6.60374735 5.7074947 8.6875 9.875 C9.57668296 15.99765982 8.60593578 20.16886103 5.0546875 25.21484375 C2.06692702 28.84283861 -0.85392696 30.61687099 -5.58203125 31.11328125 C-11.37341255 31.28230774 -14.83207322 30.92871947 -19.3125 26.875 C-23.33859788 21.54314064 -24.97327169 17.59284556 -24.3125 10.875 C-19.65523883 0.11512074 -11.09691028 -3.76876198 0 0 Z " fill="#22688C" transform="translate(427.3125,354.125)"/>
<path d="M0 0 C3.63 0 7.26 0 11 0 C11 14.52 11 29.04 11 44 C19.91 44 28.82 44 38 44 C38 46.97 38 49.94 38 53 C25.46 53 12.92 53 0 53 C0 35.51 0 18.02 0 0 Z " fill="#1E839F" transform="translate(509,591)"/>
<path d="M0 0 C0 15.84 0 31.68 0 48 C-5.61 48 -11.22 48 -17 48 C-19.42440898 17.23694387 -19.42440898 17.23694387 -13.73046875 9.46875 C-4.94855996 0 -4.94855996 0 0 0 Z " fill="#25648E" transform="translate(544,480)"/>
<path d="M0 0 C5.61 0 11.22 0 17 0 C19.58849249 29.62385846 19.58849249 29.62385846 13.47265625 37.6875 C9.75982019 41.64020081 5.64425325 45.17948144 1 48 C0.67 48 0.34 48 0 48 C0 32.16 0 16.32 0 0 Z " fill="#27B5B3" transform="translate(527,318)"/>
<path d="M0 0 C7.96923077 6.83076923 7.96923077 6.83076923 11.375 9.8125 C12.04273438 10.39644531 12.71046875 10.98039062 13.3984375 11.58203125 C14.2848488 12.36682955 15.16285205 13.16285205 16 14 C16.08847743 16.52094076 16.11527301 19.01430893 16.09765625 21.53515625 C16.0962413 22.28840683 16.09482635 23.04165741 16.09336853 23.81773376 C16.08775376 26.2326956 16.07519883 28.64756601 16.0625 31.0625 C16.0574869 32.69596221 16.05292366 34.32942586 16.04882812 35.96289062 C16.03862875 39.9753243 16.01905645 43.98755936 16 48 C10.72 48 5.44 48 0 48 C0 32.16 0 16.32 0 0 Z " fill="#1C376C" transform="translate(422,479)"/>
<path d="M0 0 C3.63 0 7.26 0 11 0 C11 17.49 11 34.98 11 53 C7.37 53 3.74 53 0 53 C0 35.51 0 18.02 0 0 Z " fill="#F0883A" transform="translate(645,591)"/>
<path d="M0 0 C5.61 0 11.22 0 17 0 C19.382007 18.92372224 19.382007 18.92372224 15.44580078 25.65966797 C11.30927181 30.75432391 6.38575814 35.24301612 1 39 C0.67 39 0.34 39 0 39 C0 26.13 0 13.26 0 0 Z " fill="#2497A4" transform="translate(492,362)"/>
<path d="M0 0 C0 12.21 0 24.42 0 37 C-5.28 37 -10.56 37 -16 37 C-18.23290874 18.85554899 -18.23290874 18.85554899 -14.54394531 12.48583984 C-4.4496917 0 -4.4496917 0 0 0 Z " fill="#1B4679" transform="translate(473,490)"/>
<path d="M0 0 C5.28 0 10.56 0 16 0 C18.26023872 17.66932651 18.26023872 17.66932651 12.953125 24.66796875 C9.64649637 28.40146883 6.0983051 32.12840747 2 35 C1.34 35 0.68 35 0 35 C0 23.45 0 11.9 0 0 Z " fill="#1F6E93" transform="translate(457,401)"/>
<path d="M0 0 C3.5578125 -0.0928125 3.5578125 -0.0928125 7.1875 -0.1875 C8.29387817 -0.22846802 8.29387817 -0.22846802 9.42260742 -0.27026367 C13.83935173 -0.32573392 16.52119467 0.27164994 20 3 C22.51250583 6.76875875 22.53016086 8.53150134 22 13 C18.52788265 18.63361333 18.52788265 18.63361333 14.99536133 19.48071289 C12.69070757 19.59082327 10.49112596 19.52444583 8.1875 19.375 C5.485625 19.25125 2.78375 19.1275 0 19 C0 12.73 0 6.46 0 0 Z " fill="#FAFBFB" transform="translate(410,600)"/>
<path d="M0 0 C7.63 6.54 7.63 6.54 10.1875 9.375 C12.84617379 12.45487883 12.84617379 12.45487883 17 12 C17 16.95 17 21.9 17 27 C11.39 27 5.78 27 0 27 C0 18.09 0 9.18 0 0 Z " fill="#265485" transform="translate(492,501)"/>
<path d="M0 0 C5.67458978 1.92721917 9.32050871 5.64101742 12 11 C12.09499503 12.49756871 12.12987198 13.99942932 12.125 15.5 C12.12886719 16.69109375 12.12886719 16.69109375 12.1328125 17.90625 C12 20 12 20 11 22 C8.14779845 24.13915117 6.79052197 25.08783577 3.1875 24.6875 C2.465625 24.460625 1.74375 24.23375 1 24 C0.51171875 21.98177083 0.0234375 19.96354167 -0.46484375 17.9453125 C-0.94846992 15.9414343 -0.94846992 15.9414343 -2 14 C-2.07092842 11.7927077 -2.08415025 9.58332548 -2.0625 7.375 C-2.05347656 6.18648438 -2.04445313 4.99796875 -2.03515625 3.7734375 C-2.02355469 2.85820312 -2.01195312 1.94296875 -2 1 C-3.98 1 -5.96 1 -8 1 C-8.33 1.66 -8.66 2.32 -9 3 C-9.99 2.34 -10.98 1.68 -12 1 C-8.30265586 -0.84867207 -4.0436816 -0.33645425 0 0 Z " fill="#229BA8" transform="translate(424,353)"/>
<path d="M0 0 C3.74785043 2.08213913 4.79482295 3.2947039 6 7.4375 C6 11.40316899 5.44976383 12.93779521 3 16 C-0.75047482 18.50031654 -2.55856266 18.53603554 -7 18 C-9.9375 15.9375 -9.9375 15.9375 -12 13 C-12.69151325 8.69725091 -12.51557405 6.79054688 -10.125 3.125 C-6.79974618 -0.20025382 -4.65430991 -0.45630489 0 0 Z " fill="#F3953F" transform="translate(503,334)"/>
<path d="M0 0 C4.12507614 0.66295867 5.75668103 1.41575177 8.5 4.5625 C9.5625 8 9.5625 8 9.5 11.5625 C7.73358828 14.36439446 6.46950178 16.07774911 3.5 17.5625 C-2.76519337 18.1426105 -2.76519337 18.1426105 -5.875 15.6875 C-8.5564025 12.18105058 -9.02066537 9.98815562 -8.5 5.5625 C-5.88580444 1.91846982 -4.45776553 0.7164266 0 0 Z " fill="#F38A3C" transform="translate(464.5,373.4375)"/>
<path d="M0 0 C2.4375 1.5625 2.4375 1.5625 4 4 C4.68041465 7.76547653 4.45194397 10.89838657 3 14.4375 C-0.07002813 16.83595948 -3.14246125 17.33838059 -7 17 C-9.85993478 15.23535939 -11.49782849 14.00434303 -13 11 C-13.43023798 7.12785818 -13.31669086 5.47503629 -11.125 2.1875 C-7.38445041 -1.66306575 -5.14450674 -1.1530791 0 0 Z " fill="#F4963C" transform="translate(604,501)"/>
<path d="M0 0 C2.31495619 1.80855953 2.84331938 3.0341334 3.30859375 5.90234375 C3.52397039 9.40710908 3.32893518 11.4517747 1.5 14.5 C-2.04538056 16.62722834 -4.96765349 16.65411781 -9 16 C-11.4375 15 -11.4375 15 -13 13 C-13.89967847 10.28332384 -14.25046198 7.85526654 -14 5 C-10.24780933 -1.0811366 -6.76469298 -1.74304973 0 0 Z " fill="#F7954B" transform="translate(656,567)"/>
<path d="M0 0 C3.80470451 0.7133821 5.41196019 1.67868421 8 4.5625 C9.1659741 8.57053597 9.43240501 10.61532711 7.6875 14.4375 C6 16.5625 6 16.5625 4 17.5625 C-3.0521327 18.13122038 -3.0521327 18.13122038 -6.5 16.0625 C-8.59158203 12.57652996 -8.8876276 9.46034294 -8 5.5625 C-5.55871269 2.11597674 -4.17033126 0.78193711 0 0 Z " fill="#F37030" transform="translate(401,501.4375)"/>
<path d="M0 0 C4.70371859 3.93480494 9.17947355 8.02031512 13.51953125 12.3515625 C14.10417648 12.93287933 14.68882172 13.51419617 15.29118347 14.11312866 C16.51337482 15.33030001 17.73425447 16.54878979 18.95385742 17.76855469 C20.81996643 19.6324576 22.69395939 21.48818943 24.56835938 23.34375 C25.76090514 24.53336469 26.95297942 25.72345226 28.14453125 26.9140625 C28.70284134 27.46518707 29.26115143 28.01631165 29.83638 28.58413696 C32.46578646 31.22916619 34.51328857 33.57109076 36 37 C37.29205831 38.05278825 38.63634717 39.04175747 40 40 C46.06770873 44.83798643 51.83010195 50.2163716 57 56 C57 56.66 57 57.32 57 58 C52.7333484 57.52991927 50.44588033 54.84927313 47.58886719 51.92944336 C47.06159027 51.40260452 46.53431335 50.87576569 45.99105835 50.33296204 C44.25245724 48.59227327 42.52471944 46.84120486 40.796875 45.08984375 C39.59255409 43.87992682 38.3875685 42.67067116 37.1819458 41.46205139 C34.01228577 38.28094315 30.85173838 35.09092847 27.69299316 31.89898682 C24.46744202 28.64273447 21.23336976 25.39496988 18 22.14648438 C11.65828921 15.77260984 5.32617119 9.38929549 -1 3 C-0.67 2.01 -0.34 1.02 0 0 Z " fill="#204D82" transform="translate(398,440)"/>
<path d="M0 0 C0.33 0.66 0.66 1.32 1 2 C0.34 1.67 -0.32 1.34 -1 1 C-0.67 0.67 -0.34 0.34 0 0 Z M-5 5 C-4.67 5.66 -4.34 6.32 -4 7 C-4.66 6.67 -5.32 6.34 -6 6 C-5.67 5.67 -5.34 5.34 -5 5 Z M-9 9 C-8.67 9.66 -8.34 10.32 -8 11 C-8.66 10.67 -9.32 10.34 -10 10 C-9.67 9.67 -9.34 9.34 -9 9 Z M-15 13 C-14.34 13.66 -13.68 14.32 -13 15 C-13.515625 15.598125 -14.03125 16.19625 -14.5625 16.8125 C-15.036875 17.534375 -15.51125 18.25625 -16 19 C-15.67 19.99 -15.34 20.98 -15 22 C-18.63 25.63 -22.26 29.26 -26 33 C-26.33 32.01 -26.66 31.02 -27 30 C-27.66 30 -28.32 30 -29 30 C-29.25523437 30.58265625 -29.51046875 31.1653125 -29.7734375 31.765625 C-31.11741087 34.21388223 -32.61810296 35.81743248 -34.625 37.75 C-35.57246094 38.67039062 -35.57246094 38.67039062 -36.5390625 39.609375 C-37.02117187 40.06828125 -37.50328125 40.5271875 -38 41 C-39.32 40.34 -40.64 39.68 -42 39 C-41.30777344 38.41496704 -41.30777344 38.41496704 -40.6015625 37.81811523 C-34.79230771 32.83045095 -29.38512266 27.50139117 -24 22.0625 C-23.12988281 21.18787109 -22.25976562 20.31324219 -21.36328125 19.41210938 C-19.23986451 17.27702551 -17.11883622 15.13962795 -15 13 Z " fill="#1F889C" transform="translate(495,411)"/>
<path d="M0 0 C3.76603869 1.56282982 6.13639151 3.9063475 8.984375 6.7890625 C9.44483215 7.25234955 9.90528931 7.7156366 10.37969971 8.19296265 C11.84125078 9.66565898 13.29567168 11.14517403 14.75 12.625 C15.74302611 13.62806322 16.73651089 14.63067257 17.73046875 15.6328125 C20.15897941 18.08330835 22.58114675 20.5399667 25 23 C24.34 24.32 23.68 25.64 23 27 C22.95875 26.443125 22.9175 25.88625 22.875 25.3125 C21.7970598 22.46365804 20.10095428 21.31443814 17.7421875 19.48046875 C15.11091662 17.24447847 12.98093488 14.62698258 10.74609375 12.00390625 C8.29567753 9.19168361 5.6691665 6.60406488 3 4 C-1.23966366 5.33122545 -2.93258007 6.83041298 -5.375 10.5 C-7.66118042 13.63030857 -9.14451448 15.5280494 -12.9375 16.5625 C-13.948125 16.706875 -14.95875 16.85125 -16 17 C-11.01595832 10.96668638 -5.58084697 5.4815829 0 0 Z " fill="#24CBBF" transform="translate(570,333)"/>
<path d="M0 0 C3.5 0.1875 3.5 0.1875 5.5 1.1875 C5.79296875 7.2421875 5.79296875 7.2421875 5.5 9.1875 C2.04970958 11.48769361 0.55445642 11.61882515 -3.5 11.1875 C-5.80163882 7.73504176 -5.84490322 6.24011287 -5.5 2.1875 C-3.5 0.1875 -3.5 0.1875 0 0 Z " fill="#FAB477" transform="translate(650.5,569.8125)"/>
<path d="M0 0 C0.33 0 0.66 0 1 0 C1.02505615 0.88260498 1.0501123 1.76520996 1.07592773 2.67456055 C1.1713353 5.96406615 1.27055193 9.25341182 1.37231445 12.54272461 C1.41549804 13.96357775 1.45718408 15.38447726 1.49731445 16.80541992 C1.55542095 18.8534947 1.61899638 20.90133965 1.68359375 22.94921875 C1.72025146 24.17987061 1.75690918 25.41052246 1.79467773 26.6784668 C1.91417226 29.92547641 1.91417226 29.92547641 2.58227539 32.75317383 C3 35 3 35 2 38 C2.27571139 40.00875442 2.60235737 42.01178687 3 44 C6.96 44.33 10.92 44.66 15 45 C15 37.74 15 30.48 15 23 C15.33 23 15.66 23 16 23 C16 30.59 16 38.18 16 46 C10.72 46 5.44 46 0 46 C0 30.82 0 15.64 0 0 Z " fill="#102A5D" transform="translate(422,481)"/>
<path d="M0 0 C0.99 0.33 1.98 0.66 3 1 C1.71937515 2.7074998 0.38232443 4.37373596 -1 6 C-1.66 6 -2.32 6 -3 6 C-3 6.66 -3 7.32 -3 8 C-5.24401957 9.94875383 -7.33636533 11.66818267 -10 13 C-10.33 13.99 -10.66 14.98 -11 16 C-12.93809399 18.21496456 -14.66270655 19.81404865 -17.24609375 21.23828125 C-20.75079822 23.48029787 -23.42797748 26.21185041 -26.3125 29.1875 C-26.86228516 29.74630859 -27.41207031 30.30511719 -27.97851562 30.88085938 C-29.32363696 32.24937412 -30.66246643 33.62406833 -32 35 C-32 32 -32 32 -30.78515625 30.4243927 C-30.21667969 29.86257797 -29.64820313 29.30076324 -29.0625 28.72192383 C-28.42183594 28.08148636 -27.78117187 27.44104889 -27.12109375 26.78120422 C-26.42113281 26.09672714 -25.72117187 25.41225006 -25 24.70703125 C-24.28972656 24.00100266 -23.57945312 23.29497406 -22.84765625 22.56755066 C-20.57203004 20.30874981 -18.28620635 18.06058693 -16 15.8125 C-14.45765158 14.28519336 -12.91597594 12.757207 -11.375 11.22851562 C-7.59111171 7.47774779 -3.79879338 3.73566783 0 0 Z " fill="#1A98A4" transform="translate(514,390)"/>
<path d="M0 0 C0.99 0 1.98 0 3 0 C2.34 1.32 1.68 2.64 1 4 C0.34 4 -0.32 4 -1 4 C-1.268125 4.598125 -1.53625 5.19625 -1.8125 5.8125 C-2.99917406 7.99847854 -4.09599113 9.41332594 -6 11 C-6.66 11 -7.32 11 -8 11 C-8.26167969 11.57621094 -8.52335938 12.15242188 -8.79296875 12.74609375 C-11.67407281 18.12601946 -16.32698995 23.56870998 -22 26 C-22.66 25.67 -23.32 25.34 -24 25 C-23.34402832 24.34926514 -22.68805664 23.69853027 -22.01220703 23.02807617 C-19.57626733 20.60919367 -17.14260652 18.18806419 -14.71044922 15.76538086 C-13.65796713 14.71792294 -12.60458865 13.6713649 -11.55029297 12.62573242 C-10.0337565 11.1213454 -8.5204886 9.61373614 -7.0078125 8.10546875 C-6.09660645 7.19949951 -5.18540039 6.29353027 -4.24658203 5.36010742 C-1.88691915 3.01660255 -1.88691915 3.01660255 0 0 Z " fill="#1DBEB8" transform="translate(553,350)"/>
<path d="M0 0 C-0.3125 2.375 -0.3125 2.375 -1 5 C-1.99 5.66 -2.98 6.32 -4 7 C-4 6.01 -4 5.02 -4 4 C-4.66 4 -5.32 4 -6 4 C-6.25523437 4.58265625 -6.51046875 5.1653125 -6.7734375 5.765625 C-8.11741087 8.21388223 -9.61810296 9.81743248 -11.625 11.75 C-12.57246094 12.67039062 -12.57246094 12.67039062 -13.5390625 13.609375 C-14.02117187 14.06828125 -14.50328125 14.5271875 -15 15 C-16.32 14.34 -17.64 13.68 -19 13 C-18.48050781 12.55269531 -17.96101563 12.10539062 -17.42578125 11.64453125 C-12.6717303 7.52820035 -12.6717303 7.52820035 -8.1875 3.125 C-5.4287685 0.4450894 -3.8236806 0 0 0 Z " fill="#287691" transform="translate(472,437)"/>
<path d="M0 0 C0.33 0 0.66 0 1 0 C1 5.94 1 11.88 1 18 C6.09164701 14.60577072 6.09164701 14.60577072 11 11 C11 15 11 15 8.84765625 17.578125 C7.92855469 18.45984375 7.00945312 19.3415625 6.0625 20.25 C5.14597656 21.14203125 4.22945313 22.0340625 3.28515625 22.953125 C1 25 1 25 0 25 C0 16.75 0 8.5 0 0 Z " fill="#248B98" transform="translate(492,376)"/>
<path d="M0 0 C0.33 0 0.66 0 1 0 C1.9126078 5.4756468 2.11016336 10.83598861 2.125 16.375 C2.12951172 17.08914063 2.13402344 17.80328125 2.13867188 18.5390625 C2.1237479 23.7525042 2.1237479 23.7525042 1 26 C1.99 26.33 2.98 26.66 4 27 C2.35 27 0.7 27 -1 27 C-1.02886537 22.68751391 -1.04675255 18.37505238 -1.0625 14.0625 C-1.07087891 12.83080078 -1.07925781 11.59910156 -1.08789062 10.33007812 C-1.09111328 9.16025391 -1.09433594 7.99042969 -1.09765625 6.78515625 C-1.10289307 5.70113525 -1.10812988 4.61711426 -1.11352539 3.50024414 C-1 1 -1 1 0 0 Z " fill="#1D7792" transform="translate(510,616)"/>
<path d="M0 0 C1.33998047 0.06960938 1.33998047 0.06960938 2.70703125 0.140625 C3.60808594 0.17671875 4.50914062 0.2128125 5.4375 0.25 C6.12457031 0.29640625 6.81164062 0.3428125 7.51953125 0.390625 C6.91769376 2.41107942 6.24647029 4.41173539 5.51953125 6.390625 C4.52953125 6.885625 4.52953125 6.885625 3.51953125 7.390625 C3.18953125 5.410625 2.85953125 3.430625 2.51953125 1.390625 C-2.09293957 4.66569791 -2.09293957 4.66569791 -4.54296875 9.578125 C-5.00703125 10.9703125 -5.00703125 10.9703125 -5.48046875 12.390625 C-8.0390625 13.56640625 -8.0390625 13.56640625 -10.48046875 14.390625 C-9.71479009 12.80479252 -8.9426891 11.22206006 -8.16796875 9.640625 C-7.73871094 8.75890625 -7.30945313 7.8771875 -6.8671875 6.96875 C-3.40747605 0.5366104 -3.40747605 0.5366104 0 0 Z " fill="#1BB7B6" transform="translate(582.48046875,590.609375)"/>
<path d="M0 0 C0.33 0 0.66 0 1 0 C1.33 7.59 1.66 15.18 2 23 C4.64 20.36 7.28 17.72 10 15 C10.66 15.33 11.32 15.66 12 16 C11.34 17.32 10.68 18.64 10 20 C9.34 20 8.68 20 8 20 C7.67 20.99 7.34 21.98 7 23 C4.41927097 25.32265612 3.54823932 26 0 26 C0 17.42 0 8.84 0 0 Z " fill="#4B5B87" transform="translate(464,591)"/>
<path d="M0 0 C0.66 0.33 1.32 0.66 2 1 C2.48 8.2 2.48 8.2 0.5 11.5 C-3.22645843 13.73587506 -5.67911757 13.41151261 -10 13 C-10.99 12.34 -11.98 11.68 -13 11 C-13 10.34 -13 9.68 -13 9 C-12.07767578 9.14308594 -12.07767578 9.14308594 -11.13671875 9.2890625 C-10.32847656 9.39992188 -9.52023437 9.51078125 -8.6875 9.625 C-7.88699219 9.74101563 -7.08648438 9.85703125 -6.26171875 9.9765625 C-3.71276785 10.21533407 -3.71276785 10.21533407 -1 8 C-0.42251197 6.03638136 -0.42251197 6.03638136 -0.3125 3.875 C-0.209375 2.59625 -0.10625 1.3175 0 0 Z " fill="#F79449" transform="translate(657,570)"/>
<path d="M0 0 C0.66 0.66 1.32 1.32 2 2 C-1.72346836 6.42094803 -5.29521038 10.57833482 -10 14 C-10.66 13.01 -11.32 12.02 -12 11 C-11.34 11 -10.68 11 -10 11 C-9.67 10.01 -9.34 9.02 -9 8 C-8.34 8 -7.68 8 -7 8 C-6.773125 7.4225 -6.54625 6.845 -6.3125 6.25 C-4.66961977 3.4336339 -2.60466773 1.91922886 0 0 Z " fill="#375C8A" transform="translate(465,483)"/>
<path d="M0 0 C1.32 0.66 2.64 1.32 4 2 C3.401875 2.26039063 2.80375 2.52078125 2.1875 2.7890625 C-0.14647847 4.08108629 -1.33973195 5.30868813 -3 7.375 C-3.51304687 7.99117188 -4.02609375 8.60734375 -4.5546875 9.2421875 C-5.03164063 9.82226562 -5.50859375 10.40234375 -6 11 C-8.125 13.5 -8.125 13.5 -10 15 C-11.32 14.67 -12.64 14.34 -14 14 C-9.38 9.38 -4.76 4.76 0 0 Z " fill="#256F94" transform="translate(401,399)"/>
<path d="M0 0 C3.63 0 7.26 0 11 0 C11 5.28 11 10.56 11 16 C9 14 9 14 8 11 C7.67 10.34 7.34 9.68 7 9 C7.66 9 8.32 9 9 9 C9 6.69 9 4.38 9 2 C6.66834966 1.66501699 6.66834966 1.66501699 4 2 C1.68622853 3.89584109 1.68622853 3.89584109 0 6 C0 4.02 0 2.04 0 0 Z " fill="#1499A4" transform="translate(509,591)"/>
<path d="M0 0 C0.33 0.66 0.66 1.32 1 2 C0.34 1.67 -0.32 1.34 -1 1 C-0.67 0.67 -0.34 0.34 0 0 Z M-4 2 C-3.01 2.33 -2.02 2.66 -1 3 C-3 6 -3 6 -5.23046875 7.30078125 C-8.78489882 9.48156698 -11.42325955 12.20698343 -14.3125 15.1875 C-14.86228516 15.74630859 -15.41207031 16.30511719 -15.97851562 16.88085938 C-17.32363696 18.24937412 -18.66246643 19.62406833 -20 21 C-20 18 -20 18 -18.53125 16.19067383 C-17.8609375 15.53607178 -17.190625 14.88146973 -16.5 14.20703125 C-15.778125 13.49482422 -15.05625 12.78261719 -14.3125 12.04882812 C-13.549375 11.31083984 -12.78625 10.57285156 -12 9.8125 C-10.8553125 8.68811523 -10.8553125 8.68811523 -9.6875 7.54101562 C-7.79819161 5.68713177 -5.90224794 3.84058931 -4 2 Z " fill="#168D9C" transform="translate(502,404)"/>
<path d="M0 0 C0.99 0.66 1.98 1.32 3 2 C-0.63 5.63 -4.26 9.26 -8 13 C-8.66 12.01 -9.32 11.02 -10 10 C-6.66666667 6.66666667 -3.33333333 3.33333333 0 0 Z " fill="#24BAB6" transform="translate(585,363)"/>
<path d="M0 0 C1.2065625 0.0309375 1.2065625 0.0309375 2.4375 0.0625 C2.81883299 2.0539056 3.15075582 4.05529077 3.4375 6.0625 C2.4375 7.0625 2.4375 7.0625 -0.0625 7.1875 C-2.5625 7.0625 -2.5625 7.0625 -3.5625 6.0625 C-3.6875 3.5625 -3.6875 3.5625 -3.5625 1.0625 C-2.5625 0.0625 -2.5625 0.0625 0 0 Z " fill="#FBD0A8" transform="translate(650.5625,570.9375)"/>
<path d="M0 0 C1.485 0.99 1.485 0.99 3 2 C3 2.66 3 3.32 3 4 C3.99 4.33 4.98 4.66 6 5 C6.33 5.99 6.66 6.98 7 8 C7.99 8.66 8.98 9.32 10 10 C10 10.66 10 11.32 10 12 C10.99 12.33 11.98 12.66 13 13 C12.01 13.33 11.02 13.66 10 14 C6.37 10.37 2.74 6.74 -1 3 C-0.67 2.01 -0.34 1.02 0 0 Z " fill="#F46E45" transform="translate(464,459)"/>
<path d="M0 0 C2.86855713 0.08436933 4.55682315 0.58692181 6.66796875 2.5546875 C11 7.51440024 11 7.51440024 11 10 C10.01 9.67 9.02 9.34 8 9 C8 8.01 8 7.02 8 6 C6.35 6.66 4.7 7.32 3 8 C2.4465236 5.92446352 2 4.15634036 2 2 C1.34 1.34 0.68 0.68 0 0 Z " fill="#1FC1B8" transform="translate(424,354)"/>
<path d="M0 0 C0.99 0 1.98 0 3 0 C1.34908222 4.29238623 -1.73754566 6.8793915 -5 10 C-5.99 9.67 -6.98 9.34 -8 9 C-6.625 6.5 -6.625 6.5 -5 4 C-4.34 4 -3.68 4 -3 4 C-2.2884375 3.01 -2.2884375 3.01 -1.5625 2 C-1.046875 1.34 -0.53125 0.68 0 0 Z " fill="#F4722F" transform="translate(520,488)"/>
<path d="M0 0 C3.28754511 0.57889381 4.93672495 1.54828411 7.25 3.9375 C7.77078125 4.46214844 8.2915625 4.98679687 8.828125 5.52734375 C10 7 10 7 10 9 C6.71245489 8.42110619 5.06327505 7.45171589 2.75 5.0625 C2.22921875 4.53785156 1.7084375 4.01320313 1.171875 3.47265625 C0 2 0 2 0 0 Z " fill="#26467B" transform="translate(445,489)"/>
<path d="M0 0 C0.99 0.66 1.98 1.32 3 2 C3.99 2.33 4.98 2.66 6 3 C3.03 5.475 3.03 5.475 0 8 C0 7.01 0 6.02 0 5 C-1.65 5.33 -3.3 5.66 -5 6 C-3.35 4.02 -1.7 2.04 0 0 Z " fill="#2B809A" transform="translate(472,432)"/>
<path d="M0 0 C0.99 0.33 1.98 0.66 3 1 C-3.15034169 8.48291572 -3.15034169 8.48291572 -7 11 C-7 10.01 -7 9.02 -7 8 C-6.34 8 -5.68 8 -5 8 C-4.896875 7.360625 -4.79375 6.72125 -4.6875 6.0625 C-4.460625 5.381875 -4.23375 4.70125 -4 4 C-3.01 3.67 -2.02 3.34 -1 3 C-0.67 2.01 -0.34 1.02 0 0 Z " fill="#1F91A1" transform="translate(536,412)"/>
<path d="M0 0 C2.09350689 3.4019487 2.17942163 6.05272412 2 10 C0.02 10.99 0.02 10.99 -2 12 C-2.28571429 3.42857143 -2.28571429 3.42857143 0 0 Z " fill="#1A4A79" transform="translate(406,362)"/>
<path d="M0 0 C0.66 0 1.32 0 2 0 C2 0.99 2 1.98 2 3 C0.68 3.33 -0.64 3.66 -2 4 C-2 4.99 -2 5.98 -2 7 C-2.66 7 -3.32 7 -4 7 C-4.66 10.3 -5.32 13.6 -6 17 C-6.33 17 -6.66 17 -7 17 C-7.66566918 10.60957582 -5.84199045 7.06444195 -2 2 C-1.34 1.34 -0.68 0.68 0 0 Z " fill="#397C97" transform="translate(410,355)"/>
<path d="M0 0 C-1.34634457 4.4062186 -3.19374374 6.43077702 -7 9 C-7.66 9 -8.32 9 -9 9 C-8.82701599 6.66471585 -8.29774631 5.30822418 -6.66796875 3.62109375 C-2.42788462 0 -2.42788462 0 0 0 Z " fill="#2F6B8F" transform="translate(434,375)"/>
<path d="M0 0 C2.01635978 3.02453967 3.03246502 5.63075348 4.1875 9.0625 C4.55230469 10.12597656 4.91710937 11.18945312 5.29296875 12.28515625 C6 15 6 15 5 17 C4.34 16.67 3.68 16.34 3 16 C2.1484375 13.41796875 2.1484375 13.41796875 1.375 10.1875 C0.98441406 8.60001953 0.98441406 8.60001953 0.5859375 6.98046875 C0 4 0 4 0 0 Z " fill="#3C4D74" transform="translate(299,611)"/>
<path d="M0 0 C0.66 0.66 1.32 1.32 2 2 C-1.465 4.97 -1.465 4.97 -5 8 C-5.66 7.01 -6.32 6.02 -7 5 C-4.87219421 2.65941363 -2.88437779 1.29299694 0 0 Z " fill="#26B8BD" transform="translate(540,350)"/>
<path d="M0 0 C0.99 0.66 1.98 1.32 3 2 C2.67 2.33 2.34 2.66 2 3 C1.95907063 5.33297433 1.95758277 7.66705225 2 10 C1.01 10.33 0.02 10.66 -1 11 C-2.25 3.375 -2.25 3.375 0 0 Z " fill="#F8A060" transform="translate(644,569)"/>
<path d="M0 0 C4.95 0 9.9 0 15 0 C15 2.31 15 4.62 15 7 C14.67 7 14.34 7 14 7 C14 5.02 14 3.04 14 1 C12.2282281 1.06016203 10.45741321 1.14899328 8.6875 1.25 C7.70136719 1.29640625 6.71523438 1.3428125 5.69921875 1.390625 C2.86059908 1.75970238 2.86059908 1.75970238 1.14453125 4.046875 C0.76683594 4.69140625 0.38914062 5.3359375 0 6 C0 4.02 0 2.04 0 0 Z " fill="#11B9B6" transform="translate(528,319)"/>
<path d="M0 0 C0.33 0.66 0.66 1.32 1 2 C-0.07192184 3.3218362 -1.15802695 4.63217927 -2.25 5.9375 C-2.85328125 6.66839844 -3.4565625 7.39929688 -4.078125 8.15234375 C-6.10741134 10.10326334 -7.254407 10.61731779 -10 11 C-6.79239749 7.19364503 -3.59253891 3.45436433 0 0 Z " fill="#35A4B1" transform="translate(573,449)"/>
<path d="M0 0 C2.8670615 2.8670615 4 4.91591468 4 9 C1.37812506 7.95125002 0.20628639 7.35068687 -1.25 4.875 C-1.4975 4.25625 -1.745 3.6375 -2 3 C-1.34 2.01 -0.68 1.02 0 0 Z " fill="#165382" transform="translate(382,421)"/>
<path d="M0 0 C0.66 0.66 1.32 1.32 2 2 C2.804375 2.61875 2.804375 2.61875 3.625 3.25 C5.61690775 5.78515532 5.2083333 7.87500056 5 11 C2.38114512 8.63055987 0.58133449 6.16266898 -1 3 C-0.67 2.01 -0.34 1.02 0 0 Z " fill="#279DA4" transform="translate(555,615)"/>
<path d="M0 0 C1.98 0 3.96 0 6 0 C4.68 1.65 3.36 3.3 2 5 C0.0625 4.625 0.0625 4.625 -2 4 C-2.33 3.34 -2.66 2.68 -3 2 C-2.34 2 -1.68 2 -1 2 C-0.67 1.34 -0.34 0.68 0 0 Z " fill="#F69A49" transform="translate(711,600)"/>
<path d="M0 0 C1.32 0.66 2.64 1.32 4 2 C3.67 4.97 3.34 7.94 3 11 C2.67 11 2.34 11 2 11 C2 8.69 2 6.38 2 4 C-0.31 3.67 -2.62 3.34 -5 3 C-5 2.67 -5 2.34 -5 2 C-3.35 2 -1.7 2 0 2 C0 1.34 0 0.68 0 0 Z " fill="#F89E54" transform="translate(654,567)"/>
<path d="M0 0 C0.33 1.32 0.66 2.64 1 4 C-0.65 5.32 -2.3 6.64 -4 8 C-4.66 7.34 -5.32 6.68 -6 6 C-4.02 4.02 -2.04 2.04 0 0 Z " fill="#255687" transform="translate(468,494)"/>
<path d="M0 0 C0.66 0.66 1.32 1.32 2 2 C-0.31 4.31 -2.62 6.62 -5 9 C-5.33 8.01 -5.66 7.02 -6 6 C-4 4 -2 2 0 0 Z " fill="#367897" transform="translate(464,427)"/>
<path d="M0 0 C3.81684226 1.55500981 6.19195732 4.03595495 9 7 C8.34 8.32 7.68 9.64 7 11 C6.95875 10.443125 6.9175 9.88625 6.875 9.3125 C5.89617051 6.72559348 5.06222061 6.05977846 2.9375 4.375 C1.968125 3.59125 0.99875 2.8075 0 2 C0 1.34 0 0.68 0 0 Z " fill="#2FCEC4" transform="translate(586,349)"/>
<path d="M0 0 C0.6875 1.625 0.6875 1.625 1 4 C-1.33333333 9.66666667 -1.33333333 9.66666667 -4 11 C-3.39301257 6.87248551 -1.96189209 3.6678852 0 0 Z " fill="#1EB3B2" transform="translate(571,605)"/>
<path d="M0 0 C3.96 0 7.92 0 12 0 C10.35 1.65 8.7 3.3 7 5 C7 4.01 7 3.02 7 2 C4.69 1.67 2.38 1.34 0 1 C0 0.67 0 0.34 0 0 Z " fill="#21386D" transform="translate(488,591)"/>
<path d="M0 0 C-1.04874998 2.62187494 -1.64931313 3.79371361 -4.125 5.25 C-4.74375 5.4975 -5.3625 5.745 -6 6 C-6.66 5.34 -7.32 4.68 -8 4 C-3.375 0 -3.375 0 0 0 Z " fill="#327997" transform="translate(461,446)"/>
<path d="M0 0 C0.99 0.33 1.98 0.66 3 1 C0.80075931 4.35673579 -1.38269598 6.23772368 -5 8 C-5.66 7.67 -6.32 7.34 -7 7 C-4.69 4.69 -2.38 2.38 0 0 Z " fill="#20B4B3" transform="translate(536,368)"/>
<path d="M0 0 C2.2477975 2.05233685 3.0022242 3.00667261 4 6 C6.00016466 7.20882096 6.00016466 7.20882096 8 8 C6.02 8 4.04 8 2 8 C0.23537317 4.91190305 0 3.76687864 0 0 Z " fill="#15295D" transform="translate(261,635)"/>
<path d="M0 0 C0.99 0.99 1.98 1.98 3 3 C1.35 4.32 -0.3 5.64 -2 7 C-2 3 -2 3 0 0 Z " fill="#28C1BB" transform="translate(570,377)"/>
<path d="M0 0 C-1.75 5.75 -1.75 5.75 -4 8 C-4.33 6.02 -4.66 4.04 -5 2 C-2 0 -2 0 0 0 Z " fill="#2AB5B4" transform="translate(582,605)"/>
<path d="M0 0 C1.65 0 3.3 0 5 0 C5 1.32 5 2.64 5 4 C3.35 4 1.7 4 0 4 C0 2.68 0 1.36 0 0 Z " fill="#FDECDB" transform="translate(649,573)"/>
<path d="M0 0 C0 3.16880694 -0.2058242 4.43689172 -2 7 C-4.625 7.75 -4.625 7.75 -7 8 C-6.02133662 6.85373678 -5.04205413 5.70800212 -4.0625 4.5625 C-3.51722656 3.92441406 -2.97195313 3.28632813 -2.41015625 2.62890625 C-1.63204305 1.73008851 -0.84063472 0.84063472 0 0 Z " fill="#2D7799" transform="translate(541,481)"/>
<path d="M0 0 C1.485 0.99 1.485 0.99 3 2 C3 2.66 3 3.32 3 4 C3.99 4.33 4.98 4.66 6 5 C5.01 5.66 4.02 6.32 3 7 C1.68 5.68 0.36 4.36 -1 3 C-0.67 2.01 -0.34 1.02 0 0 Z " fill="#F2693A" transform="translate(464,459)"/>
<path d="M0 0 C3.3 0 6.6 0 10 0 C9.67 0.66 9.34 1.32 9 2 C7.9275 1.938125 6.855 1.87625 5.75 1.8125 C1.89133813 2.00543309 0.71182212 2.39665076 -2 5 C-1.34 3.35 -0.68 1.7 0 0 Z " fill="#334170" transform="translate(319,591)"/>
<path d="M0 0 C0.99 0.33 1.98 0.66 3 1 C2.34 2.32 1.68 3.64 1 5 C0.01 5 -0.98 5 -2 5 C-2.33 4.34 -2.66 3.68 -3 3 C-2.34 3 -1.68 3 -1 3 C-0.67 2.01 -0.34 1.02 0 0 Z " fill="#315482" transform="translate(456,491)"/>
<path d="M0 0 C2.475 0.495 2.475 0.495 5 1 C5.33 2.98 5.66 4.96 6 7 C3.95880212 5.38405168 1.95927063 3.7143618 0 2 C0 1.34 0 0.68 0 0 Z " fill="#F37342" transform="translate(483,480)"/>
<path d="M0 0 C1.875 0.125 1.875 0.125 4 1 C5.25 4.0625 5.25 4.0625 6 7 C3.53199953 5.84826645 1.95216435 4.95216435 0 3 C0 2.01 0 1.02 0 0 Z " fill="#274B7D" transform="translate(406,376)"/>
<path d="M0 0 C0.33 0 0.66 0 1 0 C1 2.97 1 5.94 1 9 C0.01 8.67 -0.98 8.34 -2 8 C-1.125 1.125 -1.125 1.125 0 0 Z " fill="#45B8B5" transform="translate(435,364)"/>
<path d="M0 0 C3 3 3 3 3.1875 5.6875 C3.0946875 6.8321875 3.0946875 6.8321875 3 8 C2.01 8.33 1.02 8.66 0 9 C0 6.03 0 3.06 0 0 Z " fill="#F38952" transform="translate(407,505)"/>
<path d="M0 0 C0.99 0 1.98 0 3 0 C2.6875 2.375 2.6875 2.375 2 5 C1.01 5.66 0.02 6.32 -1 7 C-0.67 4.69 -0.34 2.38 0 0 Z " fill="#216C90" transform="translate(469,437)"/>
<path d="M0 0 C0.99 0.33 1.98 0.66 3 1 C4.1875 3.5625 4.1875 3.5625 5 6 C3.68 5.67 2.36 5.34 1 5 C0.67 3.35 0.34 1.7 0 0 Z " fill="#26396A" transform="translate(432,628)"/>
<path d="M0 0 C0.99 0.33 1.98 0.66 3 1 C1.515 3.475 1.515 3.475 0 6 C-0.66 4.68 -1.32 3.36 -2 2 C-1.34 1.34 -0.68 0.68 0 0 Z " fill="#25BDBB" transform="translate(583,599)"/>
<path d="M0 0 C-0.99 0.33 -1.98 0.66 -3 1 C-3 1.66 -3 2.32 -3 3 C-3.99 3.33 -4.98 3.66 -6 4 C-6.99 3.34 -7.98 2.68 -9 2 C-5.5647952 -0.29013653 -4.014669 -0.17842973 0 0 Z " fill="#F68C53" transform="translate(404,502)"/>
<path d="M0 0 C0.66 0.33 1.32 0.66 2 1 C1.34 2.32 0.68 3.64 0 5 C-1.32 4.67 -2.64 4.34 -4 4 C-3 2 -3 2 0 0 Z " fill="#F56530" transform="translate(509,499)"/>
<path d="M0 0 C0.99 0 1.98 0 3 0 C1.63016497 3.16115776 1.0109362 3.9927092 -2 6 C-1.125 1.125 -1.125 1.125 0 0 Z " fill="#F57742" transform="translate(520,488)"/>
<path d="M0 0 C0.66 0.66 1.32 1.32 2 2 C-0.97 4.475 -0.97 4.475 -4 7 C-4 4 -4 4 -2 1.8125 C-1.34 1.214375 -0.68 0.61625 0 0 Z " fill="#1F728F" transform="translate(505,444)"/>
<path d="M0 0 C0.66 0.99 1.32 1.98 2 3 C0.02 3.66 -1.96 4.32 -4 5 C-4.33 4.01 -4.66 3.02 -5 2 C-3.35 1.34 -1.7 0.68 0 0 Z " fill="#1F7B98" transform="translate(478,430)"/>
<path d="M0 0 C0.99 0.66 1.98 1.32 3 2 C1.35 3.32 -0.3 4.64 -2 6 C-2 2 -2 2 0 0 Z " fill="#2BC5BA" transform="translate(585,363)"/>
</svg>
