<?xml version="1.0" encoding="UTF-8"?>
<svg version="1.1" xmlns="http://www.w3.org/2000/svg" width="1024" height="1024">
<path d="M0 0 C337.92 0 675.84 0 1024 0 C1024 337.92 1024 675.84 1024 1024 C686.08 1024 348.16 1024 0 1024 C0 686.08 0 348.16 0 0 Z " fill="#FDFEFE" transform="translate(0,0)"/>
<path d="M0 0 C1.40260315 1.42260742 1.40260315 1.42260742 3.04907227 3.41796875 C7.20184451 8.29814743 11.67141871 12.79777924 16.21484375 17.3125 C17.07058487 18.16682617 17.92632599 19.02115234 18.80799866 19.90136719 C21.51547381 22.60328862 24.22642254 25.30169359 26.9375 28 C28.78473675 29.84221577 30.63174427 31.68466143 32.47851562 33.52734375 C36.98303003 38.02089061 41.49039405 42.5115632 46 47 C44.48346895 50.56145023 42.3969946 52.85630225 39.67382812 55.58496094 C38.77950073 56.48559265 37.88517334 57.38622437 36.96374512 58.31414795 C35.9865015 59.28781273 35.00899689 60.26121561 34.03125 61.234375 C33.02969576 62.23727681 32.02843855 63.24047532 31.02746582 64.24395752 C28.93251701 66.34185055 26.83400385 68.43609383 24.73291016 70.52783203 C22.03582072 73.21349788 19.34784814 75.90808178 16.6624527 78.60543442 C14.59863217 80.67646736 12.53008999 82.74273116 10.46006775 84.80756378 C9.46659889 85.79969595 8.47462053 86.79332289 7.48414612 87.78844452 C6.10298439 89.1746643 4.71475049 90.55382699 3.32617188 91.93261719 C2.53722534 92.71997253 1.74827881 93.50732788 0.9354248 94.31854248 C-1 96 -1 96 -3 96 C-3.22182166 96.54699995 -3.44364332 97.0939999 -3.67218685 97.65757561 C-5.41404113 100.73041907 -7.7525043 103.01827163 -10.24501038 105.47879028 C-10.78504257 106.01982576 -11.32507477 106.56086124 -11.88147157 107.11829174 C-13.69239136 108.9301642 -15.51036237 110.73479147 -17.32836914 112.53955078 C-18.62795422 113.83693471 -19.92709194 115.1347669 -21.22581482 116.43301392 C-24.02322429 119.22748946 -26.82376213 122.0187782 -29.62675667 124.80765152 C-34.05547995 129.21413074 -38.47712443 133.627667 -42.89781189 138.04220581 C-49.88742446 145.0204353 -56.88169424 151.99397538 -63.87799877 158.96549499 C-76.41575341 171.45891448 -88.94791723 183.9579362 -101.47490209 196.46215427 C-105.87424254 200.85306813 -110.27637591 205.24115746 -114.6807462 209.62702584 C-117.41483296 212.35049814 -120.14691334 215.07597652 -122.87848854 217.80196762 C-124.14949219 219.06948975 -125.42136717 220.33613881 -126.69415665 221.60186768 C-128.42571578 223.32402903 -130.15421437 225.04920437 -131.88197327 226.775177 C-132.39130136 227.28022802 -132.90062945 227.78527903 -133.42539173 228.30563462 C-136.04301757 230.9034952 -136.04301757 230.9034952 -138 234 C-141.18259851 232.59490901 -143.31348466 230.93078658 -145.75878906 228.46826172 C-146.83945648 227.38736771 -146.83945648 227.38736771 -147.94195557 226.28463745 C-148.70876648 225.50750397 -149.47557739 224.73037048 -150.265625 223.9296875 C-151.05902283 223.13345978 -151.85242065 222.33723206 -152.66986084 221.51687622 C-155.20130703 218.97424052 -157.72570803 216.42473652 -160.25 213.875 C-161.96568617 212.14928247 -163.68182662 210.42401645 -165.3984375 208.69921875 C-169.60424248 204.47136968 -173.80428507 200.23786131 -178 196 C-181.95579674 197.82849038 -184.66224772 200.40584374 -187.68359375 203.48828125 C-188.22097672 204.02849411 -188.75835968 204.56870697 -189.31202698 205.12528992 C-191.02528546 206.84970706 -192.73146776 208.58093629 -194.4375 210.3125 C-195.58091562 211.46595552 -196.72479125 212.61895523 -197.86914062 213.77148438 C-199.98260721 215.90123713 -202.09331074 218.03364835 -204.20092773 220.16918945 C-206.03198882 222.02101268 -207.87359224 223.8624856 -209.72680664 225.69213867 C-212.08525432 227.99690525 -212.08525432 227.99690525 -214.1875 230.8125 C-214.785625 231.534375 -215.38375 232.25625 -216 233 C-216.66 233 -217.32 233 -218 233 C-218.2582959 233.58426758 -218.5165918 234.16853516 -218.78271484 234.77050781 C-220.09673136 237.17716622 -221.52480015 238.75319337 -223.4765625 240.671875 C-224.146875 241.33574219 -224.8171875 241.99960937 -225.5078125 242.68359375 C-226.55582031 243.70646484 -226.55582031 243.70646484 -227.625 244.75 C-228.33140625 245.44738281 -229.0378125 246.14476562 -229.765625 246.86328125 C-231.50598703 248.58012488 -233.25084981 250.29211832 -235 252 C-233.60919475 255.13738154 -231.98977796 257.25475281 -229.56005859 259.66699219 C-228.85948334 260.36741638 -228.15890808 261.06784058 -227.43710327 261.78948975 C-226.30421371 262.90689545 -226.30421371 262.90689545 -225.1484375 264.046875 C-224.37440582 264.81807678 -223.60037415 265.58927856 -222.80288696 266.3838501 C-220.33158077 268.84396856 -217.85340817 271.29703848 -215.375 273.75 C-213.69745948 275.41750894 -212.02037055 277.08547232 -210.34375 278.75390625 C-206.23439081 282.8412237 -202.11937353 286.92277696 -198 291 C-198.95255109 292.11205252 -199.9052085 293.22401397 -200.85791016 294.3359375 C-201.38840973 294.9551709 -201.9189093 295.5744043 -202.46548462 296.21240234 C-207.61892065 302.21577662 -212.75756494 307.96055484 -218.80859375 313.0703125 C-221.6237095 315.54922013 -224.2825729 318.16401481 -226.9375 320.8125 C-227.4226709 321.29323975 -227.9078418 321.77397949 -228.40771484 322.26928711 C-231.03421476 324.8858703 -231.03421476 324.8858703 -233 328 C-233.99 328 -234.98 328 -236 328 C-236 327.34 -236 326.68 -236 326 C-236.66 326 -237.32 326 -238 326 C-239.41419029 324.56636333 -239.41419029 324.56636333 -241.06967163 322.56242371 C-245.11890556 317.80491145 -249.45953792 313.40702704 -253.88525391 309.0012207 C-254.74631241 308.14001617 -255.60737091 307.27881165 -256.49452209 306.39151001 C-258.83347753 304.05312774 -261.17461496 301.7169728 -263.51678896 299.3818171 C-265.97861276 296.9262967 -268.43755512 294.46789408 -270.89682007 292.0098114 C-275.54936455 287.36036343 -280.20444846 282.71346677 -284.86047494 278.06750602 C-290.14481001 272.7943494 -295.42630778 267.51835494 -300.70756269 262.24211371 C-309.73870985 253.21963494 -318.77195585 244.19926312 -327.80760193 235.18128967 C-331.54016963 231.45595646 -335.2719211 227.72982544 -339 224 C-339.825 223.175 -340.65 222.35 -341.5 221.5 C-349 214 -349 214 -351.54296875 211.44921875 C-353.09757629 209.89955432 -354.66157587 208.35920661 -356.23828125 206.83203125 C-356.92277344 206.16558594 -357.60726563 205.49914062 -358.3125 204.8125 C-359.00988281 204.13832031 -359.70726562 203.46414063 -360.42578125 202.76953125 C-362 201 -362 201 -362 199 C-362.66 199 -363.32 199 -364 199 C-364 198.34 -364 197.68 -364 197 C-364.83724609 196.66935547 -364.83724609 196.66935547 -365.69140625 196.33203125 C-368.73524252 194.57577378 -370.62165491 192.32449464 -372.9375 189.6875 C-376.19264988 185.99967178 -379.49271282 182.44454501 -383 179 C-381.50781097 175.51821534 -379.52332699 173.28570661 -376.84155273 170.63037109 C-375.98403915 169.77623627 -375.12652557 168.92210144 -374.24302673 168.04208374 C-372.85235741 166.67160385 -372.85235741 166.67160385 -371.43359375 165.2734375 C-370.47426895 164.32038643 -369.51545969 163.36681616 -368.55714417 162.41275024 C-366.03824926 159.90713443 -363.51384196 157.40715343 -360.98779297 154.90875244 C-356.93990249 150.90405009 -352.89877416 146.89255163 -348.86082649 142.87782669 C-347.4489324 141.47616499 -346.03349745 140.07807294 -344.61802673 138.68002319 C-343.76366531 137.83219269 -342.90930389 136.98436218 -342.02905273 136.11083984 C-341.27341537 135.36345551 -340.51777802 134.61607117 -339.73924255 133.84603882 C-337.93348462 132.10683697 -337.93348462 132.10683697 -337 130 C-333.87675456 131.38629244 -331.75809293 132.99511571 -329.35546875 135.4140625 C-328.67806641 136.09339844 -328.00066406 136.77273438 -327.30273438 137.47265625 C-326.25569336 138.53806641 -326.25569336 138.53806641 -325.1875 139.625 C-324.50107422 140.31207031 -323.81464844 140.99914062 -323.10742188 141.70703125 C-319.89780586 144.94397607 -316.79855101 148.223221 -313.82525635 151.67871094 C-310.23897258 155.78336701 -306.46896938 159.65308084 -302.59594727 163.48583984 C-301.892668 164.18605255 -301.18938873 164.88626526 -300.46479797 165.60769653 C-298.95288906 167.11250515 -297.43985243 168.61618144 -295.92578316 170.11881638 C-293.5323031 172.49479123 -291.14248336 174.87439243 -288.75364685 177.2550354 C-281.96673458 184.0175789 -275.17407289 190.77432643 -268.37719727 197.52685547 C-264.20877518 201.6685824 -260.04516603 205.8150966 -255.88453484 209.9646492 C-254.29830294 211.54465759 -252.71017428 213.12276403 -251.12014961 214.69895554 C-248.90834655 216.89166322 -246.70266046 219.0903504 -244.49829102 221.29052734 C-243.50490723 222.27076874 -243.50490723 222.27076874 -242.49145508 223.27081299 C-238 227.77210118 -238 227.77210118 -238 230 C-237.34 230 -236.68 230 -236 230 C-235.67 230.66 -235.34 231.32 -235 232 C-230.76495657 230.35119947 -227.93030694 227.20558638 -224.795578 224.04281616 C-223.86680996 223.11766974 -223.86680996 223.11766974 -222.91927892 222.17383349 C-220.84268481 220.10288154 -218.77332491 218.02484903 -216.70385742 215.94677734 C-215.21752928 214.46152201 -213.73076832 212.9766997 -212.24360657 211.49227905 C-208.20171613 207.45524228 -204.16611465 203.41197167 -200.13172317 199.36744261 C-195.90753079 195.13447046 -191.67807101 190.90676744 -187.44929504 186.67837524 C-180.34323479 179.57137782 -173.24106085 172.4605154 -166.14135742 165.34716797 C-157.94228883 157.13240051 -149.73803259 148.92284409 -141.53074378 140.71628988 C-132.78782512 131.974048 -124.04872531 123.22799626 -115.31073213 114.48083162 C-112.79688835 111.96486041 -110.2823382 109.44959703 -107.76762962 106.9344902 C-103.80659178 102.97244405 -99.84812775 99.00784356 -95.89159966 95.0412941 C-94.44248206 93.58926761 -92.99253127 92.13807207 -91.54166794 90.68778992 C-82.25503483 81.4427402 -82.25503483 81.4427402 -73.48559475 71.7127018 C-70.74440656 68.55246046 -67.7692072 65.62180299 -64.8112793 62.66601562 C-64.13071976 61.98209747 -63.45016022 61.29817932 -62.74897766 60.59353638 C-60.52666771 58.36182168 -58.30069536 56.1338073 -56.07421875 53.90625 C-54.51952444 52.34833938 -52.96490423 50.79035481 -51.41035461 49.2322998 C-48.16686133 45.98284416 -44.92133358 42.73543625 -41.67456055 39.48925781 C-37.50523572 35.32003527 -33.34287037 31.14393715 -29.18217754 26.9661026 C-25.9815283 23.75437364 -22.77638386 20.54716055 -19.56992531 17.3412323 C-18.0320575 15.80218138 -16.49581798 14.2615017 -14.96121788 12.7191925 C-12.82608091 10.57432301 -10.68478045 8.43580482 -8.54174805 6.29882812 C-7.90538422 5.65684479 -7.26902039 5.01486145 -6.6133728 4.35342407 C-2.22832515 0 -2.22832515 0 0 0 Z " fill="#20899F" transform="translate(667,323)"/>
<path d="M0 0 C3.18259851 1.40509099 5.31348466 3.06921342 7.75878906 5.53173828 C8.47923401 6.25233429 9.19967896 6.9729303 9.94195557 7.71536255 C10.70876648 8.49249603 11.47557739 9.26962952 12.265625 10.0703125 C13.05902283 10.86654022 13.85242065 11.66276794 14.66986084 12.48312378 C17.20130703 15.02575948 19.72570803 17.57526348 22.25 20.125 C23.96568617 21.85071753 25.68182662 23.57598355 27.3984375 25.30078125 C31.60424248 29.52863032 35.80428507 33.76213869 40 38 C38.44354614 41.48911222 36.58316225 43.32708259 33.58203125 45.71484375 C30.36177522 48.33080482 27.58733016 51.2658373 25 54.5 C22.83120344 57.2109957 20.4690505 59.55921691 18 62 C16.30473192 63.69719325 14.60963293 65.39455542 12.91467285 67.09205627 C11.90363357 68.1045613 10.89259113 69.11706317 9.88154602 70.12956238 C9.34762049 70.66426336 8.81369495 71.19896435 8.26358986 71.74986839 C-4.05467557 84.08585656 -16.37583719 96.41894869 -28.69861603 108.7504282 C-35.81882712 115.87580238 -42.93809103 123.00211824 -50.05517578 130.13061523 C-56.27423773 136.35964417 -62.49505555 142.58691326 -68.71798754 148.81207603 C-72.00857029 152.10396129 -75.29826982 155.39671831 -78.58586121 158.69159126 C-81.67646239 161.78898389 -84.76940668 164.88401726 -87.86415672 167.9772644 C-88.99818044 169.11156293 -90.13134932 170.24671686 -91.26358986 171.38279533 C-92.81164088 172.93583574 -94.36276415 174.48574318 -95.91467285 176.03492737 C-96.78111671 176.90229302 -97.64756058 177.76965868 -98.54026031 178.66330814 C-100.92745397 180.93108307 -103.41579264 182.96295988 -106 185 C-107.03362279 186.13698507 -108.03499141 187.30422848 -109 188.5 C-111.90109231 191.89730527 -115.00034637 194.87700982 -118.32421875 197.859375 C-128.31680763 206.95992389 -137.7562571 216.64481553 -147.28936768 226.22070312 C-149.85573586 228.79745813 -152.42507851 231.37124387 -154.99414062 233.9453125 C-159.99893882 238.96070893 -165.0005374 243.97928442 -170 249 C-173.52700507 247.33029336 -176.05116029 245.33368202 -178.9375 242.6875 C-179.77152344 241.92824219 -180.60554687 241.16898438 -181.46484375 240.38671875 C-184.02904711 237.97265365 -186.51208936 235.49250258 -189 233 C-190.62007842 231.40131418 -192.24119475 229.80367956 -193.86328125 228.20703125 C-195.67982007 226.40898809 -197.49622257 224.6108072 -199.3125 222.8125 C-200.24384766 221.89791016 -201.17519531 220.98332031 -202.13476562 220.04101562 C-203.01455078 219.16767578 -203.89433594 218.29433594 -204.80078125 217.39453125 C-206.00988159 216.20114136 -206.00988159 216.20114136 -207.2434082 214.98364258 C-209 213 -209 213 -209 211 C-209.56485107 210.77280273 -210.12970215 210.54560547 -210.71166992 210.31152344 C-213.6457406 208.62990307 -215.38331321 206.56327315 -217.61328125 204.015625 C-225.44433645 195.24288484 -233.85289889 187.03974137 -242.1875 178.75 C-243.82380261 177.11872518 -245.45987202 175.4872164 -247.09570312 173.85546875 C-251.06112137 169.90094838 -255.02939411 165.94931125 -259 162 C-252.98662761 154.8531751 -246.52216002 148.2298662 -239.94970703 141.59960938 C-238.55762902 140.1908225 -237.17095913 138.7766726 -235.78955078 137.35742188 C-233.78565436 135.29908461 -231.76609403 133.25739134 -229.7421875 131.21875 C-229.12544159 130.57933472 -228.50869568 129.93991943 -227.8732605 129.28112793 C-227.29230621 128.70302368 -226.71135193 128.12491943 -226.11279297 127.52929688 C-225.35384232 126.75821594 -225.35384232 126.75821594 -224.57955933 125.97155762 C-223 125 -223 125 -221.09576416 125.07189941 C-218.24277725 126.335333 -216.5483366 128.10049722 -214.35498047 130.3203125 C-213.44078339 131.23796387 -212.5265863 132.15561523 -211.58468628 133.10107422 C-210.59543509 134.10896613 -209.60627091 135.11694344 -208.6171875 136.125 C-207.59709417 137.15323108 -206.57626014 138.1807278 -205.55471802 139.20751953 C-202.86931765 141.91002897 -200.19261391 144.62098305 -197.51806641 147.33422852 C-193.23219711 151.67932305 -188.93355328 156.01177187 -184.63437271 160.34368896 C-183.13263542 161.85940825 -181.63476418 163.37886728 -180.13742065 164.89892578 C-179.22952789 165.81657715 -178.32163513 166.73422852 -177.38623047 167.6796875 C-176.18521194 168.89760986 -176.18521194 168.89760986 -174.95993042 170.14013672 C-173.13244584 172.05514174 -173.13244584 172.05514174 -171 173 C-170.77798983 172.45308911 -170.55597965 171.90617823 -170.3272419 171.34269428 C-168.5870029 168.27102517 -166.25218568 165.97966674 -163.76412964 163.51689148 C-163.22495285 162.97530028 -162.68577606 162.43370907 -162.13026059 161.87570602 C-160.32187311 160.06168187 -158.506424 158.25489573 -156.69091797 156.44799805 C-155.39285241 155.14885954 -154.09521993 153.8492882 -152.79798889 152.54931641 C-149.27126391 149.0177398 -145.73831228 145.49245296 -142.20409536 141.96837592 C-138.50363814 138.27670295 -134.80845468 134.57975816 -131.11257935 130.88349915 C-124.90007186 124.67192872 -118.68370194 118.46424513 -112.46484375 112.2590332 C-105.28617783 105.0960621 -98.11272053 97.92790915 -90.94226539 90.75671929 C-83.30018896 83.11396568 -75.65430182 75.47503305 -68.00730371 67.83720422 C-65.80960166 65.64162815 -63.61260619 63.44534717 -61.41576767 61.24890709 C-57.95275202 57.78690093 -54.48717931 54.32747405 -51.01966667 50.86997223 C-49.7514737 49.60468435 -48.48410733 48.33856732 -47.21765709 47.07153511 C-35.62315844 35.4737269 -35.62315844 35.4737269 -29.61993599 30.39332294 C-26.75272191 27.9272038 -24.09890727 25.24675547 -21.4375 22.5625 C-20.87522705 21.99829346 -20.3129541 21.43408691 -19.73364258 20.8527832 C-16.22060388 17.30313446 -12.86500674 13.66426045 -9.6328125 9.85546875 C-6.59514691 6.40357604 -3.28818715 3.21132043 0 0 Z " fill="#F48C37" transform="translate(710,414)"/>
<path d="M0 0 C0.66 0 1.32 0 2 0 C2 54.12 2 108.24 2 164 C-8.89 164 -19.78 164 -31 164 C-31.49929729 147.03855682 -31.90334188 130.08351128 -32.13986778 113.11672783 C-32.25267825 105.2362505 -32.40601628 97.36070506 -32.65966797 89.48339844 C-32.8810139 82.60600603 -33.02133969 75.7321854 -33.06994689 68.85132992 C-33.09831786 65.21541732 -33.16338037 61.58970664 -33.32606125 57.95711899 C-33.89113201 44.82856931 -34.10174995 33.06577896 -24.82666886 22.86482775 C-19.93097875 17.79967349 -14.51247404 13.37220044 -9 9 C-7.44129395 7.68851365 -5.89088547 6.36704831 -4.35214233 5.03219604 C-3.72380178 4.49129774 -3.09546124 3.95039944 -2.44808006 3.39311028 C-0.88120053 2.04116752 -0.88120053 2.04116752 0 0 Z " fill="#25839C" transform="translate(679,545)"/>
<path d="M0 0 C8.3362989 4.91479187 14.25293591 12.09310806 17.24609375 21.32421875 C17.51171875 24.8828125 17.51171875 24.8828125 17.49609375 28.76171875 C17.50382812 30.67791016 17.50382812 30.67791016 17.51171875 32.6328125 C16.91724851 40.89420046 12.98796785 48.55421026 7.16796875 54.41796875 C-1.10201398 61.2421503 -8.74427456 62.92771649 -19.3828125 62.67578125 C-24.15301695 62.17830918 -27.68238904 60.79155818 -31.75390625 58.32421875 C-32.3778125 57.98519531 -33.00171875 57.64617187 -33.64453125 57.296875 C-40.72962407 52.96880743 -44.61382337 45.13846633 -46.75390625 37.32421875 C-47.81919514 25.52303149 -46.3805122 16.5921492 -38.78125 7.40234375 C-28.54271305 -3.09264981 -13.48400526 -6.31024877 0 0 Z " fill="#267B97" transform="translate(381.75390625,363.67578125)"/>
<path d="M0 0 C2.31 1.98 4.62 3.96 7 6 C9.03456685 7.25964688 11.085305 8.49359718 13.15234375 9.69921875 C21.38657773 15.19270658 28.61237692 21.43847007 32 31 C36.08997317 52.60690248 33.38593813 76.27464979 32 98 C21.44 98 10.88 98 0 98 C0 65.66 0 33.32 0 0 Z " fill="#1B386F" transform="translate(371,611)"/>
<path d="M0 0 C0 31.35 0 62.7 0 95 C-10.56 95 -21.12 95 -32 95 C-32.36097928 79.13919418 -32.36097928 79.13919418 -32.43945312 72.33398438 C-32.49308635 67.7050189 -32.5562486 63.07766813 -32.67895508 58.44995117 C-32.7773592 54.71503086 -32.83068062 50.98184296 -32.85389519 47.24572563 C-32.8704183 45.82664159 -32.90268752 44.40764361 -32.95157051 42.9893055 C-33.31694211 31.94007654 -33.31694211 31.94007654 -30.00680542 27.06369019 C-27.77773915 24.77008046 -25.65084809 22.78694607 -23 21 C-22.34 21 -21.68 21 -21 21 C-21 20.34 -21 19.68 -21 19 C-19.671875 17.6953125 -19.671875 17.6953125 -17.75 16.125 C-13.22345307 12.29734542 -9.08940581 8.14833123 -4.95019531 3.91259766 C-1.10112598 0 -1.10112598 0 0 0 Z " fill="#206290" transform="translate(611,614)"/>
<path d="M0 0 C10.56 0 21.12 0 32 0 C32.14697654 8.10470623 32.28716562 16.20456533 32.36225128 24.30944824 C32.39915912 28.0838341 32.44843791 31.85711271 32.52807617 35.63085938 C32.60435704 39.26844044 32.64603449 42.90495075 32.6641407 46.54327011 C32.67703628 47.92844371 32.70222086 49.31356118 32.7401104 50.69827652 C33.02533575 61.55795789 33.02533575 61.55795789 30.47689819 65.1421051 C28.72162436 66.65421416 26.98800307 67.82148949 25 69 C23.30939679 70.6423813 21.64608539 72.31300313 20 74 C16.75470263 77.27551017 13.50189466 80.54354142 10.25 83.8125 C9.37472656 84.69615234 8.49945312 85.57980469 7.59765625 86.49023438 C6.35048828 87.74223633 6.35048828 87.74223633 5.078125 89.01953125 C3.93972168 90.16578979 3.93972168 90.16578979 2.77832031 91.33520508 C1 93 1 93 0 93 C0 62.31 0 31.62 0 0 Z " fill="#22B7B1" transform="translate(579,295)"/>
<path d="M0 0 C10.56 0 21.12 0 32 0 C35.07029402 44.18709697 35.07029402 44.18709697 28.05078125 54.10546875 C24.28194956 58.1770359 20.09468414 61.43913743 15.421875 64.4140625 C12.3119814 66.45054121 9.63240707 68.82867991 6.88671875 71.32421875 C4.66261274 73.29966694 2.32287709 75.14169833 0 77 C0 51.59 0 26.18 0 0 Z " fill="#1F94A2" transform="translate(509,381)"/>
<path d="M0 0 C0.66 0 1.32 0 2 0 C2 25.08 2 50.16 2 76 C-8.89 76 -19.78 76 -31 76 C-31.18413103 69.71652849 -31.34318312 63.44247216 -31.43945312 57.15844727 C-31.4795882 55.02335847 -31.53411159 52.88848824 -31.60351562 50.75415039 C-31.7010119 47.67799948 -31.74602453 44.60476214 -31.78125 41.52734375 C-31.82254028 40.57915268 -31.86383057 39.63096161 -31.90637207 38.65403748 C-31.90899228 34.74959358 -31.88005038 32.08391863 -29.3611908 28.98155212 C-27.31424267 27.19482043 -25.19718971 25.59645976 -23 24 C-22.00897064 23.09434802 -21.03570792 22.16855497 -20.08813477 21.2175293 C-18.72664966 19.8578024 -17.36513687 18.49810312 -16.00315857 17.13887024 C-15.01821364 16.15459654 -14.03449266 15.16909653 -13.05200195 14.18237305 C-11.54427904 12.66921334 -10.03118241 11.16157115 -8.51757812 9.65429688 C-7.55436608 8.69042526 -6.5914636 7.72624416 -5.62890625 6.76171875 C-4.76338135 5.89506592 -3.89785645 5.02841309 -3.00610352 4.13549805 C-0.9632226 2.16515239 -0.9632226 2.16515239 0 0 Z " fill="#204B80" transform="translate(471,633)"/>
<path d="M0 0 C10.89 0 21.78 0 33 0 C37.7718746 32.58215451 37.7718746 32.58215451 29.98974609 43.88964844 C22.16928557 53.82180395 12.22045701 62.59329506 2 70 C1.34 70 0.68 70 0 70 C0 46.9 0 23.8 0 0 Z " fill="#237598" transform="translate(440,457)"/>
<path d="M0 0 C4.23543031 3.63036883 8.11658868 7.00505281 11.953125 10.9609375 C12.819375 11.84394531 13.685625 12.72695313 14.578125 13.63671875 C16.3787146 15.48205985 18.17551768 17.33110231 19.96875 19.18359375 C21.26039063 20.49650391 21.26039063 20.49650391 22.578125 21.8359375 C23.35575195 22.63563965 24.13337891 23.4353418 24.93457031 24.25927734 C26.93213796 26.32222093 26.93213796 26.32222093 30 26 C30.33 25.34 30.66 24.68 31 24 C31.66 24 32.32 24 33 24 C33 34.23 33 44.46 33 55 C22.11 55 11.22 55 0 55 C0 36.85 0 18.7 0 0 Z " fill="#245588" transform="translate(509,655)"/>
<path d="M0 0 C4.65352471 2.04727138 7.97416488 4.66330575 11.0625 8.6875 C12.64150365 14.26664624 13.18949852 19.8227173 11.12109375 25.34765625 C8.45767411 30.0503939 5.21309463 33.36015276 0 35 C-5.61506234 36.06155407 -9.93469978 35.47955227 -14.875 32.5625 C-20.53414912 28.31563411 -22.48367875 23.27003459 -23.5625 16.4375 C-22.58255866 10.44896956 -19.47180016 5.92112592 -14.875 2 C-10.20559473 -0.97420814 -5.32697332 -1.05196532 0 0 Z " fill="#F58B38" transform="translate(461,403)"/>
<path d="M0 0 C5.03228132 1.49104632 7.91240131 4.46482557 10.859375 8.69140625 C13.24158495 13.51293392 12.85647709 18.23072409 11.296875 23.2734375 C9.20399152 28.04450238 6.67303562 30.51434275 2 33 C-2.86674752 34.62224917 -8.12686403 34.89988787 -13.0703125 33.3515625 C-17.92678756 30.89178942 -19.73324533 27.70787509 -22 23 C-22.33 22.34 -22.66 21.68 -23 21 C-23.42988145 15.51901146 -22.60038959 11.84210475 -20 7 C-13.7114715 -0.07459456 -9.1531457 -0.74148989 0 0 Z " fill="#F5983E" transform="translate(530,327)"/>
<path d="M0 0 C4.15697023 1.96319672 6.93380106 4.83384491 10 8.1875 C12.00901973 13.837868 11.75756481 19.72730557 9.875 25.375 C6.57424656 29.99605481 2.5419208 33.5131432 -3 35 C-8.56857122 35.73547167 -11.71273773 34.50070992 -16.203125 31.4375 C-19.18482698 29.05213842 -21.29938547 26.40122906 -23 23 C-23.5072965 17.44468752 -23.76260422 12.58169764 -21.3125 7.5 C-14.75015071 0.40556834 -9.57656869 -1.27048346 0 0 Z " fill="#F5963D" transform="translate(728,655)"/>
<path d="M0 0 C5.67458259 1.89152753 9.32628019 5.65256038 12 11 C12.49701136 16.36935226 12.94644032 22.05323301 10.5 27 C6.79312181 31.44825382 3.25310125 33.45265281 -2.4609375 34.4140625 C-7.89205464 34.73157396 -11.8742685 33.8072088 -16.3046875 30.60546875 C-20.70059521 26.44252389 -22.21277896 21.84381218 -22.5 15.875 C-22.29345269 11.23124661 -21.12246457 8.54441924 -18 5 C-12.02699628 -0.26193185 -7.81748614 -0.59793803 0 0 Z " fill="#F57732" transform="translate(334,658)"/>
<path d="M0 0 C1.41798401 1.43798828 1.41798401 1.43798828 3.07641602 3.4453125 C7.08771695 8.15942085 11.38777209 12.51472969 15.77734375 16.875 C16.58869278 17.68493408 17.40004181 18.49486816 18.23597717 19.3293457 C20.80079139 21.88861015 23.36907948 24.4443553 25.9375 27 C27.68838283 28.74586133 29.43903613 30.49195287 31.18945312 32.23828125 C35.45698616 36.49485198 39.72736866 40.74854716 44 45 C41 45 41 45 38.5 42.625 C37.675 41.75875 36.85 40.8925 36 40 C34.515 39.01 34.515 39.01 33 38 C33 37.34 33 36.68 33 36 C32.34 36 31.68 36 31 36 C29.71069336 34.68945313 29.71069336 34.68945313 28.15234375 32.78125 C22.96677695 26.68279758 17.24072203 21.1338413 11.5625 15.5 C10.4379167 14.38044368 9.31356595 13.26065371 8.18945312 12.140625 C5.46230656 9.42438466 2.73204093 6.71131708 0 4 C-0.99 4.33 -1.98 4.66 -3 5 C-3.34342449 6.33076989 -3.67619874 7.66431979 -4 9 C-7 11 -7 11 -9 11 C-10.71230248 12.61974559 -12.37163262 14.2958946 -14 16 C-19 21 -19 21 -20.66015625 22.625 C-23.58462231 25.50447428 -26.38196298 28.39991128 -29 31.5625 C-31.59059257 34.66283181 -34.43998188 37.20660791 -37.58203125 39.73828125 C-39.1369442 40.96479293 -39.1369442 40.96479293 -40 43 C-40.66 43 -41.32 43 -42 43 C-42.26167969 43.59941406 -42.52335938 44.19882812 -42.79296875 44.81640625 C-44.07220188 47.13061764 -45.26250442 48.29659445 -47.3125 49.9375 C-53.12531097 54.74792815 -53.12531097 54.74792815 -57.625 60.75 C-60.27256373 64.96649038 -64.36980301 67.72942905 -68.24609375 70.75390625 C-71.02021306 73.01648583 -73.51125617 75.42995419 -76 78 C-76.66 77.34 -77.32 76.68 -78 76 C-77.32047775 75.32113235 -76.64095551 74.64226471 -75.94084167 73.94282532 C-72.60380342 70.60572314 -69.27545546 67.25998979 -65.9465332 63.91479492 C-58.94242212 56.87807424 -51.93327164 49.84639541 -44.92121601 42.81759167 C-40.68173071 38.56762295 -36.44415305 34.31578607 -32.21069336 30.05981445 C-28.11146902 25.93893696 -24.00744662 21.82289575 -19.89998436 17.71022987 C-18.33406941 16.1406101 -16.76992025 14.56922672 -15.20754433 12.99608421 C-13.03137745 10.8054997 -10.84913449 8.6211523 -8.6652832 6.43823242 C-8.01642654 5.78218521 -7.36756989 5.126138 -6.6990509 4.45021057 C-2.22810918 0 -2.22810918 0 0 0 Z " fill="#24C6BC" transform="translate(667,323)"/>
<path d="M0 0 C0 0.66 0 1.32 0 2 C-1.43359375 3.41015625 -1.43359375 3.41015625 -3.4375 5.0625 C-9.32201705 10.07059961 -14.99475195 15.37836901 -19.8125 21.4375 C-22 24 -22 24 -23.7578125 24.796875 C-27.05142612 26.56417987 -29.46357908 29.17531276 -32.0625 31.8125 C-32.59166016 32.33392578 -33.12082031 32.85535156 -33.66601562 33.39257812 C-36.65349426 36.39505038 -38.91590308 39.27978961 -41 43 C-41.66 43.66 -42.32 44.32 -43 45 C-43.33 45.66 -43.66 46.32 -44 47 C-45.485 47.495 -45.485 47.495 -47 48 C-47 43.18179021 -46.29577414 42.79477215 -43.00854492 39.50683594 C-42.13731491 38.62622498 -41.2660849 37.74561401 -40.36845398 36.83831787 C-39.40622491 35.88656594 -38.44355234 34.93526222 -37.48046875 33.984375 C-36.50050699 33.0042583 -35.5212117 32.02347481 -34.54255676 31.04205322 C-32.48997524 28.98808716 -30.43059149 26.94127237 -28.3659668 24.89941406 C-25.71752409 22.27937479 -23.08495296 19.64404316 -20.457057 17.00341415 C-18.43724303 14.97665198 -16.41013705 12.95731617 -14.38064003 10.94025421 C-13.4069279 9.97106361 -12.43530751 8.99976688 -11.46581078 8.02635956 C-10.11109309 6.66873789 -8.74561022 5.32188395 -7.37963867 3.97558594 C-6.60464523 3.20599548 -5.82965179 2.43640503 -5.03117371 1.64349365 C-3 0 -3 0 0 0 Z " fill="#216B97" transform="translate(332,455)"/>
<path d="M0 0 C0 14.85 0 29.7 0 45 C-0.33 45 -0.66 45 -1 45 C-1.495 25.695 -1.495 25.695 -2 6 C-8.6401202 9.98407212 -13.08477439 15.13888905 -18 21 C-18.99 20.67 -19.98 20.34 -21 20 C-20.33484375 19.33613281 -19.6696875 18.67226563 -18.984375 17.98828125 C-16.73782892 15.74252732 -14.50072926 13.48760766 -12.265625 11.23046875 C-10.9271281 9.88276804 -9.58858557 8.53511264 -8.25 7.1875 C-7.56550781 6.49462891 -6.88101563 5.80175781 -6.17578125 5.08789062 C-5.52480469 4.43369141 -4.87382813 3.77949219 -4.203125 3.10546875 C-3.61176758 2.50887451 -3.02041016 1.91228027 -2.41113281 1.29760742 C-1 0 -1 0 0 0 Z " fill="#2A7798" transform="translate(611,614)"/>
<path d="M0 0 C0.33 0 0.66 0 1 0 C1.00808685 0.84080612 1.01617371 1.68161224 1.02450562 2.54789734 C1.10250282 10.47847234 1.18980903 18.40887876 1.28752708 26.33923626 C1.33743569 30.41614579 1.38376611 34.4930301 1.421875 38.57006836 C1.45879662 42.50592374 1.50517505 46.44156525 1.55806351 50.37723732 C1.57657097 51.8774623 1.59169237 53.37773307 1.60334396 54.87802696 C1.62026923 56.98230177 1.6493183 59.08609067 1.68115234 61.19018555 C1.69447601 62.38709518 1.70779968 63.58400482 1.7215271 64.81718445 C1.99493633 67.94212462 2.66753831 70.17975761 4 73 C2.68 73.99 1.36 74.98 0 76 C0 50.92 0 25.84 0 0 Z " fill="#18AEAA" transform="translate(579,312)"/>
<path d="M0 0 C0.33 0 0.66 0 1 0 C1 4.95 1 9.9 1 15 C0.67 15 0.34 15 0 15 C-0.495 10.05 -0.495 10.05 -1 5 C-2.46207343 6.26652863 -3.91952926 7.53838918 -5.375 8.8125 C-6.18710937 9.52019531 -6.99921875 10.22789062 -7.8359375 10.95703125 C-10.16183188 12.99981253 -10.16183188 12.99981253 -12 16 C-12.66 16 -13.32 16 -14 16 C-14.33 16.99 -14.66 17.98 -15 19 C-17.4375 20.75 -17.4375 20.75 -20 22 C-20.66 21.67 -21.32 21.34 -22 21 C-15.19126065 14.09784806 -8.42028943 7.25305289 -1 1 C-0.67 0.67 -0.34 0.34 0 0 Z " fill="#1692A0" transform="translate(679,546)"/>
<path d="M0 0 C6.41069287 5.27101414 12.18590512 11.09128152 18 17 C17.67 17.99 17.34 18.98 17 20 C10.58930713 14.72898586 4.81409488 8.90871848 -1 3 C-0.67 2.01 -0.34 1.02 0 0 Z " fill="#1F477E" transform="translate(411,626)"/>
<path d="M0 0 C-1.41773462 3.54433654 -2.67612238 4.33806119 -6 6 C-6.2990625 6.61359375 -6.598125 7.2271875 -6.90625 7.859375 C-8.13465246 10.26353409 -9.44122937 11.52272633 -11.5 13.25 C-12.1084375 13.77078125 -12.716875 14.2915625 -13.34375 14.828125 C-15 16 -15 16 -17 16 C-15.33255693 11.73300282 -12.2490961 8.91765082 -9.0625 5.75 C-8.25522461 4.91855469 -8.25522461 4.91855469 -7.43164062 4.0703125 C-3.36634083 0 -3.36634083 0 0 0 Z " fill="#297798" transform="translate(451,541)"/>
<path d="M0 0 C-1.48298314 3.57191639 -3.4524558 5.50306904 -6.375 8 C-12.53387783 13.3935202 -18.25916511 19.17038932 -24 25 C-24.66 24.67 -25.32 24.34 -26 24 C-22.62501264 20.57568181 -19.24358951 17.15790288 -15.85595703 13.74609375 C-14.70375906 12.58382014 -13.55336008 11.41976033 -12.40478516 10.25390625 C-10.75629586 8.58123721 -9.10150495 6.91503765 -7.4453125 5.25 C-6.6733403 4.46254395 -6.6733403 4.46254395 -5.88577271 3.65917969 C-2.22774341 0 -2.22774341 0 0 0 Z " fill="#10A6AA" transform="translate(591,400)"/>
<path d="M0 0 C0.33 0 0.66 0 1 0 C1.19335938 0.92683594 1.38671875 1.85367187 1.5859375 2.80859375 C1.84632813 4.00613281 2.10671875 5.20367187 2.375 6.4375 C2.63023437 7.63246094 2.88546875 8.82742188 3.1484375 10.05859375 C3.42945313 11.02925781 3.71046875 11.99992187 4 13 C4.66 13.33 5.32 13.66 6 14 C6.625 17.0625 6.625 17.0625 7 20 C8.32 20.33 9.64 20.66 11 21 C10.67 21.99 10.34 22.98 10 24 C6.13473227 22.5412529 5.02968041 20.75145854 3.3125 17.0625 C2.89613281 16.18722656 2.47976563 15.31195313 2.05078125 14.41015625 C0.49887905 10.85058875 -0.11833247 8.16494071 -0.0625 4.3125 C-0.05347656 3.50425781 -0.04445313 2.69601562 -0.03515625 1.86328125 C-0.02355469 1.24839844 -0.01195312 0.63351562 0 0 Z " fill="#20407B" transform="translate(335,392)"/>
<path d="M0 0 C0 5.21066437 -4.50004813 8.41777079 -8 12 C-9.94567165 13.75245252 -11.95273845 15.36219076 -14 17 C-14.886875 17.928125 -15.77375 18.85625 -16.6875 19.8125 C-19 22 -19 22 -22 22 C-14.74 14.74 -7.48 7.48 0 0 Z " fill="#1793A3" transform="translate(540,449)"/>
<path d="M0 0 C1.32 0.33 2.64 0.66 4 1 C-0.62 5.62 -5.24 10.24 -10 15 C-10.66 14.01 -11.32 13.02 -12 12 C-7.375 7.125 -7.375 7.125 -4 6 C-4 5.34 -4 4.68 -4 4 C-3.01 4 -2.02 4 -1 4 C-0.67 2.68 -0.34 1.36 0 0 Z " fill="#2EB6B4" transform="translate(659,421)"/>
<path d="M0 0 C0 3 0 3 -2.23046875 5.5234375 C-3.20865735 6.48166307 -4.19470881 7.43191209 -5.1875 8.375 C-5.91163086 9.07882812 -5.91163086 9.07882812 -6.65039062 9.796875 C-7.62026138 10.73940712 -8.59407252 11.67790148 -9.57177734 12.61230469 C-10.9505463 13.95194961 -12.2830705 15.33868941 -13.61328125 16.7265625 C-15.76153066 18.77284917 -17.36181854 19.77713103 -20 21 C-15.76183463 15.93376232 -11.32591037 11.19961931 -6.625 6.5625 C-5.98433594 5.92634766 -5.34367188 5.29019531 -4.68359375 4.63476562 C-3.12469121 3.08749668 -1.56348584 1.54263508 0 0 Z M-21 21 C-20.67 21.66 -20.34 22.32 -20 23 C-20.66 22.67 -21.32 22.34 -22 22 C-21.67 21.67 -21.34 21.34 -21 21 Z " fill="#129BA5" transform="translate(563,426)"/>
<path d="M0 0 C-0.1875 1.8125 -0.1875 1.8125 -1 4 C-2.63790712 5.04644066 -4.31008021 6.0398183 -6 7 C-10.00864638 10.70028897 -13.499775 14.82619218 -17 19 C-17.99 18.67 -18.98 18.34 -20 18 C-19.31292969 17.31550781 -18.62585938 16.63101563 -17.91796875 15.92578125 C-15.84403797 13.85331253 -13.78786623 11.76450458 -11.73828125 9.66796875 C-10.59641694 8.50775071 -9.45448901 7.34759529 -8.3125 6.1875 C-7.73177734 5.59001953 -7.15105469 4.99253906 -6.55273438 4.37695312 C-2.22580357 0 -2.22580357 0 0 0 Z " fill="#1B7399" transform="translate(610,616)"/>
<path d="M0 0 C0.66 0.33 1.32 0.66 2 1 C1.45730469 1.60328125 0.91460937 2.2065625 0.35546875 2.828125 C-0.35996094 3.62734375 -1.07539063 4.4265625 -1.8125 5.25 C-2.52019531 6.03890625 -3.22789062 6.8278125 -3.95703125 7.640625 C-6.25753776 10.2974241 -8.42462098 12.84924197 -10 16 C-10.99 16.33 -11.98 16.66 -13 17 C-13 13 -13 13 -11.80664062 11.35253906 C-11.26201172 10.82885742 -10.71738281 10.30517578 -10.15625 9.765625 C-9.56972656 9.19199219 -8.98320312 8.61835938 -8.37890625 8.02734375 C-7.75886719 7.44082031 -7.13882812 6.85429687 -6.5 6.25 C-5.87996094 5.64800781 -5.25992187 5.04601562 -4.62109375 4.42578125 C-3.08955179 2.94136366 -1.54590226 1.46945655 0 0 Z " fill="#1C5E8E" transform="translate(298,486)"/>
<path d="M0 0 C0.33 0.99 0.66 1.98 1 3 C-2.21893765 8.56243201 -7.81960005 12.41053506 -13 16 C-13.66 15.67 -14.32 15.34 -15 15 C-10.05 10.05 -5.1 5.1 0 0 Z " fill="#22C5BA" transform="translate(620,368)"/>
<path d="M0 0 C0.99 0.33 1.98 0.66 3 1 C0.50727561 4.20493136 -1.97681337 7.27913203 -5 10 C-5.66 10 -6.32 10 -7 10 C-7.66 11.32 -8.32 12.64 -9 14 C-9.66 14 -10.32 14 -11 14 C-10.52590352 9.68269587 -7.96603297 7.66352539 -4.9375 4.75 C-4.01839844 3.85796875 -3.09929688 2.9659375 -2.15234375 2.046875 C-1.44207031 1.37140625 -0.73179687 0.6959375 0 0 Z " fill="#19BAB2" transform="translate(632,356)"/>
<path d="M0 0 C0.99 0.33 1.98 0.66 3 1 C2 4 2 4 0 5 C-0.78015621 6.82510997 -1.47795406 8.68606676 -2.125 10.5625 C-2.47820312 11.57441406 -2.83140625 12.58632813 -3.1953125 13.62890625 C-3.46085937 14.41136719 -3.72640625 15.19382812 -4 16 C-4.33 16 -4.66 16 -5 16 C-5.50212051 9.97455391 -4.12689062 6.14869539 -1 1 C-0.67 0.67 -0.34 0.34 0 0 Z " fill="#256088" transform="translate(341,374)"/>
<path d="M0 0 C1.86865219 3.73730439 2.24223408 4.77108082 2.16015625 8.66015625 C2.14919922 9.53607422 2.13824219 10.41199219 2.12695312 11.31445312 C2.09504883 12.67473633 2.09504883 12.67473633 2.0625 14.0625 C2.02804195 15.86580488 1.99790731 17.66919895 1.97265625 19.47265625 C1.95468994 20.26937744 1.93672363 21.06609863 1.91821289 21.88696289 C1.90893434 24.19230125 1.90893434 24.19230125 3 27 C2.01 27.66 1.02 28.32 0 29 C0 19.43 0 9.86 0 0 Z " fill="#258D9E" transform="translate(509,429)"/>
<path d="M0 0 C0.33 0.99 0.66 1.98 1 3 C0.01 4.485 0.01 4.485 -1 6 C-1.66 6 -2.32 6 -3 6 C-3.33 6.99 -3.66 7.98 -4 9 C-6.4375 10.75 -6.4375 10.75 -9 12 C-9.66 11.67 -10.32 11.34 -11 11 C-7.37 7.37 -3.74 3.74 0 0 Z " fill="#35A8B1" transform="translate(668,556)"/>
<path d="M0 0 C0.66 0 1.32 0 2 0 C2.12117188 0.72445313 2.24234375 1.44890625 2.3671875 2.1953125 C3.24939579 7.28497573 4.16442347 12.14883346 6 17 C2.49576768 13.96299866 1.06234473 11.51496509 0 7 C-0.07522969 4.66787973 -0.09325876 2.3314689 0 0 Z " fill="#F47F47" transform="translate(438,416)"/>
<path d="M0 0 C0 4.92319379 -3.42948067 7.41651432 -6.75 10.8125 C-7.4925 11.534375 -8.235 12.25625 -9 13 C-9.33 12.01 -9.66 11.02 -10 10 C-6.7 6.7 -3.4 3.4 0 0 Z " fill="#185185" transform="translate(460,645)"/>
<path d="M0 0 C6.57142857 5.14285714 6.57142857 5.14285714 8 9 C5 9 5 9 3.39453125 7.6875 C2.87246094 7.130625 2.35039063 6.57375 1.8125 6 C1.28269531 5.443125 0.75289062 4.88625 0.20703125 4.3125 C-0.19128906 3.879375 -0.58960938 3.44625 -1 3 C-0.67 2.01 -0.34 1.02 0 0 Z " fill="#297997" transform="translate(519,545)"/>
<path d="M0 0 C0.66 0.33 1.32 0.66 2 1 C0.61811547 4.21043882 -0.92421903 6.04936365 -3.625 8.25 C-4.25664063 8.77078125 -4.88828125 9.2915625 -5.5390625 9.828125 C-6.02117188 10.21484375 -6.50328125 10.6015625 -7 11 C-7 9.68 -7 8.36 -7 7 C-6.01 7 -5.02 7 -4 7 C-3.896875 6.360625 -3.79375 5.72125 -3.6875 5.0625 C-3.460625 4.381875 -3.23375 3.70125 -3 3 C-2.01 2.67 -1.02 2.34 0 2 C0 1.34 0 0.68 0 0 Z " fill="#3DCBC0" transform="translate(711,369)"/>
<path d="M0 0 C0.66 0 1.32 0 2 0 C4.1103435 4.27884606 4.24128739 8.13864142 4.125 12.8125 C4.11597656 13.50537109 4.10695313 14.19824219 4.09765625 14.91210938 C4.07426157 16.60822395 4.03839641 18.30415871 4 20 C3.67 20 3.34 20 3 20 C2.95101563 19.2265625 2.90203125 18.453125 2.8515625 17.65625 C2.41252377 11.53998633 1.69992464 5.89307209 0 0 Z " fill="#3FBAB3" transform="translate(395,380)"/>
<path d="M0 0 C0.99 0.33 1.98 0.66 3 1 C2.07347299 2.17539996 1.13336613 3.34010577 0.1875 4.5 C-0.33457031 5.1496875 -0.85664063 5.799375 -1.39453125 6.46875 C-3 8 -3 8 -6 8 C-6.33 7.01 -6.66 6.02 -7 5 C-6.030625 4.360625 -5.06125 3.72125 -4.0625 3.0625 C-1.23963731 1.3034741 -1.23963731 1.3034741 0 0 Z " fill="#2A4F82" transform="translate(437,643)"/>
<path d="M0 0 C0.99 0.66 1.98 1.32 3 2 C0.69 4.31 -1.62 6.62 -4 9 C-4.33 8.01 -4.66 7.02 -5 6 C-3.59554165 3.7363436 -1.8032087 1.9791315 0 0 Z " fill="#2AA2AD" transform="translate(609,471)"/>
<path d="M0 0 C2.31 1.98 4.62 3.96 7 6 C6.67 6.66 6.34 7.32 6 8 C3.11562221 6.70700306 1.12780579 5.34058637 -1 3 C-0.67 2.01 -0.34 1.02 0 0 Z " fill="#28548B" transform="translate(353,568)"/>
<path d="M0 0 C0.66 0.66 1.32 1.32 2 2 C-0.31 4.31 -2.62 6.62 -5 9 C-5.66 8.34 -6.32 7.68 -7 7 C-2.25 1.125 -2.25 1.125 0 0 Z " fill="#38ACB4" transform="translate(621,460)"/>
<path d="M0 0 C0.33 0 0.66 0 1 0 C1.55573751 2.12136362 2.09421768 4.24725521 2.625 6.375 C2.92664063 7.55835938 3.22828125 8.74171875 3.5390625 9.9609375 C3.69117188 10.96382813 3.84328125 11.96671875 4 13 C3.34 13.66 2.68 14.32 2 15 C-0.10428384 9.87080814 -0.21755666 5.4389165 0 0 Z " fill="#284A7A" transform="translate(335,392)"/>
<path d="M0 0 C3.7952131 1.49097658 5.61042731 3.75700849 8 7 C7.01 7.66 6.02 8.32 5 9 C4.9071875 8.1028125 4.9071875 8.1028125 4.8125 7.1875 C3.6763243 4.12856542 1.82669858 3.44958901 -1 2 C-0.67 1.34 -0.34 0.68 0 0 Z " fill="#30678C" transform="translate(461,608)"/>
<path d="M0 0 C1.32 0.33 2.64 0.66 4 1 C1.69 3.31 -0.62 5.62 -3 8 C-3.66 7.34 -4.32 6.68 -5 6 C-4.67 5.34 -4.34 4.68 -4 4 C-3.01 4 -2.02 4 -1 4 C-0.67 2.68 -0.34 1.36 0 0 Z " fill="#3BBCBB" transform="translate(659,421)"/>
<path d="M0 0 C0.99 0.66 1.98 1.32 3 2 C-0.465 4.97 -0.465 4.97 -4 8 C-4.33 7.01 -4.66 6.02 -5 5 C-3.35 3.35 -1.7 1.7 0 0 Z " fill="#31B1B3" transform="translate(636,444)"/>
<path d="M0 0 C0.45375 0.639375 0.9075 1.27875 1.375 1.9375 C2.83921726 4.09702406 2.83921726 4.09702406 5 5 C5.72159424 6.64363134 6.39351421 8.31050386 7 10 C4.13904359 8.7175023 1.88634082 7.54656011 0 5 C-0.1875 2.3125 -0.1875 2.3125 0 0 Z " fill="#2A558C" transform="translate(402,616)"/>
<path d="M0 0 C0.66 0.33 1.32 0.66 2 1 C0.95125002 3.62187494 0.35068687 4.79371361 -2.125 6.25 C-2.74375 6.4975 -3.3625 6.745 -4 7 C-3.43628586 3.73045798 -2.50037734 2.17424117 0 0 Z " fill="#2D6D90" transform="translate(437,565)"/>
<path d="M0 0 C0.33 0.99 0.66 1.98 1 3 C-0.40445835 5.2636564 -2.1967913 7.0208685 -4 9 C-4.99 8.34 -5.98 7.68 -7 7 C-4.66666667 4.66666667 -2.33333333 2.33333333 0 0 Z " fill="#31BAB9" transform="translate(596,392)"/>
<path d="M0 0 C0.33 0 0.66 0 1 0 C2.07421875 5.95703125 2.07421875 5.95703125 2 8 C0.51953125 9.76171875 0.51953125 9.76171875 -1 11 C-1.02688151 9.35425434 -1.04634123 7.70838587 -1.0625 6.0625 C-1.07410156 5.14597656 -1.08570313 4.22945312 -1.09765625 3.28515625 C-1 1 -1 1 0 0 Z " fill="#1F7792" transform="translate(650,647)"/>
<path d="M0 0 C0.99 0.33 1.98 0.66 3 1 C2.0479279 2.00596297 1.08812654 3.00461563 0.125 4 C-0.40867187 4.556875 -0.94234375 5.11375 -1.4921875 5.6875 C-3 7 -3 7 -5 7 C-3.70700306 4.11562221 -2.34058637 2.12780579 0 0 Z " fill="#F4793C" transform="translate(466,560)"/>
<path d="M0 0 C-1.28519565 2.86697492 -2.57129254 4.97607712 -5 7 C-5.66 7 -6.32 7 -7 7 C-7 6.01 -7 5.02 -7 4 C-2.65714286 0 -2.65714286 0 0 0 Z " fill="#1D7897" transform="translate(472,521)"/>
<path d="M0 0 C0.33 0 0.66 0 1 0 C1.3636198 4.24223102 0.5393228 6.58168085 -2 10 C-2.66 10 -3.32 10 -4 10 C-3.42415568 7.61435923 -2.77772405 5.33317216 -2 3 C-1.34 3 -0.68 3 0 3 C0 2.01 0 1.02 0 0 Z " fill="#39929E" transform="translate(397,400)"/>
<path d="M0 0 C0.33 0.99 0.66 1.98 1 3 C-1.97 5.475 -1.97 5.475 -5 8 C-5.66 7.67 -6.32 7.34 -7 7 C-4.69 4.69 -2.38 2.38 0 0 Z " fill="#2FCABF" transform="translate(612,376)"/>
<path d="M0 0 C1.65 1.65 3.3 3.3 5 5 C4.34 5.66 3.68 6.32 3 7 C1.68 5.68 0.36 4.36 -1 3 C-0.67 2.01 -0.34 1.02 0 0 Z " fill="#277F97" transform="translate(490,516)"/>
<path d="M0 0 C0.99 0.33 1.98 0.66 3 1 C-0.465 3.97 -0.465 3.97 -4 7 C-4 6.01 -4 5.02 -4 4 C-2.68 3.34 -1.36 2.68 0 2 C0 1.34 0 0.68 0 0 Z " fill="#327B9F" transform="translate(459,506)"/>
<path d="M0 0 C2.375 0.25 2.375 0.25 5 1 C6.25 2.9375 6.25 2.9375 7 5 C7.33 5.66 7.66 6.32 8 7 C5.05043472 5.63055898 2.47531189 4.12169591 0 2 C0 1.34 0 0.68 0 0 Z " fill="#1B588C" transform="translate(287,504)"/>
<path d="M0 0 C-1.39332574 3.36720387 -2.9789286 4.9859524 -6 7 C-6 4 -6 4 -4.125 1.8125 C-2 0 -2 0 0 0 Z " fill="#3E9AAD" transform="translate(530,437)"/>
<path d="M0 0 C3 1 3 1 6 3 C5.67 3.99 5.34 4.98 5 6 C3.2925002 4.71937515 1.62626404 3.38232443 0 2 C0 1.34 0 0.68 0 0 Z " fill="#2E839C" transform="translate(506,534)"/>
<path d="M0 0 C1.32 0.33 2.64 0.66 4 1 C0.535 3.97 0.535 3.97 -3 7 C-2.67 5.68 -2.34 4.36 -2 3 C-1.34 3 -0.68 3 0 3 C0 2.01 0 1.02 0 0 Z " fill="#48CBC4" transform="translate(693,387)"/>
</svg>
