<?xml version="1.0" encoding="UTF-8"?>
<svg version="1.1" xmlns="http://www.w3.org/2000/svg" width="500" height="500">
<path d="M0 0 C2.35539693 1.97527523 4.68097428 3.98220855 7 6 C7.99 6.845625 8.98 7.69125 10 8.5625 C12 11 12 11 11.99804688 13.25708008 C10.58522096 17.13993213 7.95071156 19.52399462 5.03125 22.32421875 C4.13799011 23.20543144 4.13799011 23.20543144 3.22668457 24.10444641 C1.32702359 25.97515825 -0.58577842 27.83170041 -2.5 29.6875 C-4.41154657 31.55655175 -6.32026296 33.42841014 -8.22668457 35.3026886 C-9.41282751 36.46711741 -10.60243367 37.62803081 -11.79577637 38.78507996 C-14.77280973 41.60332407 -14.77280973 41.60332407 -17 45 C-17.66 45 -18.32 45 -19 45 C-19 45.66 -19 46.32 -19 47 C-19.66 47 -20.32 47 -21 47 C-21 47.66 -21 48.32 -21 49 C-21.66 49 -22.32 49 -23 49 C-23 49.66 -23 50.32 -23 51 C-23.66 51 -24.32 51 -25 51 C-25 51.66 -25 52.32 -25 53 C-25.66 53 -26.32 53 -27 53 C-27 53.66 -27 54.32 -27 55 C-27.66 55 -28.32 55 -29 55 C-29 55.66 -29 56.32 -29 57 C-29.66 57 -30.32 57 -31 57 C-31 57.66 -31 58.32 -31 59 C-31.99 59.33 -32.98 59.66 -34 60 C-32.68 60.99 -31.36 61.98 -30 63 C-28.97060303 61.95489258 -28.97060303 61.95489258 -27.92041016 60.88867188 C-25.37972873 58.31186648 -22.83249622 55.7416235 -20.28320312 53.17333984 C-19.17950702 52.05956877 -18.07761027 50.94401168 -16.97753906 49.82666016 C-15.39854926 48.22348763 -13.81325886 46.62679089 -12.2265625 45.03125 C-11.73378815 44.52815308 -11.24101379 44.02505615 -10.73330688 43.50671387 C-9.526244 42.29925487 -8.26721404 41.14417071 -7 40 C-6.34 40 -5.68 40 -5 40 C-4.59467041 39.11115112 -4.59467041 39.11115112 -4.18115234 38.2043457 C-2.2711777 34.63982296 0.54785928 32.04266304 3.375 29.1875 C3.9525 28.57712891 4.53 27.96675781 5.125 27.33789062 C5.68960938 26.76619141 6.25421875 26.19449219 6.8359375 25.60546875 C7.34688965 25.08106201 7.8578418 24.55665527 8.38427734 24.01635742 C10 23 10 23 12.06396484 23.22167969 C14.75118631 24.30199016 16.2620398 25.97514179 18.25 28.0625 C18.95640625 28.79597656 19.6628125 29.52945313 20.390625 30.28515625 C21.18726563 31.13400391 21.18726563 31.13400391 22 32 C20.68515589 34.90782833 19.26624689 37.00641558 17 39.25 C16.2265625 40.03117187 16.2265625 40.03117187 15.4375 40.828125 C14 42 14 42 12 42 C11.66669678 42.82226074 11.66669678 42.82226074 11.32666016 43.66113281 C9.59300021 46.71753 7.26246275 48.98498952 4.7734375 51.421875 C4.01191879 52.17914886 4.01191879 52.17914886 3.23501587 52.95172119 C1.61966158 54.55592096 -0.00252209 56.15300856 -1.625 57.75 C-2.72441698 58.83938107 -3.82338059 59.9292199 -4.921875 61.01953125 C-7.6093602 63.68501885 -10.30299021 66.34415143 -13 69 C-12.67 69.33 -12.34 69.66 -12 70 C-11.91251793 71.92667507 -11.89302666 73.85651861 -11.90234375 75.78515625 C-11.90717773 77.53989258 -11.90717773 77.53989258 -11.91210938 79.33007812 C-11.92467773 81.17762695 -11.92467773 81.17762695 -11.9375 83.0625 C-11.94201172 84.29806641 -11.94652344 85.53363281 -11.95117188 86.80664062 C-11.96300392 89.87114117 -11.97948827 92.93554721 -12 96 C-14.97 96 -17.94 96 -21 96 C-22.53375735 92.9324853 -21.87407723 89.83140797 -21.625 86.5 C-21.58117187 85.81035156 -21.53734375 85.12070312 -21.4921875 84.41015625 C-21.13089923 79.26179847 -21.13089923 79.26179847 -20 77 C-19.34 77 -18.68 77 -18 77 C-18.33 76.34 -18.66 75.68 -19 75 C-19.66 75.99 -20.32 76.98 -21 78 C-21.66 78 -22.32 78 -23 78 C-23 78.66 -23 79.32 -23 80 C-28.11111111 84.55555556 -28.11111111 84.55555556 -31 86 C-30.01 86.495 -30.01 86.495 -29 87 C-29 89.97 -29 92.94 -29 96 C-32.3 96 -35.6 96 -39 96 C-39 91.38 -39 86.76 -39 82 C-37.02 81.01 -37.02 81.01 -35 80 C-35.66 80 -36.32 80 -37 80 C-37 79.34 -37 78.68 -37 78 C-37.66 78 -38.32 78 -39 78 C-39 77.34 -39 76.68 -39 76 C-39.66 76 -40.32 76 -41 76 C-41 75.34 -41 74.68 -41 74 C-41.66 74 -42.32 74 -43 74 C-44.625 72.5 -44.625 72.5 -46 71 C-46.12375 71.598125 -46.2475 72.19625 -46.375 72.8125 C-47 75 -47 75 -49 78 C-47.02 77.505 -47.02 77.505 -45 77 C-45 83.27 -45 89.54 -45 96 C-47.97 96 -50.94 96 -54 96 C-54.91933305 92.32266781 -54.99485581 90.40100462 -54.5625 86.75 C-54.46066406 85.85796875 -54.35882813 84.9659375 -54.25390625 84.046875 C-54.17011719 83.37140625 -54.08632812 82.6959375 -54 82 C-54.8971875 81.814375 -54.8971875 81.814375 -55.8125 81.625 C-58 81 -58 81 -61 79 C-61.33 84.61 -61.66 90.22 -62 96 C-65.3 96 -68.6 96 -72 96 C-72 87.75 -72 79.5 -72 71 C-70.35 71.33 -68.7 71.66 -67 72 C-68.14384155 70.89543457 -68.14384155 70.89543457 -69.31079102 69.76855469 C-72.1317821 67.03793931 -74.9362941 64.29091004 -77.73608398 61.53857422 C-78.95103716 60.34879385 -80.17043598 59.16353583 -81.39428711 57.98291016 C-83.151006 56.28671867 -84.8911852 54.57499725 -86.62890625 52.859375 C-87.18091202 52.33317566 -87.73291779 51.80697632 -88.301651 51.26483154 C-89.81860352 49.74902344 -89.81860352 49.74902344 -92 47 C-91.96798577 43.71417542 -90.94584539 42.93890249 -88.71484375 40.421875 C-87.79832031 39.54015625 -86.88179688 38.6584375 -85.9375 37.75 C-85.01839844 36.85796875 -84.09929687 35.9659375 -83.15234375 35.046875 C-82.44207031 34.37140625 -81.73179688 33.6959375 -81 33 C-77.36120325 34.53652003 -75.01785354 36.72420759 -72.234375 39.5 C-71.34492187 40.386875 -70.45546875 41.27375 -69.5390625 42.1875 C-68.15847656 43.5796875 -68.15847656 43.5796875 -66.75 45 C-65.34621094 46.3921875 -65.34621094 46.3921875 -63.9140625 47.8125 C-63.02976563 48.699375 -62.14546875 49.58625 -61.234375 50.5 C-60.42194336 51.3146875 -59.60951172 52.129375 -58.77246094 52.96875 C-57 55 -57 55 -57 57 C-50.35076848 51.39457775 -44.19651056 45.3470158 -38.0625 39.1875 C-37.09587098 38.22444087 -36.1290751 37.26154919 -35.16210938 36.29882812 C-34.25396484 35.38939453 -33.34582031 34.47996094 -32.41015625 33.54296875 C-31.58652588 32.71821045 -30.76289551 31.89345215 -29.91430664 31.04370117 C-27.9539448 29.14544066 -27.9539448 29.14544066 -27 27 C-26.34 27 -25.68 27 -25 27 C-24.73195557 26.40525879 -24.46391113 25.81051758 -24.18774414 25.19775391 C-22.99020301 22.98187204 -21.79681017 21.57920472 -19.99609375 19.8359375 C-19.42052734 19.27132812 -18.84496094 18.70671875 -18.25195312 18.125 C-17.65318359 17.5475 -17.05441406 16.97 -16.4375 16.375 C-15.24650616 15.21839849 -14.05759995 14.05964222 -12.87109375 12.8984375 C-12.34443115 12.38974121 -11.81776855 11.88104492 -11.27514648 11.35693359 C-9.8835783 10.00599895 -9.8835783 10.00599895 -9 8 C-8.34 8 -7.68 8 -7 8 C-7 7.34 -7 6.68 -7 6 C-6.34 6 -5.68 6 -5 6 C-5 5.34 -5 4.68 -5 4 C-4.34 4 -3.68 4 -3 4 C-3 3.34 -3 2.68 -3 2 C-2.01 1.34 -1.02 0.68 0 0 Z M-45.625 53.5 C-46.40875 54.325 -47.1925 55.15 -48 56 C-47.67 56.66 -47.34 57.32 -47 58 C-44.95880212 56.38405168 -42.95927063 54.7143618 -41 53 C-41 52.34 -41 51.68 -41 51 C-43.36278736 50.77011494 -43.36278736 50.77011494 -45.625 53.5 Z M-36 57 C-35 59 -35 59 -35 59 Z M-53 62 C-52 64 -52 64 -52 64 Z M-34 82 C-33 84 -33 84 -33 84 Z " fill="#2CBAB5" transform="translate(197,195)"/>
<path d="M0 0 C2.68722147 1.08031047 4.19807495 2.7534621 6.18603516 4.84082031 C6.89244141 5.57429687 7.59884766 6.30777344 8.32666016 7.06347656 C9.12330078 7.91232422 9.12330078 7.91232422 9.93603516 8.77832031 C8.62119104 11.68614864 7.20228204 13.7847359 4.93603516 16.02832031 C4.42041016 16.54910156 3.90478516 17.06988281 3.37353516 17.60644531 C1.93603516 18.77832031 1.93603516 18.77832031 -0.06396484 18.77832031 C-0.39726807 19.60058105 -0.39726807 19.60058105 -0.73730469 20.43945312 C-2.47096464 23.49585031 -4.8015021 25.76330983 -7.29052734 28.20019531 C-7.79820648 28.70504456 -8.30588562 29.2098938 -8.82894897 29.7300415 C-10.44430326 31.33424128 -12.06648694 32.93132887 -13.68896484 34.52832031 C-14.78838182 35.61770139 -15.88734543 36.70754021 -16.98583984 37.79785156 C-19.67332504 40.46333916 -22.36695506 43.12247175 -25.06396484 45.77832031 C-24.73396484 46.10832031 -24.40396484 46.43832031 -24.06396484 46.77832031 C-23.97648277 48.70499539 -23.9569915 50.63483892 -23.96630859 52.56347656 C-23.96953125 53.73330078 -23.97275391 54.903125 -23.97607422 56.10839844 C-23.98864258 57.95594727 -23.98864258 57.95594727 -24.00146484 59.84082031 C-24.00597656 61.07638672 -24.01048828 62.31195313 -24.01513672 63.58496094 C-24.02696877 66.64946148 -24.04345311 69.71386753 -24.06396484 72.77832031 C-27.03396484 72.77832031 -30.00396484 72.77832031 -33.06396484 72.77832031 C-34.59772219 69.71080562 -33.93804208 66.60972828 -33.68896484 63.27832031 C-33.64513672 62.58867187 -33.60130859 61.89902344 -33.55615234 61.18847656 C-33.19486408 56.04011878 -33.19486408 56.04011878 -32.06396484 53.77832031 C-31.40396484 53.77832031 -30.74396484 53.77832031 -30.06396484 53.77832031 C-30.39396484 53.11832031 -30.72396484 52.45832031 -31.06396484 51.77832031 C-31.72396484 52.76832031 -32.38396484 53.75832031 -33.06396484 54.77832031 C-33.72396484 54.77832031 -34.38396484 54.77832031 -35.06396484 54.77832031 C-35.06396484 55.43832031 -35.06396484 56.09832031 -35.06396484 56.77832031 C-40.17507595 61.33387587 -40.17507595 61.33387587 -43.06396484 62.77832031 C-42.40396484 63.10832031 -41.74396484 63.43832031 -41.06396484 63.77832031 C-41.06396484 66.74832031 -41.06396484 69.71832031 -41.06396484 72.77832031 C-44.36396484 72.77832031 -47.66396484 72.77832031 -51.06396484 72.77832031 C-51.06396484 68.15832031 -51.06396484 63.53832031 -51.06396484 58.77832031 C-49.74396484 58.11832031 -48.42396484 57.45832031 -47.06396484 56.77832031 C-47.72396484 56.77832031 -48.38396484 56.77832031 -49.06396484 56.77832031 C-49.06396484 56.11832031 -49.06396484 55.45832031 -49.06396484 54.77832031 C-49.72396484 54.77832031 -50.38396484 54.77832031 -51.06396484 54.77832031 C-51.06396484 54.11832031 -51.06396484 53.45832031 -51.06396484 52.77832031 C-51.72396484 52.77832031 -52.38396484 52.77832031 -53.06396484 52.77832031 C-53.06396484 52.11832031 -53.06396484 51.45832031 -53.06396484 50.77832031 C-53.72396484 50.77832031 -54.38396484 50.77832031 -55.06396484 50.77832031 C-56.68896484 49.27832031 -56.68896484 49.27832031 -58.06396484 47.77832031 C-58.39396484 48.76832031 -58.72396484 49.75832031 -59.06396484 50.77832031 C-63.06396484 45.02832031 -63.06396484 45.02832031 -63.06396484 42.77832031 C-64.05396484 42.77832031 -65.04396484 42.77832031 -66.06396484 42.77832031 C-66.39396484 41.45832031 -66.72396484 40.13832031 -67.06396484 38.77832031 C-66.07396484 38.77832031 -65.08396484 38.77832031 -64.06396484 38.77832031 C-63.73396484 37.78832031 -63.40396484 36.79832031 -63.06396484 35.77832031 C-62.40396484 35.77832031 -61.74396484 35.77832031 -61.06396484 35.77832031 C-60.73396484 34.78832031 -60.40396484 33.79832031 -60.06396484 32.77832031 C-59.40396484 32.77832031 -58.74396484 32.77832031 -58.06396484 32.77832031 C-57.56896484 32.28332031 -57.07396484 31.78832031 -56.56396484 31.27832031 C-56.06896484 30.78332031 -55.57396484 30.28832031 -55.06396484 29.77832031 C-54.40396484 29.77832031 -53.74396484 29.77832031 -53.06396484 29.77832031 C-52.73396484 29.11832031 -52.40396484 28.45832031 -52.06396484 27.77832031 C-49.73077101 29.87819476 -48.21590129 31.38898316 -47.06396484 34.34082031 C-45.88505273 37.21441858 -44.56754345 38.03691987 -42.06396484 39.77832031 C-41.03456787 38.73321289 -41.03456787 38.73321289 -39.984375 37.66699219 C-37.44369357 35.09018679 -34.89646106 32.51994381 -32.34716797 29.95166016 C-31.24347186 28.83788909 -30.14157512 27.72233199 -29.04150391 26.60498047 C-27.4625141 25.00180794 -25.87722371 23.40511121 -24.29052734 21.80957031 C-23.79775299 21.30647339 -23.30497864 20.80337646 -22.79727173 20.28503418 C-21.59020884 19.07757518 -20.33117889 17.92249102 -19.06396484 16.77832031 C-18.40396484 16.77832031 -17.74396484 16.77832031 -17.06396484 16.77832031 C-16.79374512 16.18575439 -16.52352539 15.59318848 -16.24511719 14.98266602 C-14.33514255 11.41814327 -11.51610556 8.82098335 -8.68896484 5.96582031 C-8.11146484 5.35544922 -7.53396484 4.74507812 -6.93896484 4.11621094 C-6.37435547 3.54451172 -5.80974609 2.9728125 -5.22802734 2.38378906 C-4.7170752 1.85938232 -4.20612305 1.33497559 -3.6796875 0.79467773 C-2.06396484 -0.22167969 -2.06396484 -0.22167969 0 0 Z M-46.06396484 58.77832031 C-45.06396484 60.77832031 -45.06396484 60.77832031 -45.06396484 60.77832031 Z " fill="#ED8033" transform="translate(209.06396484375,218.2216796875)"/>
<path d="M0 0 C4.92010084 2.20974864 8.30008136 5.77771782 12.125 9.5 C13.21748047 10.50546875 13.21748047 10.50546875 14.33203125 11.53125 C19.52699433 16.60138032 21.38488587 20.76820231 22 28 C22.66 27.67 23.32 27.34 24 27 C24 28.65 24 30.3 24 32 C26.31 32.33 28.62 32.66 31 33 C31.12375 33.61875 31.2475 34.2375 31.375 34.875 C31.87197356 37.19120832 31.87197356 37.19120832 34 39 C33.64644564 41.26274788 33.02455574 42.95088852 32 45 C33.98 44.505 33.98 44.505 36 44 C36 50.27 36 56.54 36 63 C33.03 63 30.06 63 27 63 C26.08066695 59.32266781 26.00514419 57.40100462 26.4375 53.75 C26.53933594 52.85796875 26.64117187 51.9659375 26.74609375 51.046875 C26.82988281 50.37140625 26.91367188 49.6959375 27 49 C26.1028125 48.814375 26.1028125 48.814375 25.1875 48.625 C23 48 23 48 20 46 C19.67 51.61 19.34 57.22 19 63 C15.7 63 12.4 63 9 63 C9 54.75 9 46.5 9 38 C10.65 38.33 12.3 38.66 14 39 C13.23743896 38.26362305 12.47487793 37.52724609 11.68920898 36.76855469 C8.8682179 34.03793931 6.0637059 31.29091004 3.26391602 28.53857422 C2.04896284 27.34879385 0.82956402 26.16353583 -0.39428711 24.98291016 C-2.151006 23.28671867 -3.8911852 21.57499725 -5.62890625 19.859375 C-6.18091202 19.33317566 -6.73291779 18.80697632 -7.301651 18.26483154 C-8.81860352 16.74902344 -8.81860352 16.74902344 -11 14 C-10.96798577 10.71417542 -9.94584539 9.93890249 -7.71484375 7.421875 C-6.34005859 6.09929687 -6.34005859 6.09929687 -4.9375 4.75 C-4.01839844 3.85796875 -3.09929687 2.9659375 -2.15234375 2.046875 C-1.44207031 1.37140625 -0.73179688 0.6959375 0 0 Z " fill="#295F8A" transform="translate(116,228)"/>
<path d="M0 0 C2.68722147 1.08031047 4.19807495 2.7534621 6.18603516 4.84082031 C6.89244141 5.57429687 7.59884766 6.30777344 8.32666016 7.06347656 C8.85775391 7.629375 9.38884766 8.19527344 9.93603516 8.77832031 C8.62119104 11.68614864 7.20228204 13.7847359 4.93603516 16.02832031 C4.42041016 16.54910156 3.90478516 17.06988281 3.37353516 17.60644531 C1.93603516 18.77832031 1.93603516 18.77832031 -0.06396484 18.77832031 C-0.28616699 19.32866943 -0.50836914 19.87901855 -0.73730469 20.44604492 C-2.46496362 23.48327823 -4.79327897 25.69748347 -7.29052734 28.09472656 C-8.33230544 29.11609729 -9.37396872 30.13758515 -10.41552734 31.15917969 C-12.05697904 32.75700721 -13.7008182 34.35228798 -15.34716797 35.94506836 C-16.93882074 37.48858265 -18.52127182 39.04108113 -20.10302734 40.59472656 C-20.59985016 41.06979141 -21.09667297 41.54485626 -21.60855103 42.03431702 C-22.81828653 43.22624848 -23.94876549 44.49750378 -25.06396484 45.77832031 C-25.06396484 46.76832031 -25.06396484 47.75832031 -25.06396484 48.77832031 C-26.05396484 48.44832031 -27.04396484 48.11832031 -28.06396484 47.77832031 C-27.40396484 45.79832031 -26.74396484 43.81832031 -26.06396484 41.77832031 C-25.40396484 41.77832031 -24.74396484 41.77832031 -24.06396484 41.77832031 C-24.08458984 40.99457031 -24.10521484 40.21082031 -24.12646484 39.40332031 C-24.06396484 36.77832031 -24.06396484 36.77832031 -23.06396484 34.77832031 C-24.05396484 33.78832031 -25.04396484 32.79832031 -26.06396484 31.77832031 C-27.54896484 32.27332031 -27.54896484 32.27332031 -29.06396484 32.77832031 C-29.15336731 28.57640453 -28.75519834 26.63156167 -26.06396484 23.30957031 C-23.79945669 21.01603001 -21.56999539 18.80613586 -19.06396484 16.77832031 C-18.40396484 16.77832031 -17.74396484 16.77832031 -17.06396484 16.77832031 C-16.79374512 16.18575439 -16.52352539 15.59318848 -16.24511719 14.98266602 C-14.33514255 11.41814327 -11.51610556 8.82098335 -8.68896484 5.96582031 C-8.11146484 5.35544922 -7.53396484 4.74507812 -6.93896484 4.11621094 C-6.37435547 3.54451172 -5.80974609 2.9728125 -5.22802734 2.38378906 C-4.7170752 1.85938232 -4.20612305 1.33497559 -3.6796875 0.79467773 C-2.06396484 -0.22167969 -2.06396484 -0.22167969 0 0 Z " fill="#F39C3C" transform="translate(209.06396484375,218.2216796875)"/>
<path d="M0 0 C2.23551759 3.35327639 2.17283528 3.90743657 1.625 7.6875 C1.51414063 8.49574219 1.40328125 9.30398437 1.2890625 10.13671875 C1.19367188 10.75160156 1.09828125 11.36648437 1 12 C4.78630702 11.24432948 6.4041044 9.87402727 9 7 C9.99 7.33 10.98 7.66 12 8 C11.01 8.33 10.02 8.66 9 9 C9.04125 9.928125 9.0825 10.85625 9.125 11.8125 C9 15 9 15 7 18 C6.34 18 5.68 18 5 18 C5 18.66 5 19.32 5 20 C4.34 20 3.68 20 3 20 C3 20.66 3 21.32 3 22 C2.34 22 1.68 22 1 22 C1 22.66 1 23.32 1 24 C0.34 24 -0.32 24 -1 24 C-1 24.66 -1 25.32 -1 26 C-1.66 26 -2.32 26 -3 26 C-3 26.66 -3 27.32 -3 28 C-3.66 28 -4.32 28 -5 28 C-5 28.66 -5 29.32 -5 30 C-5.66 30 -6.32 30 -7 30 C-7 30.66 -7 31.32 -7 32 C-8.32 32 -9.64 32 -11 32 C-12.625 29.5625 -12.625 29.5625 -14 27 C-14.66 26.67 -15.32 26.34 -16 26 C-16 25.34 -16 24.68 -16 24 C-17.11375 24.680625 -17.11375 24.680625 -18.25 25.375 C-20.46930578 26.68640796 -22.67967822 27.88280803 -25 29 C-25 29.99 -25 30.98 -25 32 C-25.66 32 -26.32 32 -27 32 C-27.33 32.99 -27.66 33.98 -28 35 C-28.99 35 -29.98 35 -31 35 C-30.67 35.99 -30.34 36.98 -30 38 C-30.99 38 -31.98 38 -33 38 C-33.33 36.68 -33.66 35.36 -34 34 C-34.99 34.495 -34.99 34.495 -36 35 C-37.1577506 31.52674819 -37.06866652 28.63932552 -37 25 C-35 26.375 -35 26.375 -33 28 C-33 28.66 -33 29.32 -33 30 C-25.84909765 24.00062196 -19.3526421 17.4107116 -12.83447266 10.73852539 C-11.46180274 9.33564246 -10.08254704 7.93921301 -8.703125 6.54296875 C-7.89520508 5.71821045 -7.08728516 4.89345215 -6.25488281 4.04370117 C-4.21309158 2.19313443 -2.52202272 1.05854216 0 0 Z " fill="#2592A1" transform="translate(173,222)"/>
<path d="M0 0 C2.475 0.99 2.475 0.99 5 2 C5.125 6.75 5.125 6.75 4 9 C3.91599471 10.59447464 3.89272533 12.19240545 3.90234375 13.7890625 C3.90556641 14.73007813 3.90878906 15.67109375 3.91210938 16.640625 C3.92048828 17.62546875 3.92886719 18.6103125 3.9375 19.625 C3.94201172 20.61757813 3.94652344 21.61015625 3.95117188 22.6328125 C3.96297855 25.0886016 3.979446 27.54427104 4 30 C2.35 30 0.7 30 -1 30 C-1 25.05 -1 20.1 -1 15 C-3.64 14.67 -6.28 14.34 -9 14 C-9 19.28 -9 24.56 -9 30 C-10.65 30 -12.3 30 -14 30 C-14.33 25.05 -14.66 20.1 -15 15 C-17.475 14.505 -17.475 14.505 -20 14 C-23.86904957 19.36812782 -25.64455443 23.36501601 -26 30 C-27.65 30 -29.3 30 -31 30 C-31.020625 29.0925 -31.04125 28.185 -31.0625 27.25 C-31.74557557 22.05222185 -34.78098934 17.94074747 -37.50390625 13.57421875 C-39 11 -39 11 -39 9 C-36.25 8.625 -36.25 8.625 -33 9 C-30.625 12 -30.625 12 -29 15 C-27.49440461 13.03617993 -26.10868317 11.21736634 -25 9 C-17.74 9 -10.48 9 -3 9 C-3 7.02 -3 5.04 -3 3 C-1.5 1.125 -1.5 1.125 0 0 Z " fill="#499DA7" transform="translate(361,239)"/>
<path d="M0 0 C1.2065625 0.0309375 1.2065625 0.0309375 2.4375 0.0625 C2.7675 2.0425 3.0975 4.0225 3.4375 6.0625 C4.159375 5.0725 4.88125 4.0825 5.625 3.0625 C8.03587099 0.57574202 9.22916409 0.0877079 12.73046875 -0.3359375 C15.9688011 -0.31474885 19.2051508 -0.13539893 22.4375 0.0625 C22.4375 5.3425 22.4375 10.6225 22.4375 16.0625 C25.7375 16.0625 29.0375 16.0625 32.4375 16.0625 C32.4375 17.7125 32.4375 19.3625 32.4375 21.0625 C27.1575 21.0625 21.8775 21.0625 16.4375 21.0625 C15.9425 11.6575 15.9425 11.6575 15.4375 2.0625 C14.7775 2.0625 14.1175 2.0625 13.4375 2.0625 C13.004375 2.92875 13.004375 2.92875 12.5625 3.8125 C11 6.9375 11 6.9375 9.4375 10.0625 C9.870625 10.60519531 10.30375 11.14789063 10.75 11.70703125 C11.5853125 12.78017578 11.5853125 12.78017578 12.4375 13.875 C12.994375 14.58269531 13.55125 15.29039062 14.125 16.01953125 C15.4375 18.0625 15.4375 18.0625 15.4375 21.0625 C13.25 21.4375 13.25 21.4375 10.4375 21.0625 C7.75 18.125 7.75 18.125 5.4375 15.0625 C4.7775 14.7325 4.1175 14.4025 3.4375 14.0625 C3.1075 16.3725 2.7775 18.6825 2.4375 21.0625 C0.7875 21.0625 -0.8625 21.0625 -2.5625 21.0625 C-3.43110031 16.57473172 -3.69714852 12.31857233 -3.6875 7.75 C-3.69007813 6.51636719 -3.69265625 5.28273437 -3.6953125 4.01171875 C-3.51851695 0.08581749 -3.51851695 0.08581749 0 0 Z " fill="#3B426D" transform="translate(294.5625,247.9375)"/>
<path d="M0 0 C1.65 0 3.3 0 5 0 C5.99 2.64 6.98 5.28 8 8 C11.60654039 5.59563974 11.85452932 4.05320393 13 0 C14.65 0 16.3 0 18 0 C19.32 2.97 20.64 5.94 22 9 C23.32 6.03 24.64 3.06 26 0 C27.65 0 29.3 0 31 0 C31.39992826 5.3490405 30.06717979 9.07020372 28 13.875 C27.71382812 14.56335938 27.42765625 15.25171875 27.1328125 15.9609375 C26.43129447 17.64458078 25.71694244 19.3228668 25 21 C23.35 21 21.7 21 20 21 C18.68 18.36 17.36 15.72 16 13 C15.34 13 14.68 13 14 13 C13.855625 13.94875 13.71125 14.8975 13.5625 15.875 C13 19 13 19 12 21 C10.02 21 8.04 21 6 21 C4.99222971 18.25262623 3.99358554 15.50250048 3 12.75 C2.71382812 11.97269531 2.42765625 11.19539063 2.1328125 10.39453125 C1.72675781 9.26337891 1.72675781 9.26337891 1.3125 8.109375 C0.93544922 7.07248535 0.93544922 7.07248535 0.55078125 6.01464844 C0 4 0 4 0 0 Z M15 9 C16 11 16 11 16 11 Z " fill="#31376D" transform="translate(217,248)"/>
<path d="M0 0 C0 13.53 0 27.06 0 41 C-3.3 41 -6.6 41 -10 41 C-10 29.78 -10 18.56 -10 7 C-9.34 7 -8.68 7 -8 7 C-7.731875 6.401875 -7.46375 5.80375 -7.1875 5.1875 C-5.24288471 1.60531394 -4.204264 0 0 0 Z " fill="#2E7A91" transform="translate(202,250)"/>
<path d="M0 0 C13.47452697 -0.37085854 13.47452697 -0.37085854 15.8984375 1.33984375 C17.59758887 3.90062152 17.82350601 5.94077089 18 9 C17.4740625 10.7634375 17.4740625 10.7634375 16.9375 12.5625 C15.90375662 16.3528924 16.15923312 17.62526072 18 21 C16.02 21 14.04 21 12 21 C11.67 20.01 11.34 19.02 11 18 C10.34 18 9.68 18 9 18 C8.67 17.34 8.34 16.68 8 16 C7.34 16 6.68 16 6 16 C5.67 17.65 5.34 19.3 5 21 C3.35 21 1.7 21 0 21 C0 14.07 0 7.14 0 0 Z M6 4 C6 5.98 6 7.96 6 10 C8.47266765 9.65555119 8.47266765 9.65555119 11 9 C11.33 8.34 11.66 7.68 12 7 C10.68798827 5.43750191 10.68798827 5.43750191 9 4 C8.01 4 7.02 4 6 4 Z " fill="#575D87" transform="translate(272,248)"/>
<path d="M0 0 C1.50433594 0.01353516 1.50433594 0.01353516 3.0390625 0.02734375 C3.80992187 0.03894531 4.58078125 0.05054688 5.375 0.0625 C5.375 0.7225 5.375 1.3825 5.375 2.0625 C6.01566406 2.30484375 6.65632813 2.5471875 7.31640625 2.796875 C9.375 4.0625 9.375 4.0625 10.08984375 6.015625 C10.59352776 11.21152317 10.5182226 14.61863356 7.375 19.0625 C4.40088649 21.48585174 1.10082707 21.41836421 -2.66015625 21.3203125 C-5.54337475 20.94199755 -7.36864849 19.85430855 -9.625 18.0625 C-12.3040573 14.04391405 -12.32110694 10.78608279 -11.625 6.0625 C-8.29081236 0.72779977 -6.07632441 -0.07065493 0 0 Z M-3.75 5.125 C-6.02297969 7.05681609 -6.02297969 7.05681609 -5.875 10.75 C-5.7925 11.843125 -5.71 12.93625 -5.625 14.0625 C-2.50728073 15.66589848 -1.23488311 16.25224141 2.1875 15.1875 C2.909375 14.81625 3.63125 14.445 4.375 14.0625 C4.70880814 10.68813814 4.70880814 10.68813814 4.375 7.0625 C2.6265605 5.04141823 2.6265605 5.04141823 0.375 4.0625 C-1.72282797 3.9134288 -1.72282797 3.9134288 -3.75 5.125 Z " fill="#4E577D" transform="translate(259.625,247.9375)"/>
<path d="M0 0 C0 0.99 0 1.98 0 3 C3.3 2.34 6.6 1.68 10 1 C14 7 14 7 14 11 C13.34 11 12.68 11 12 11 C12 11.66 12 12.32 12 13 C11.34 13 10.68 13 10 13 C10 13.66 10 14.32 10 15 C8.68 15 7.36 15 6 15 C4.375 12.5625 4.375 12.5625 3 10 C2.34 9.67 1.68 9.34 1 9 C1 8.34 1 7.68 1 7 C0.2575 7.45375 -0.485 7.9075 -1.25 8.375 C-3.46930578 9.68640796 -5.67967822 10.88280803 -8 12 C-8 12.99 -8 13.98 -8 15 C-8.66 15 -9.32 15 -10 15 C-10.33 15.99 -10.66 16.98 -11 18 C-11.99 18 -12.98 18 -14 18 C-13.67 18.99 -13.34 19.98 -13 21 C-13.99 21 -14.98 21 -16 21 C-16.33 19.68 -16.66 18.36 -17 17 C-17.66 17.33 -18.32 17.66 -19 18 C-20.1577506 14.52674819 -20.06866652 11.63932552 -20 8 C-18 9.375 -18 9.375 -16 11 C-16 11.66 -16 12.32 -16 13 C-12.07982773 9.63700957 -8.21226796 6.2829586 -4.625 2.5625 C-2 0 -2 0 0 0 Z " fill="#338497" transform="translate(156,239)"/>
<path d="M0 0 C1.09054687 0.02320313 2.18109375 0.04640625 3.3046875 0.0703125 C4.40039062 0.08835938 5.49609375 0.10640625 6.625 0.125 C7.46804688 0.14820313 8.31109375 0.17140625 9.1796875 0.1953125 C10.1796875 3.1953125 10.1796875 3.1953125 9.1796875 6.1953125 C3.4296875 5.3203125 3.4296875 5.3203125 1.1796875 4.1953125 C1.5096875 5.1853125 1.8396875 6.1753125 2.1796875 7.1953125 C4.50640615 8.21060791 6.8400322 9.21019448 9.1796875 10.1953125 C11.1796875 13.1953125 11.1796875 13.1953125 10.9921875 15.6953125 C10.09372847 18.45980184 9.45608437 19.43375484 7.1796875 21.1953125 C4.8046875 21.55859375 4.8046875 21.55859375 2.1796875 21.5078125 C1.3134375 21.50394531 0.4471875 21.50007813 -0.4453125 21.49609375 C-2.8203125 21.1953125 -2.8203125 21.1953125 -5.8203125 19.1953125 C-5.4903125 17.5453125 -5.1603125 15.8953125 -4.8203125 14.1953125 C-1.8503125 14.5253125 1.1196875 14.8553125 4.1796875 15.1953125 C2.2615625 14.2671875 2.2615625 14.2671875 0.3046875 13.3203125 C-2.22820018 12.09472169 -3.81037545 11.20524955 -5.8203125 9.1953125 C-5.18917311 0.35936102 -5.18917311 0.35936102 0 0 Z " fill="#ECA163" transform="translate(393.8203125,247.8046875)"/>
<path d="M0 0 C1.65 0.66 3.3 1.32 5 2 C5.125 6.75 5.125 6.75 4 9 C3.91599471 10.59447464 3.89272533 12.19240545 3.90234375 13.7890625 C3.90717773 15.20058594 3.90717773 15.20058594 3.91210938 16.640625 C3.92048828 17.62546875 3.92886719 18.6103125 3.9375 19.625 C3.94201172 20.61757813 3.94652344 21.61015625 3.95117188 22.6328125 C3.96297855 25.0886016 3.979446 27.54427104 4 30 C2.35 30 0.7 30 -1 30 C-1 25.05 -1 20.1 -1 15 C-3.64 14.67 -6.28 14.34 -9 14 C-9 19.28 -9 24.56 -9 30 C-9.66 29.67 -10.32 29.34 -11 29 C-10.67 23.39 -10.34 17.78 -10 12 C-12.70183055 10.64908472 -15.11808206 10.66141942 -18.125 10.4375 C-19.76855469 10.31181641 -19.76855469 10.31181641 -21.4453125 10.18359375 C-22.28835938 10.12300781 -23.13140625 10.06242188 -24 10 C-24 10.99 -24 11.98 -24 13 C-24.66 13 -25.32 13 -26 13 C-25.67 11.68 -25.34 10.36 -25 9 C-17.74 9 -10.48 9 -3 9 C-3 7.02 -3 5.04 -3 3 C-1.5 1.125 -1.5 1.125 0 0 Z " fill="#5DBEBE" transform="translate(361,239)"/>
<path d="M0 0 C2.68722147 1.08031047 4.19807495 2.7534621 6.18603516 4.84082031 C6.89244141 5.57429687 7.59884766 6.30777344 8.32666016 7.06347656 C8.85775391 7.629375 9.38884766 8.19527344 9.93603516 8.77832031 C8.62119104 11.68614864 7.20228204 13.7847359 4.93603516 16.02832031 C4.42041016 16.54910156 3.90478516 17.06988281 3.37353516 17.60644531 C1.93603516 18.77832031 1.93603516 18.77832031 -0.06396484 18.77832031 C-0.35271484 19.41769531 -0.64146484 20.05707031 -0.93896484 20.71582031 C-2.06396484 22.77832031 -2.06396484 22.77832031 -4.06396484 23.77832031 C-3.73396484 22.12832031 -3.40396484 20.47832031 -3.06396484 18.77832031 C-2.40396484 18.77832031 -1.74396484 18.77832031 -1.06396484 18.77832031 C-0.1297284 15.76800288 -0.01946574 14.91181764 -1.06396484 11.77832031 C-3.04396484 12.43832031 -5.02396484 13.09832031 -7.06396484 13.77832031 C-7.39396484 12.78832031 -7.72396484 11.79832031 -8.06396484 10.77832031 C-9.05396484 10.77832031 -10.04396484 10.77832031 -11.06396484 10.77832031 C-11.72396484 12.42832031 -12.38396484 14.07832031 -13.06396484 15.77832031 C-14.05396484 15.77832031 -15.04396484 15.77832031 -16.06396484 15.77832031 C-17.05396484 18.25332031 -17.05396484 18.25332031 -18.06396484 20.77832031 C-19.38396484 20.44832031 -20.70396484 20.11832031 -22.06396484 19.77832031 C-20.68896484 18.27832031 -20.68896484 18.27832031 -19.06396484 16.77832031 C-18.40396484 16.77832031 -17.74396484 16.77832031 -17.06396484 16.77832031 C-16.79374512 16.18575439 -16.52352539 15.59318848 -16.24511719 14.98266602 C-14.33514255 11.41814327 -11.51610556 8.82098335 -8.68896484 5.96582031 C-7.82271484 5.05026367 -7.82271484 5.05026367 -6.93896484 4.11621094 C-6.37435547 3.54451172 -5.80974609 2.9728125 -5.22802734 2.38378906 C-4.7170752 1.85938232 -4.20612305 1.33497559 -3.6796875 0.79467773 C-2.06396484 -0.22167969 -2.06396484 -0.22167969 0 0 Z " fill="#F1B666" transform="translate(209.06396484375,218.2216796875)"/>
<path d="M0 0 C2.64971542 1.80662415 4.55620529 3.11241058 6 6 C5.91348369 7.54613014 5.75997364 9.08909387 5.5625 10.625 C5.46066406 11.44226563 5.35882813 12.25953125 5.25390625 13.1015625 C5.17011719 13.72804687 5.08632812 14.35453125 5 15 C-0.99529412 18.18117647 -0.99529412 18.18117647 -5.8125 17.3125 C-9 16 -9 16 -11 14 C-11.50421994 10.96295432 -11.45467228 8.04197406 -11 5 C-7.92253835 0.8967178 -5.10842169 -0.59400252 0 0 Z " fill="#236789" transform="translate(128,205)"/>
<path d="M0 0 C1.43859375 -0.00773438 1.43859375 -0.00773438 2.90625 -0.015625 C5.5 0.25 5.5 0.25 8.5 2.25 C8.17 3.57 7.84 4.89 7.5 6.25 C4.30097361 6.33886184 1.57322544 6.16058531 -1.5 5.25 C-3.16846734 6.94495956 -3.16846734 6.94495956 -4.5 9.25 C-4.27802187 11.9484589 -4.27802187 11.9484589 -3.5 14.25 C0.24180869 15.01536996 2.83881556 15.2960527 6.5 14.25 C7.16 14.58 7.82 14.91 8.5 15.25 C8.5 16.57 8.5 17.89 8.5 19.25 C4.18525359 21.69600137 0.37165775 21.96334988 -4.5 21.25 C-7.92828835 19.20761545 -10.38688048 17.14591831 -11.5 13.25 C-11.21150851 9.21111917 -10.77358432 5.66037648 -8.5 2.25 C-5.14802157 0.01534771 -3.92208754 -0.02108649 0 0 Z " fill="#E9A471" transform="translate(378.5,247.75)"/>
<path d="M0 0 C0 5.28 0 10.56 0 16 C3.3 16 6.6 16 10 16 C10 17.65 10 19.3 10 21 C4.72 21 -0.56 21 -6 21 C-6.33 14.73 -6.66 8.46 -7 2 C-7.66 2 -8.32 2 -9 2 C-9.433125 2.928125 -9.433125 2.928125 -9.875 3.875 C-11 6 -11 6 -13 8 C-13 6.68 -13 5.36 -13 4 C-14.32 4.99 -15.64 5.98 -17 7 C-17.66 6.67 -18.32 6.34 -19 6 C-13.60950105 -1.39268427 -8.83747307 -0.54106978 0 0 Z " fill="#6C90A5" transform="translate(317,248)"/>
<path d="M0 0 C1.0735426 15.14887892 1.0735426 15.14887892 -1.55859375 19.6875 C-3.29134192 21.36097912 -4.94570317 22.7475078 -7 24 C-7.99 23.67 -8.98 23.34 -10 23 C-10 15.41 -10 7.82 -10 0 C-6.7169902 -1.6415049 -3.57454967 -0.51888624 0 0 Z " fill="#2AABAB" transform="translate(185,189)"/>
<path d="M0 0 C0.66 0.33 1.32 0.66 2 1 C2 8.92 2 16.84 2 25 C-0.97 25 -3.94 25 -7 25 C-8.53375735 21.9324853 -7.87407723 18.83140797 -7.625 15.5 C-7.58117187 14.81035156 -7.53734375 14.12070312 -7.4921875 13.41015625 C-7.13089923 8.26179847 -7.13089923 8.26179847 -6 6 C-5.34 6 -4.68 6 -4 6 C-3.566875 4.7934375 -3.566875 4.7934375 -3.125 3.5625 C-2 1 -2 1 0 0 Z " fill="#225380" transform="translate(183,266)"/>
<path d="M0 0 C3.46679688 0.04882812 3.46679688 0.04882812 6.93359375 0.09765625 C6.93359375 4.71765625 6.93359375 9.33765625 6.93359375 14.09765625 C6.27359375 14.09765625 5.61359375 14.09765625 4.93359375 14.09765625 C4.93359375 14.75765625 4.93359375 15.41765625 4.93359375 16.09765625 C4.27359375 16.09765625 3.61359375 16.09765625 2.93359375 16.09765625 C2.93359375 16.75765625 2.93359375 17.41765625 2.93359375 18.09765625 C2.27359375 18.09765625 1.61359375 18.09765625 0.93359375 18.09765625 C0.93359375 18.75765625 0.93359375 19.41765625 0.93359375 20.09765625 C-0.38640625 20.09765625 -1.70640625 20.09765625 -3.06640625 20.09765625 C-3.09529139 16.95184202 -3.11316548 13.80606156 -3.12890625 10.66015625 C-3.13728516 9.76232422 -3.14566406 8.86449219 -3.15429688 7.93945312 C-3.15751953 7.08544922 -3.16074219 6.23144531 -3.1640625 5.3515625 C-3.17191772 4.16542358 -3.17191772 4.16542358 -3.17993164 2.95532227 C-3.01709908 0.29082128 -2.66195378 0.12580122 0 0 Z " fill="#62AEBA" transform="translate(161.06640625,209.90234375)"/>
<path d="M0 0 C1.65 0 3.3 0 5 0 C5.39992826 5.3490405 4.06717979 9.07020372 2 13.875 C1.71382812 14.56335938 1.42765625 15.25171875 1.1328125 15.9609375 C0.43129447 17.64458078 -0.28305756 19.3228668 -1 21 C-2.65 21 -4.3 21 -6 21 C-6.69699552 19.54618103 -7.38233866 18.08677047 -8.0625 16.625 C-8.44535156 15.81289063 -8.82820312 15.00078125 -9.22265625 14.1640625 C-9.47917969 13.44992187 -9.73570312 12.73578125 -10 12 C-9.67 11.34 -9.34 10.68 -9 10 C-8.34 10 -7.68 10 -7 10 C-6.34 9.01 -5.68 8.02 -5 7 C-4.67 7.66 -4.34 8.32 -4 9 C-2.68 6.03 -1.36 3.06 0 0 Z " fill="#4D547B" transform="translate(243,248)"/>
<path d="M0 0 C0 13.53 0 27.06 0 41 C-0.33 41 -0.66 41 -1 41 C-1.33 31.76 -1.66 22.52 -2 13 C-5.0745356 13.7763932 -5.0745356 13.7763932 -7 16 C-7.33 15.67 -7.66 15.34 -8 15 C-8.33 22.92 -8.66 30.84 -9 39 C-9.33 39 -9.66 39 -10 39 C-10 28.44 -10 17.88 -10 7 C-9.34 7 -8.68 7 -8 7 C-7.731875 6.401875 -7.46375 5.80375 -7.1875 5.1875 C-5.24288471 1.60531394 -4.204264 0 0 0 Z " fill="#92C8CE" transform="translate(202,250)"/>
<path d="M0 0 C3.3 0 6.6 0 10 0 C10.65628418 4.95859156 11.20043301 9.23772049 8.2890625 13.51171875 C6.27709367 15.53458272 4.33666051 17.3624608 2 19 C1.34 19 0.68 19 0 19 C0 12.73 0 6.46 0 0 Z " fill="#256787" transform="translate(142,229)"/>
<path d="M0 0 C0.28875 0.639375 0.5775 1.27875 0.875 1.9375 C1.82823451 4.15206079 1.82823451 4.15206079 4 5 C-1.75 10 -1.75 10 -4 10 C-4 10.99 -4 11.98 -4 13 C-4.66 13 -5.32 13 -6 13 C-6.33 13.99 -6.66 14.98 -7 16 C-7.99 16 -8.98 16 -10 16 C-9.67 16.99 -9.34 17.98 -9 19 C-9.99 19 -10.98 19 -12 19 C-12.33 17.68 -12.66 16.36 -13 15 C-13.99 15.495 -13.99 15.495 -15 16 C-16.1577506 12.52674819 -16.06866652 9.63932552 -16 6 C-14 7.375 -14 7.375 -12 9 C-12 9.66 -12 10.32 -12 11 C-5.82747447 5.68570186 -5.82747447 5.68570186 0 0 Z " fill="#407D9A" transform="translate(152,241)"/>
<path d="M0 0 C1.32 0.99 2.64 1.98 4 3 C5.32 3.66 6.64 4.32 8 5 C8 9.62 8 14.24 8 19 C5.36 19 2.72 19 0 19 C0 12.73 0 6.46 0 0 Z " fill="#1E2C5E" transform="translate(126,272)"/>
<path d="M0 0 C0.70769531 0.10828125 1.41539062 0.2165625 2.14453125 0.328125 C2.47453125 1.978125 2.80453125 3.628125 3.14453125 5.328125 C3.80453125 5.328125 4.46453125 5.328125 5.14453125 5.328125 C5.14453125 6.978125 5.14453125 8.628125 5.14453125 10.328125 C2.65091554 9.12431052 0.46310042 7.87383778 -1.85546875 6.328125 C-1.85546875 6.988125 -1.85546875 7.648125 -1.85546875 8.328125 C-4.20985608 9.75757445 -5.33579308 10.41473761 -8.10546875 9.953125 C-8.68296875 9.746875 -9.26046875 9.540625 -9.85546875 9.328125 C-10.51546875 10.978125 -11.17546875 12.628125 -11.85546875 14.328125 C-12.84546875 14.328125 -13.83546875 14.328125 -14.85546875 14.328125 C-15.51546875 15.978125 -16.17546875 17.628125 -16.85546875 19.328125 C-18.17546875 18.998125 -19.49546875 18.668125 -20.85546875 18.328125 C-19.48046875 16.828125 -19.48046875 16.828125 -17.85546875 15.328125 C-17.19546875 15.328125 -16.53546875 15.328125 -15.85546875 15.328125 C-15.63503906 14.78671875 -15.41460937 14.2453125 -15.1875 13.6875 C-13.4137985 10.54581171 -11.05913151 8.12436141 -8.54296875 5.578125 C-7.83237305 4.81822266 -7.83237305 4.81822266 -7.10742188 4.04296875 C-4.749095 1.64915405 -3.39422761 0.39003436 0 0 Z " fill="#F5A643" transform="translate(207.85546875,219.671875)"/>
<path d="M0 0 C7 1 7 1 8.77734375 2.41015625 C9.8515625 3.94010417 10.92578125 5.47005208 12 7 C11.67 7.33 11.34 7.66 11 8 C10.76298761 10.85877909 10.57780818 13.69883297 10.4375 16.5625 C10.39431641 17.36880859 10.35113281 18.17511719 10.30664062 19.00585938 C10.20024738 21.00368805 10.09959112 23.0018207 10 25 C9.67 25 9.34 25 9 25 C9 20.38 9 15.76 9 11 C7.02 10.34 5.04 9.68 3 9 C2.67 8.67 2.34 8.34 2 8 C1.67 13.61 1.34 19.22 1 25 C0.67 25 0.34 25 0 25 C0 16.75 0 8.5 0 0 Z " fill="#596A8B" transform="translate(125,266)"/>
<path d="M0 0 C1.65 0 3.3 0 5 0 C5 6.93 5 13.86 5 21 C3.35 21 1.7 21 0 21 C-0.19592461 17.68794116 -0.38032746 14.37534146 -0.5625 11.0625 C-0.61857422 10.11697266 -0.67464844 9.17144531 -0.73242188 8.19726562 C-0.78076172 7.29814453 -0.82910156 6.39902344 -0.87890625 5.47265625 C-0.9260376 4.64000244 -0.97316895 3.80734863 -1.02172852 2.94946289 C-1 1 -1 1 0 0 Z " fill="#D59C70" transform="translate(360,248)"/>
<path d="M0 0 C2.64971542 1.80662415 4.55620529 3.11241058 6 6 C5.91348369 7.54613014 5.75997364 9.08909387 5.5625 10.625 C5.46066406 11.44226563 5.35882813 12.25953125 5.25390625 13.1015625 C5.17011719 13.72804687 5.08632812 14.35453125 5 15 C4.67 15 4.34 15 4 15 C4 13.35 4 11.7 4 10 C1.69 9.34 -0.62 8.68 -3 8 C-3 7.34 -3 6.68 -3 6 C-3.66 6 -4.32 6 -5 6 C-5 5.34 -5 4.68 -5 4 C-6.32 4.33 -7.64 4.66 -9 5 C-9.33 7.97 -9.66 10.94 -10 14 C-10.33 14 -10.66 14 -11 14 C-11.62790698 5.8372093 -11.62790698 5.8372093 -9.125 2.5 C-5.87622241 0.20674523 -3.99020249 -0.46397703 0 0 Z " fill="#2591A7" transform="translate(128,205)"/>
<path d="M0 0 C1.50433594 0.01353516 1.50433594 0.01353516 3.0390625 0.02734375 C3.80992187 0.03894531 4.58078125 0.05054688 5.375 0.0625 C4.735625 0.18625 4.09625 0.31 3.4375 0.4375 C2.756875 0.64375 2.07625 0.85 1.375 1.0625 C1.045 1.7225 0.715 2.3825 0.375 3.0625 C0.375 2.4025 0.375 1.7425 0.375 1.0625 C-1.275 1.0625 -2.925 1.0625 -4.625 1.0625 C-3.635 2.3825 -2.645 3.7025 -1.625 5.0625 C-2.615 5.7225 -3.605 6.3825 -4.625 7.0625 C-5.35843428 10.12806598 -5.35843428 10.12806598 -5.625 13.0625 C-6.285 13.0625 -6.945 13.0625 -7.625 13.0625 C-7.295 15.0425 -6.965 17.0225 -6.625 19.0625 C-9.625 18.0625 -9.625 18.0625 -11.625 15.0625 C-12.36465025 10.46978797 -12.23461194 7.03787911 -9.75 3.0625 C-6.40766092 -0.0832309 -4.49633431 -0.05228296 0 0 Z " fill="#575D88" transform="translate(259.625,247.9375)"/>
<path d="M0 0 C4.21422242 2.88341534 5.76075855 5.04303419 7 10 C5.0625 9.625 5.0625 9.625 3 9 C2.67 8.34 2.34 7.68 2 7 C-2.455 7.495 -2.455 7.495 -7 8 C-7.04125 9.27875 -7.0825 10.5575 -7.125 11.875 C-7.15980469 12.95394531 -7.15980469 12.95394531 -7.1953125 14.0546875 C-7.18331689 16.23863645 -7.18331689 16.23863645 -5 18 C-5 20 -5 20 -6 23 C-10 17.25 -10 17.25 -10 15 C-10.99 15 -11.98 15 -13 15 C-13.33 13.68 -13.66 12.36 -14 11 C-13.01 11 -12.02 11 -11 11 C-10.67 10.01 -10.34 9.02 -10 8 C-9.34 8 -8.68 8 -8 8 C-7.67 7.01 -7.34 6.02 -7 5 C-6.34 5 -5.68 5 -5 5 C-4.505 4.505 -4.01 4.01 -3.5 3.5 C-3.005 3.005 -2.51 2.51 -2 2 C-1.34 2 -0.68 2 0 2 C0 1.34 0 0.68 0 0 Z " fill="#D0A297" transform="translate(156,246)"/>
<path d="M0 0 C1.65 0 3.3 0 5 0 C5.99 2.64 6.98 5.28 8 8 C11.0109362 5.9927092 11.63016497 5.16115776 13 2 C13.625 4.8125 13.625 4.8125 14 8 C13.01 9.485 13.01 9.485 12 11 C11.67 10.67 11.34 10.34 11 10 C10.01 11.485 10.01 11.485 9 13 C9 12.34 9 11.68 9 11 C7.68 11 6.36 11 5 11 C5 12.65 5 14.3 5 16 C3.26453924 13.39680887 2.34824767 11.47732763 1.375 8.5625 C1.11460937 7.80066406 0.85421875 7.03882813 0.5859375 6.25390625 C0 4 0 4 0 0 Z " fill="#333A65" transform="translate(217,248)"/>
<path d="M0 0 C6.625 -0.25 6.625 -0.25 10 2 C10.0562279 4.96528179 9.95683804 7.68850026 9.6875 10.625 C9.62626953 11.42679687 9.56503906 12.22859375 9.50195312 13.0546875 C9.34851492 15.03758124 9.17604307 17.01898519 9 19 C7.68 19.33 6.36 19.66 5 20 C4.80563509 17.54203147 4.6192258 15.08390706 4.4375 12.625 C4.38142578 11.92632812 4.32535156 11.22765625 4.26757812 10.5078125 C3.88671875 5.2265625 3.88671875 5.2265625 5 3 C3.35 3 1.7 3 0 3 C0 2.01 0 1.02 0 0 Z " fill="#38ABAB" transform="translate(342,249)"/>
<path d="M0 0 C4 4 4 4 4.25 7.25 C4.1675 8.1575 4.085 9.065 4 10 C5.65 10 7.3 10 9 10 C8.34 11.65 7.68 13.3 7 15 C6.34 15 5.68 15 5 15 C4.67 16.32 4.34 17.64 4 19 C2.68 19 1.36 19 0 19 C0 12.73 0 6.46 0 0 Z " fill="#263264" transform="translate(273,249)"/>
<path d="M0 0 C0.66 0.33 1.32 0.66 2 1 C2.680625 1.2475 3.36125 1.495 4.0625 1.75 C6 3 6 3 6.75 5.625 C6.87375 6.800625 6.87375 6.800625 7 8 C5.35 9.32 3.7 10.64 2 12 C2.33 12.66 2.66 13.32 3 14 C1.68 13.34 0.36 12.68 -1 12 C-1 11.34 -1 10.68 -1 10 C-1.66 10 -2.32 10 -3 10 C-4.125 4.375 -4.125 4.375 -3 1 C-2.01 0.67 -1.02 0.34 0 0 Z " fill="#E76D30" transform="translate(152,253)"/>
<path d="M0 0 C0.625 2.8125 0.625 2.8125 1 6 C0.01 7.485 0.01 7.485 -1 9 C-3.9375 9.4375 -3.9375 9.4375 -7 9 C-9 7.3125 -9 7.3125 -10 5 C-9.3125 2.3125 -9.3125 2.3125 -8 0 C-5.13822943 -1.43088528 -3.06624227 -0.59991697 0 0 Z " fill="#E3A582" transform="translate(121,278)"/>
<path d="M0 0 C3.5 0.125 3.5 0.125 4.5 1.125 C4.6875 4.5625 4.6875 4.5625 4.5 8.125 C2.5 10.125 2.5 10.125 0.0625 10.4375 C-2.5 10.125 -2.5 10.125 -4.375 9 C-5.5 7.125 -5.5 7.125 -5.25 4 C-4.2460815 0.15164577 -4.2460815 0.15164577 0 0 Z " fill="#E5B68C" transform="translate(163.5,196.875)"/>
<path d="M0 0 C2.64 0.33 5.28 0.66 8 1 C9.0735426 16.14887892 9.0735426 16.14887892 6.44140625 20.6875 C4.70865808 22.36097912 3.05429683 23.7475078 1 25 C0.01 24.67 -0.98 24.34 -2 24 C-2 16.41 -2 8.82 -2 1 C-1.67 1 -1.34 1 -1 1 C-0.15976812 5.35332736 0.10770995 9.44442519 0.0625 13.875 C0.05347656 15.02742187 0.04445312 16.17984375 0.03515625 17.3671875 C0.02355469 18.23601562 0.01195312 19.10484375 0 20 C1.32 20 2.64 20 4 20 C4 18.68 4 17.36 4 16 C4.66 16 5.32 16 6 16 C6.33 11.38 6.66 6.76 7 2 C4.69 2 2.38 2 0 2 C0 1.34 0 0.68 0 0 Z " fill="#65BEBC" transform="translate(177,188)"/>
<path d="M0 0 C2.625 0.3125 2.625 0.3125 4.5 2 C5.91364911 4.90583428 5.60670152 6.28558697 4.625 9.3125 C3.625 10.3125 3.625 10.3125 0.75 10.625 C-2.375 10.3125 -2.375 10.3125 -4.375 8.625 C-5.375 6.3125 -5.375 6.3125 -4.625 3.625 C-2.86964012 0.37758423 -2.86964012 0.37758423 0 0 Z " fill="#E7A86D" transform="translate(210.375,275.6875)"/>
<path d="M0 0 C0.99 0.33 1.98 0.66 3 1 C3.125 3.875 3.125 3.875 3 7 C1 9 1 9 -1.27734375 9.265625 C-2.15519531 9.26046875 -3.03304688 9.2553125 -3.9375 9.25 C-4.81277344 9.25515625 -5.68804687 9.2603125 -6.58984375 9.265625 C-9 9 -9 9 -12 7 C-11.67 5.35 -11.34 3.7 -11 2 C-7.37 2.66 -3.74 3.32 0 4 C0 2.68 0 1.36 0 0 Z " fill="#EA873F" transform="translate(400,260)"/>
<path d="M0 0 C3.375 -0.125 3.375 -0.125 7 0 C9 2 9 2 9.3125 4.4375 C9 7 9 7 7.8125 8.875 C6 10 6 10 3.5 9.875 C0.89974084 8.96490929 -0.26626458 8.09873235 -2 6 C-1.34 4.02 -0.68 2.04 0 0 Z " fill="#E5AB82" transform="translate(143,216)"/>
<path d="M0 0 C0.33 0 0.66 0 1 0 C1 6.93 1 13.86 1 21 C1.99 21 2.98 21 4 21 C3.47731534 23.76276177 2.89130413 26.3260876 2 29 C2.99 28.67 3.98 28.34 5 28 C5.33 27.01 5.66 26.02 6 25 C6.66 25 7.32 25 8 25 C8 27.31 8 29.62 8 32 C5.03 32 2.06 32 -1 32 C-0.67 21.44 -0.34 10.88 0 0 Z " fill="#2D6C83" transform="translate(193,259)"/>
<path d="M0 0 C4.455 0.99 4.455 0.99 9 2 C9 4.64 9 7.28 9 10 C6.03 10 3.06 10 0 10 C0 6.7 0 3.4 0 0 Z " fill="#1C4A7D" transform="translate(159,281)"/>
<path d="M0 0 C0.66 0.33 1.32 0.66 2 1 C2 4.63 2 8.26 2 12 C-0.97 11.505 -0.97 11.505 -4 11 C-4.33 11.99 -4.66 12.98 -5 14 C-5.66 14 -6.32 14 -7 14 C-7.125 8.25 -7.125 8.25 -6 6 C-5.34 6 -4.68 6 -4 6 C-3.71125 5.195625 -3.4225 4.39125 -3.125 3.5625 C-2 1 -2 1 0 0 Z " fill="#2F6A8C" transform="translate(183,266)"/>
<path d="M0 0 C1.32 0 2.64 0 4 0 C4 4.95 4 9.9 4 15 C5.32 15.33 6.64 15.66 8 16 C4.91190305 17.76462683 3.76687864 18 0 18 C0 12.06 0 6.12 0 0 Z " fill="#2D8194" transform="translate(313,249)"/>
<path d="M0 0 C1.32 1.32 2.64 2.64 4 4 C3.29875 4.020625 2.5975 4.04125 1.875 4.0625 C-1.8874818 5.28939624 -3.28843304 7.34236233 -5.66796875 10.40625 C-7 12 -7 12 -9 13 C-9.11214844 13.64453125 -9.22429687 14.2890625 -9.33984375 14.953125 C-9.55769531 15.62859375 -9.77554688 16.3040625 -10 17 C-12.06640625 18.046875 -12.06640625 18.046875 -14.5625 18.75 C-15.80193359 19.11351562 -15.80193359 19.11351562 -17.06640625 19.484375 C-17.70449219 19.65453125 -18.34257812 19.8246875 -19 20 C-18.61328125 19.55269531 -18.2265625 19.10539062 -17.828125 18.64453125 C-17.30734375 18.03996094 -16.7865625 17.43539062 -16.25 16.8125 C-15.7034375 16.17828125 -15.156875 15.5440625 -14.59375 14.890625 C-13.26789342 13.31779514 -12.00087924 11.69559234 -10.75 10.0625 C-10.1725 9.381875 -9.595 8.70125 -9 8 C-8.34 8 -7.68 8 -7 8 C-7 7.34 -7 6.68 -7 6 C-6.34 6 -5.68 6 -5 6 C-5 5.34 -5 4.68 -5 4 C-4.34 4 -3.68 4 -3 4 C-3 3.34 -3 2.68 -3 2 C-2.01 1.34 -1.02 0.68 0 0 Z " fill="#52C7C0" transform="translate(197,195)"/>
<path d="M0 0 C0.66 0.33 1.32 0.66 2 1 C2 4.63 2 8.26 2 12 C-0.31 12 -2.62 12 -5 12 C-6.03121063 8.90636811 -6.54712855 7.20461006 -6 4 C-3 1.6875 -3 1.6875 0 0 Z " fill="#1E4270" transform="translate(150,279)"/>
<path d="M0 0 C0.33 0 0.66 0 1 0 C1.33 2.97 1.66 5.94 2 9 C4.31 9.33 6.62 9.66 9 10 C9 6.7 9 3.4 9 0 C9.33 0 9.66 0 10 0 C10.65628418 4.95859156 11.20043301 9.23772049 8.2890625 13.51171875 C6.27709367 15.53458272 4.33666051 17.3624608 2 19 C1.34 19 0.68 19 0 19 C0 12.73 0 6.46 0 0 Z " fill="#75A0B3" transform="translate(142,229)"/>
<path d="M0 0 C0.99 0.33 1.98 0.66 3 1 C4.33333333 6.33333333 4.33333333 6.33333333 2.8125 9.375 C1 11 1 11 -3 11 C-3.33 10.34 -3.66 9.68 -4 9 C-4.99 9.33 -5.98 9.66 -7 10 C-6.8125 7.125 -6.8125 7.125 -6 4 C-3.5 2.75 -3.5 2.75 -1 2 C-0.67 1.34 -0.34 0.68 0 0 Z " fill="#F29131" transform="translate(187,241)"/>
<path d="M0 0 C1.65 0 3.3 0 5 0 C5 0.99 5 1.98 5 3 C6.65 3 8.3 3 10 3 C10 3.33 10 3.66 10 4 C8.6696875 3.7525 8.6696875 3.7525 7.3125 3.5 C3.97626443 3.63242034 3.97626443 3.63242034 2.48828125 5.78125 C1.23635355 7.81877131 0.07690603 9.86524822 -1 12 C-1.99 11.67 -2.98 11.34 -4 11 C-3.67 9.68 -3.34 8.36 -3 7 C-3.99 7 -4.98 7 -6 7 C-5 5 -5 5 -3 3 C-2.01 3 -1.02 3 0 3 C0 2.01 0 1.02 0 0 Z " fill="#30B0AB" transform="translate(337,249)"/>
<path d="M0 0 C1.98 0.66 3.96 1.32 6 2 C6.66 2 7.32 2 8 2 C8.125 5.375 8.125 5.375 8 9 C7.34 9.66 6.68 10.32 6 11 C6 10.34 6 9.68 6 9 C5.34 9 4.68 9 4 9 C4 8.34 4 7.68 4 7 C3.34 7 2.68 7 2 7 C2 10.63 2 14.26 2 18 C1.34 18 0.68 18 0 18 C0 12.06 0 6.12 0 0 Z " fill="#2F848F" transform="translate(159,211)"/>
<path d="M0 0 C0.99 0.33 1.98 0.66 3 1 C2.01 2.98 1.02 4.96 0 7 C-1.32 7 -2.64 7 -4 7 C-4 8.98 -4 10.96 -4 13 C-5.65 13 -7.3 13 -9 13 C-9.33 13.66 -9.66 14.32 -10 15 C-10.83984375 13.359375 -10.83984375 13.359375 -11 11 C-9.24163592 8.8697315 -7.57575206 7.1050158 -5.5625 5.25 C-5.03333984 4.74339844 -4.50417969 4.23679688 -3.95898438 3.71484375 C-2.65022899 2.46504131 -1.32648041 1.23097382 0 0 Z " fill="#3C6C8E" transform="translate(116,228)"/>
<path d="M0 0 C1.32 0.33 2.64 0.66 4 1 C3.13375 1.83144531 2.2675 2.66289062 1.375 3.51953125 C0.24960943 4.61678706 -0.87536934 5.71446534 -2 6.8125 C-2.57234375 7.35970703 -3.1446875 7.90691406 -3.734375 8.47070312 C-5.21400538 9.92391154 -6.61296658 11.45816374 -8 13 C-8 13.99 -8 14.98 -8 16 C-8.99 15.67 -9.98 15.34 -11 15 C-10.34 13.02 -9.68 11.04 -9 9 C-8.34 9 -7.68 9 -7 9 C-7.061875 8.21625 -7.12375 7.4325 -7.1875 6.625 C-7.125625 5.75875 -7.06375 4.8925 -7 4 C-4 2 -4 2 -1 2 C-0.67 1.34 -0.34 0.68 0 0 Z " fill="#E8A059" transform="translate(192,251)"/>
<path d="M0 0 C3.96 0 7.92 0 12 0 C7.21428571 4.78571429 7.21428571 4.78571429 4 5 C3.34 4.34 2.68 3.68 2 3 C1.67 8.61 1.34 14.22 1 20 C2.32 20.33 3.64 20.66 5 21 C3.35 21 1.7 21 0 21 C0 14.07 0 7.14 0 0 Z " fill="#3E4571" transform="translate(272,248)"/>
<path d="M0 0 C0.06058594 0.60328125 0.12117187 1.2065625 0.18359375 1.828125 C0.26738281 2.62734375 0.35117188 3.4265625 0.4375 4.25 C0.55931641 5.43335938 0.55931641 5.43335938 0.68359375 6.640625 C0.94211042 8.98235546 0.94211042 8.98235546 1.59375 11.125 C2.18212231 13.84056449 1.15731267 15.54922022 0 18 C-0.99 17.67 -1.98 17.34 -3 17 C-2.33333333 14.33333333 -1.66666667 11.66666667 -1 9 C-1.99 9 -2.98 9 -4 9 C-4.1875 5.625 -4.1875 5.625 -4 2 C-1 0 -1 0 0 0 Z " fill="#226F92" transform="translate(198,271)"/>
<path d="M0 0 C0.33 0.66 0.66 1.32 1 2 C0.67 2.66 0.34 3.32 0 4 C0.66 4.33 1.32 4.66 2 5 C1.39816251 7.02045442 0.72693904 9.02111039 0 11 C-0.99 11.495 -0.99 11.495 -2 12 C-2.66 11.67 -3.32 11.34 -4 11 C-4 10.34 -4 9.68 -4 9 C-4.66 9 -5.32 9 -6 9 C-5.8125 6.1875 -5.8125 6.1875 -5 3 C-2.4375 1.125 -2.4375 1.125 0 0 Z " fill="#20ACAD" transform="translate(183,212)"/>
<path d="M0 0 C0.66 0.33 1.32 0.66 2 1 C2.34342449 2.33076989 2.67619874 3.66431979 3 5 C3.66 5.66 4.32 6.32 5 7 C3.68 7.99 2.36 8.98 1 10 C0.67 9.67 0.34 9.34 0 9 C-0.33 16.92 -0.66 24.84 -1 33 C-1.33 33 -1.66 33 -2 33 C-2 22.44 -2 11.88 -2 1 C-1.34 0.67 -0.68 0.34 0 0 Z " fill="#6BABB8" transform="translate(194,256)"/>
<path d="M0 0 C3.86471061 0.39487261 5.64247863 2.32460256 8.25 5.0625 C8.95640625 5.79597656 9.6628125 6.52945313 10.390625 7.28515625 C10.92171875 7.85105469 11.4528125 8.41695312 12 9 C11.34 10.32 10.68 11.64 10 13 C8.35 13 6.7 13 5 13 C5.33 11.02 5.66 9.04 6 7 C5.34 7 4.68 7 4 7 C3.87625 6.071875 3.87625 6.071875 3.75 5.125 C3.18741541 2.81562433 3.18741541 2.81562433 0.9375 1.75 C0.298125 1.5025 -0.34125 1.255 -1 1 C-0.67 0.67 -0.34 0.34 0 0 Z " fill="#EEBE76" transform="translate(207,218)"/>
<path d="M0 0 C0.99 0.33 1.98 0.66 3 1 C3 1.99 3 2.98 3 4 C3.99 4 4.98 4 6 4 C7.6875 6 7.6875 6 9 8 C8.01 8 7.02 8 6 8 C6 8.66 6 9.32 6 10 C3.625 10.125 3.625 10.125 1 10 C0.34 9.34 -0.32 8.68 -1 8 C-0.96712417 5.27130593 -0.43602229 2.7033382 0 0 Z " fill="#2F527F" transform="translate(119,212)"/>
<path d="M0 0 C2.625 0.9375 2.625 0.9375 5 2 C5.042721 3.66611905 5.04063832 5.33382885 5 7 C4 8 4 8 0.4375 8.0625 C-0.696875 8.041875 -1.83125 8.02125 -3 8 C-2.74438677 5.6568787 -2.40729228 3.32156597 -2 1 C-1.34 0.67 -0.68 0.34 0 0 Z " fill="#E5AF72" transform="translate(361,239)"/>
<path d="M0 0 C0.66 0 1.32 0 2 0 C2 0.66 2 1.32 2 2 C2.804375 2.0928125 2.804375 2.0928125 3.625 2.1875 C7.04369966 3.35705515 9.26923885 5.67594796 12 8 C12.99 8.33 13.98 8.66 15 9 C13.75 10.5625 13.75 10.5625 12 12 C8.92890672 11.83733616 8.00117546 11.00123552 5.859375 8.75 C5.16328125 7.8425 4.4671875 6.935 3.75 6 C3.04359375 5.0925 2.3371875 4.185 1.609375 3.25 C0 1 0 1 0 0 Z " fill="#364F7A" transform="translate(130,264)"/>
<path d="M0 0 C6.625 -0.25 6.625 -0.25 10 2 C9.67 3.32 9.34 4.64 9 6 C5.14354879 6.22036864 2.50776784 5.60355101 -1 4 C-0.67 2.68 -0.34 1.36 0 0 Z " fill="#E39E68" transform="translate(377,248)"/>
<path d="M0 0 C1.12894876 0.93274109 2.25300876 1.87140122 3.375 2.8125 C4.00148438 3.33457031 4.62796875 3.85664063 5.2734375 4.39453125 C7 6 7 6 9 9 C6.36 9.66 3.72 10.32 1 11 C1 9.35 1 7.7 1 6 C0.34 6 -0.32 6 -1 6 C-1.33 4.68 -1.66 3.36 -2 2 C-1.34 2 -0.68 2 0 2 C0 1.34 0 0.68 0 0 Z " fill="#3B7998" transform="translate(119,230)"/>
<path d="M0 0 C0.66 0 1.32 0 2 0 C2.125 6.75 2.125 6.75 1 9 C0.34 9 -0.32 9 -1 9 C-0.67 10.98 -0.34 12.96 0 15 C-3 14 -3 14 -5 11 C-5.1953125 8.73828125 -5.1953125 8.73828125 -5.125 6.3125 C-5.10695312 5.50425781 -5.08890625 4.69601562 -5.0703125 3.86328125 C-5.04710937 3.24839844 -5.02390625 2.63351563 -5 2 C-4.34 3.32 -3.68 4.64 -3 6 C-2.34 6 -1.68 6 -1 6 C-1.020625 5.195625 -1.04125 4.39125 -1.0625 3.5625 C-1 1 -1 1 0 0 Z " fill="#636794" transform="translate(253,252)"/>
<path d="M0 0 C1.65 0 3.3 0 5 0 C5 0.99 5 1.98 5 3 C4.34 2.67 3.68 2.34 3 2 C3.020625 2.804375 3.04125 3.60875 3.0625 4.4375 C3 7 3 7 2 8 C0.33382885 8.04063832 -1.33388095 8.042721 -3 8 C-3.33 6.35 -3.66 4.7 -4 3 C-3.01 3 -2.02 3 -1 3 C-0.67 2.01 -0.34 1.02 0 0 Z " fill="#E87134" transform="translate(169,269)"/>
<path d="M0 0 C3.3 0 6.6 0 10 0 C12.125 4.625 12.125 4.625 11 8 C10.67 7.01 10.34 6.02 10 5 C8.68 5.33 7.36 5.66 6 6 C5.67 5.34 5.34 4.68 5 4 C3.35636866 3.27840576 1.68949614 2.60648579 0 2 C0 1.34 0 0.68 0 0 Z " fill="#333A72" transform="translate(255,249)"/>
<path d="M0 0 C0.28875 0.639375 0.5775 1.27875 0.875 1.9375 C1.82823451 4.15206079 1.82823451 4.15206079 4 5 C1.69 6.65 -0.62 8.3 -3 10 C-3 9.34 -3 8.68 -3 8 C-4.65 8.33 -6.3 8.66 -8 9 C-7.04270084 7.87411986 -6.08412105 6.7493285 -5.125 5.625 C-4.59132812 4.99851563 -4.05765625 4.37203125 -3.5078125 3.7265625 C-2.38567993 2.44163349 -1.20628025 1.20628025 0 0 Z " fill="#5A91A2" transform="translate(152,241)"/>
<path d="M0 0 C0.66 0.33 1.32 0.66 2 1 C2.02701408 3.10409639 2.04640223 5.20829178 2.0625 7.3125 C2.07410156 8.48425781 2.08570313 9.65601563 2.09765625 10.86328125 C2 14 2 14 1 17 C0.34 17 -0.32 17 -1 17 C-1.02684679 14.35409986 -1.04676357 11.70846904 -1.0625 9.0625 C-1.07087891 8.30775391 -1.07925781 7.55300781 -1.08789062 6.77539062 C-1.09652441 4.85005687 -1.05224333 2.92464419 -1 1 C-0.67 0.67 -0.34 0.34 0 0 Z " fill="#EE7F36" transform="translate(362,249)"/>
<path d="M0 0 C1.32 0.33 2.64 0.66 4 1 C4 2.32 4 3.64 4 5 C-0.0527516 5.98248524 -3.83861737 6.08159574 -8 6 C-8.33 5.01 -8.66 4.02 -9 3 C-6.36 3 -3.72 3 -1 3 C-0.67 2.01 -0.34 1.02 0 0 Z " fill="#E38948" transform="translate(383,262)"/>
<path d="M0 0 C1 2 1 2 0.375 4.5625 C-1 7 -1 7 -3.625 7.8125 C-4.40875 7.874375 -5.1925 7.93625 -6 8 C-6.04125 8.61875 -6.0825 9.2375 -6.125 9.875 C-6.41375 10.57625 -6.7025 11.2775 -7 12 C-10.0625 13.25 -10.0625 13.25 -13 14 C-8.88380164 9.08064098 -4.59589638 4.47352044 0 0 Z " fill="#E89E5E" transform="translate(180,245)"/>
<path d="M0 0 C1.32 0 2.64 0 4 0 C4.33 3.96 4.66 7.92 5 12 C4.01 12.66 3.02 13.32 2 14 C1.34 9.38 0.68 4.76 0 0 Z " fill="#222961" transform="translate(292,249)"/>
<path d="M0 0 C4.455 0.99 4.455 0.99 9 2 C7.68 2.99 6.36 3.98 5 5 C7.31 5.33 9.62 5.66 12 6 C12 6.33 12 6.66 12 7 C10.39620659 7.05416188 8.79188594 7.09286638 7.1875 7.125 C6.29417969 7.14820313 5.40085937 7.17140625 4.48046875 7.1953125 C2 7 2 7 -1 5 C-0.67 3.35 -0.34 1.7 0 0 Z " fill="#E7A06F" transform="translate(389,262)"/>
<path d="M0 0 C6.75 1.75 6.75 1.75 9 4 C8.34 4.66 7.68 5.32 7 6 C8.32 6.66 9.64 7.32 11 8 C3.25 8.125 3.25 8.125 1 7 C-0.1875 4.5625 -0.1875 4.5625 -1 2 C-0.67 1.34 -0.34 0.68 0 0 Z " fill="#464F7B" transform="translate(252,261)"/>
<path d="M0 0 C1.3303125 0.4021875 1.3303125 0.4021875 2.6875 0.8125 C3.0175 2.4625 3.3475 4.1125 3.6875 5.8125 C2.6975 6.1425 1.7075 6.4725 0.6875 6.8125 C0.56375 6.173125 0.44 5.53375 0.3125 4.875 C0.10625 4.194375 -0.1 3.51375 -0.3125 2.8125 C-0.9725 2.4825 -1.6325 2.1525 -2.3125 1.8125 C-2.9725 3.1325 -3.6325 4.4525 -4.3125 5.8125 C-5.6325 5.4825 -6.9525 5.1525 -8.3125 4.8125 C-4.12788462 -0.23365385 -4.12788462 -0.23365385 0 0 Z " fill="#F09A40" transform="translate(189.3125,239.1875)"/>
<path d="M0 0 C2 0 2 0 4.5 2.375 C5.325 3.24125 6.15 4.1075 7 5 C7.66 5.66 8.32 6.32 9 7 C6.36 7 3.72 7 1 7 C0.67 6.34 0.34 5.68 0 5 C0 8.3 0 11.6 0 15 C-0.33 15 -0.66 15 -1 15 C-1.02685412 12.68756208 -1.04632841 10.3750373 -1.0625 8.0625 C-1.07410156 6.77472656 -1.08570313 5.48695313 -1.09765625 4.16015625 C-1 1 -1 1 0 0 Z " fill="#8CA3B8" transform="translate(159,276)"/>
<path d="M0 0 C0.99 0.33 1.98 0.66 3 1 C3.0825 1.78375 3.165 2.5675 3.25 3.375 C3.72806339 6.14749104 3.72806339 6.14749104 6.0625 7.3125 C6.701875 7.539375 7.34125 7.76625 8 8 C5.525 9.485 5.525 9.485 3 11 C2.01 10.34 1.02 9.68 0 9 C0 7.68 0 6.36 0 5 C-0.66 5 -1.32 5 -2 5 C-1.67 4.34 -1.34 3.68 -1 3 C-0.67 2.01 -0.34 1.02 0 0 Z M1 7 C2 9 2 9 2 9 Z " fill="#E48668" transform="translate(162,270)"/>
<path d="M0 0 C3.50529602 -0.40060526 4.7739406 -0.15413141 7.75 1.875 C10 4 10 4 11 6 C10.91348369 7.54613014 10.75997364 9.08909387 10.5625 10.625 C10.46066406 11.44226563 10.35882813 12.25953125 10.25390625 13.1015625 C10.17011719 13.72804687 10.08632812 14.35453125 10 15 C9.67 15 9.34 15 9 15 C8.67 11.37 8.34 7.74 8 4 C6.68 4.33 5.36 4.66 4 5 C3.67 4.01 3.34 3.02 3 2 C2.01 1.34 1.02 0.68 0 0 Z " fill="#6BBAC0" transform="translate(123,205)"/>
<path d="M0 0 C0.33 0 0.66 0 1 0 C1.92092281 4.65537356 2.12205997 9.14685433 2.0625 13.875 C2.05798828 14.56335938 2.05347656 15.25171875 2.04882812 15.9609375 C2.03716336 17.64066335 2.01923271 19.32034375 2 21 C2.66 21 3.32 21 4 21 C3.67 21.99 3.34 22.98 3 24 C2.01 23.67 1.02 23.34 0 23 C0 15.41 0 7.82 0 0 Z " fill="#8AD1D0" transform="translate(175,189)"/>
<path d="M0 0 C4.42857143 5.14285714 4.42857143 5.14285714 5 9 C2.75 9.375 2.75 9.375 0 9 C-2.3125 6 -2.3125 6 -4 3 C-3.01 3 -2.02 3 -1 3 C-0.67 2.01 -0.34 1.02 0 0 Z " fill="#525C83" transform="translate(305,260)"/>
<path d="M0 0 C0.66 0 1.32 0 2 0 C2 0.99 2 1.98 2 3 C2.66 3 3.32 3 4 3 C4.33 4.32 4.66 5.64 5 7 C5.66 7 6.32 7 7 7 C7 7.66 7 8.32 7 9 C0.125 8.125 0.125 8.125 -1 7 C-0.71269945 4.66055264 -0.38063221 2.3260857 0 0 Z " fill="#EA9557" transform="translate(389,250)"/>
<path d="M0 0 C2.97 0 5.94 0 9 0 C9 4.62 9 9.24 9 14 C8.34 14 7.68 14 7 14 C7.33 10.37 7.66 6.74 8 3 C7.01 3.33 6.02 3.66 5 4 C2.3125 2.625 2.3125 2.625 0 1 C0 0.67 0 0.34 0 0 Z " fill="#53A1A7" transform="translate(159,210)"/>
<path d="M0 0 C2.31 0 4.62 0 7 0 C7 1.98 7 3.96 7 6 C5.02 6 3.04 6 1 6 C0.67 4.02 0.34 2.04 0 0 Z " fill="#E89241" transform="translate(160,199)"/>
<path d="M0 0 C1.65 0.33 3.3 0.66 5 1 C4.67 3.31 4.34 5.62 4 8 C2.35 7.67 0.7 7.34 -1 7 C-1.625 5.1875 -1.625 5.1875 -2 3 C-1.34 2.01 -0.68 1.02 0 0 Z " fill="#E89754" transform="translate(207,277)"/>
<path d="M0 0 C1.67542976 0.28604898 3.34385343 0.61781233 5 1 C5 2.98 5 4.96 5 7 C3.02 7 1.04 7 -1 7 C-1.04254356 5.00045254 -1.04080783 2.99958364 -1 1 C-0.67 0.67 -0.34 0.34 0 0 Z " fill="#E86B35" transform="translate(114,279)"/>
<path d="M0 0 C0.99 0.33 1.98 0.66 3 1 C2.01 1.33 1.02 1.66 0 2 C0.04125 2.928125 0.0825 3.85625 0.125 4.8125 C0 8 0 8 -2 11 C-2.66 11 -3.32 11 -4 11 C-4.33 11.66 -4.66 12.32 -5 13 C-5.21323529 5.32352941 -5.21323529 5.32352941 -1.9375 1.75 C-1.298125 1.1725 -0.65875 0.595 0 0 Z " fill="#3EA1AB" transform="translate(182,229)"/>
<path d="M0 0 C1.32 0.33 2.64 0.66 4 1 C0.37 4.63 -3.26 8.26 -7 12 C-7.33 10.68 -7.66 9.36 -8 8 C-6.125 5.875 -6.125 5.875 -4 4 C-3.67 3.34 -3.34 2.68 -3 2 C-2.01 2 -1.02 2 0 2 C0 1.34 0 0.68 0 0 Z " fill="#56B4B2" transform="translate(197,217)"/>
<path d="M0 0 C0.598125 0.20625 1.19625 0.4125 1.8125 0.625 C1.4825 2.605 1.1525 4.585 0.8125 6.625 C-1.1675 6.625 -3.1475 6.625 -5.1875 6.625 C-5.5175 5.965 -5.8475 5.305 -6.1875 4.625 C-5.03076352 1.15479057 -3.91311293 -0.67081936 0 0 Z " fill="#E97A3C" transform="translate(148.1875,217.375)"/>
<path d="M0 0 C0.99 0.495 0.99 0.495 2 1 C2 3.31 2 5.62 2 8 C3.65 8 5.3 8 7 8 C7 6.02 7 4.04 7 2 C7.66 2 8.32 2 9 2 C9 4.64 9 7.28 9 10 C6.03 10 3.06 10 0 10 C0 6.7 0 3.4 0 0 Z " fill="#2C4B6D" transform="translate(159,281)"/>
<path d="M0 0 C-0.33 1.65 -0.66 3.3 -1 5 C-1.66 5 -2.32 5 -3 5 C-3.33 5.99 -3.66 6.98 -4 8 C-7.875 5.25 -7.875 5.25 -9 3 C-2.25 0 -2.25 0 0 0 Z " fill="#5C849D" transform="translate(149,249)"/>
<path d="M0 0 C2.49415272 0.99766109 3.78740335 1.68616685 5.3125 3.9375 C6 6 6 6 5 9 C4.34 9 3.68 9 3 9 C3.33 7.35 3.66 5.7 4 4 C0.9254644 4.7763932 0.9254644 4.7763932 -1 7 C-1 6.34 -1 5.68 -1 5 C-1.99 4.67 -2.98 4.34 -4 4 C-2.68 2.68 -1.36 1.36 0 0 Z " fill="#626890" transform="translate(284,248)"/>
<path d="M0 0 C6.625 -0.25 6.625 -0.25 10 2 C9.67 2.99 9.34 3.98 9 5 C7.35 5.33 5.7 5.66 4 6 C4.33 5.01 4.66 4.02 5 3 C3.35 3 1.7 3 0 3 C0 2.01 0 1.02 0 0 Z " fill="#22AFAA" transform="translate(342,249)"/>
<path d="M0 0 C0.99 0.66 1.98 1.32 3 2 C0.69 4.31 -1.62 6.62 -4 9 C-6 6 -6 6 -5.75 3.875 C-5 2 -5 2 -3 1 C-2.01 1.33 -1.02 1.66 0 2 C0 1.34 0 0.68 0 0 Z " fill="#EEAA60" transform="translate(201,242)"/>
<path d="M0 0 C2.8125 -0.25 2.8125 -0.25 6 0 C7.875 2 7.875 2 9 4 C8.67 4.66 8.34 5.32 8 6 C7.01 5.67 6.02 5.34 5 5 C4.34 5.66 3.68 6.32 3 7 C0 2.25 0 2.25 0 0 Z " fill="#63BDBF" transform="translate(322,248)"/>
<path d="M0 0 C0.33 0 0.66 0 1 0 C1.28783441 3.70986572 1.45251957 7.29998705 1 11 C-1.5 13.6875 -1.5 13.6875 -4 15 C-6 12 -6 12 -6 9 C-3.03 9.495 -3.03 9.495 0 10 C0 6.7 0 3.4 0 0 Z " fill="#528DA8" transform="translate(151,229)"/>
<path d="M0 0 C0.99 0 1.98 0 3 0 C3.33 1.32 3.66 2.64 4 4 C1.69 5.98 -0.62 7.96 -3 10 C-3 8.35 -3 6.7 -3 5 C-2.34 4.67 -1.68 4.34 -1 4 C-0.34786708 1.97536745 -0.34786708 1.97536745 0 0 Z " fill="#46B2B6" transform="translate(185,226)"/>
<path d="M0 0 C0.66 0 1.32 0 2 0 C2 2.31 2 4.62 2 7 C-0.64 7 -3.28 7 -6 7 C-5.67 5.02 -5.34 3.04 -5 1 C-4.67 1.99 -4.34 2.98 -4 4 C-3.01 3.67 -2.02 3.34 -1 3 C-0.67 2.01 -0.34 1.02 0 0 Z " fill="#295879" transform="translate(199,284)"/>
<path d="M0 0 C4.21422242 2.88341534 5.76075855 5.04303419 7 10 C5.125 9.6875 5.125 9.6875 3 9 C2.34 8.01 1.68 7.02 1 6 C0.01 5.67 -0.98 5.34 -2 5 C-2 4.01 -2 3.02 -2 2 C-1.34 2 -0.68 2 0 2 C0 1.34 0 0.68 0 0 Z " fill="#C7AC88" transform="translate(156,246)"/>
<path d="M0 0 C0.33 0.66 0.66 1.32 1 2 C-0.25 4.625 -0.25 4.625 -2 7 C-2.99 7 -3.98 7 -5 7 C-5.66 8.65 -6.32 10.3 -7 12 C-8.32 11.67 -9.64 11.34 -11 11 C-9.625 9.5 -9.625 9.5 -8 8 C-7.34 8 -6.68 8 -6 8 C-5.7525 7.4225 -5.505 6.845 -5.25 6.25 C-3.83316683 3.6997003 -2.12372463 1.98214299 0 0 Z " fill="#ECB271" transform="translate(198,227)"/>
<path d="M0 0 C2.625 1.1875 2.625 1.1875 5 3 C5 4.32 5 5.64 5 7 C2.03 6.505 2.03 6.505 -1 6 C-1.33 4.35 -1.66 2.7 -2 1 C-1.34 0.67 -0.68 0.34 0 0 Z " fill="#1F2860" transform="translate(237,259)"/>
<path d="M0 0 C0.33 0 0.66 0 1 0 C1 4.95 1 9.9 1 15 C2.32 15.33 3.64 15.66 5 16 C1.91190305 17.76462683 0.76687864 18 -3 18 C-2.505 16.515 -2.505 16.515 -2 15 C-1.34 15 -0.68 15 0 15 C0 10.05 0 5.1 0 0 Z " fill="#6CA9BB" transform="translate(316,249)"/>
<path d="M0 0 C0.268125 0.598125 0.53625 1.19625 0.8125 1.8125 C1.98493467 3.97224808 3.19369282 5.35790256 5 7 C4.01 7.99 3.02 8.98 2 10 C2 9.34 2 8.68 2 8 C1.34 8 0.68 8 0 8 C0 7.34 0 6.68 0 6 C-0.66 6 -1.32 6 -2 6 C-2.33 4.35 -2.66 2.7 -3 1 C-2.01 0.67 -1.02 0.34 0 0 Z " fill="#EA7F59" transform="translate(156,263)"/>
<path d="M0 0 C0.99 0 1.98 0 3 0 C3.625 2.875 3.625 2.875 4 6 C3.34 6.66 2.68 7.32 2 8 C-0.125 7.625 -0.125 7.625 -2 7 C-1.34 4.69 -0.68 2.38 0 0 Z " fill="#232A5B" transform="translate(285,252)"/>
<path d="M0 0 C2.31 0 4.62 0 7 0 C8 3 8 3 7 6 C1.25 5.25 1.25 5.25 -1 3 C0.65 3 2.3 3 4 3 C4 2.34 4 1.68 4 1 C2.68 0.67 1.36 0.34 0 0 Z " fill="#E3AA75" transform="translate(396,248)"/>
<path d="M0 0 C2 3 2 3 1.625 5.6875 C1.41875 6.450625 1.2125 7.21375 1 8 C0.01 8 -0.98 8 -2 8 C-2.66 6.02 -3.32 4.04 -4 2 C-2.68 1.34 -1.36 0.68 0 0 Z " fill="#1F9DA4" transform="translate(173,222)"/>
<path d="M0 0 C-4.75 4 -4.75 4 -7 4 C-7.33 6.97 -7.66 9.94 -8 13 C-8.33 13 -8.66 13 -9 13 C-9.61989796 4.94132653 -9.61989796 4.94132653 -7.3125 1.4375 C-4.62515045 -0.23301458 -3.10843835 -0.34538204 0 0 Z " fill="#6092A6" transform="translate(126,206)"/>
<path d="M0 0 C4.95696581 1.23924145 7.11658466 2.78577758 10 7 C8.68 7.33 7.36 7.66 6 8 C5.34 7.01 4.68 6.02 4 5 C3.01 4.67 2.02 4.34 1 4 C0.3125 1.9375 0.3125 1.9375 0 0 Z " fill="#8EA2C0" transform="translate(127,266)"/>
<path d="M0 0 C0.99 0.66 1.98 1.32 3 2 C3 3.32 3 4.64 3 6 C3.99 6.33 4.98 6.66 6 7 C5.67 8.32 5.34 9.64 5 11 C2.69 8.69 0.38 6.38 -2 4 C-1.34 2.68 -0.68 1.36 0 0 Z " fill="#4F6C95" transform="translate(125,256)"/>
<path d="M0 0 C0.66 0.33 1.32 0.66 2 1 C2 4.63 2 8.26 2 12 C1.67 12 1.34 12 1 12 C0.67 9.03 0.34 6.06 0 3 C-0.6496875 4.2375 -0.6496875 4.2375 -1.3125 5.5 C-1.869375 6.325 -2.42625 7.15 -3 8 C-3.99 8 -4.98 8 -6 8 C-6 7.34 -6 6.68 -6 6 C-5.34 6 -4.68 6 -4 6 C-3.71125 5.195625 -3.4225 4.39125 -3.125 3.5625 C-2 1 -2 1 0 0 Z " fill="#6B929E" transform="translate(183,266)"/>
<path d="M0 0 C0.99 0 1.98 0 3 0 C3.33 2.31 3.66 4.62 4 7 C2.68 7.33 1.36 7.66 0 8 C0 5.36 0 2.72 0 0 Z " fill="#EA823C" transform="translate(369,255)"/>
<path d="M0 0 C0.66 0.66 1.32 1.32 2 2 C1.625 5.625 1.625 5.625 1 9 C0.34 8.67 -0.32 8.34 -1 8 C-1.99 9.485 -1.99 9.485 -3 11 C-3.66 9.35 -4.32 7.7 -5 6 C-4.360625 5.7525 -3.72125 5.505 -3.0625 5.25 C-0.81258459 4.18437567 -0.81258459 4.18437567 -0.25 1.875 C-0.1675 1.25625 -0.085 0.6375 0 0 Z " fill="#5A678A" transform="translate(229,250)"/>
<path d="M0 0 C2.475 0.495 2.475 0.495 5 1 C4.67 2.98 4.34 4.96 4 7 C2.68 7 1.36 7 0 7 C0 4.69 0 2.38 0 0 Z " fill="#28B5B5" transform="translate(177,201)"/>
<path d="M0 0 C2.64 0.33 5.28 0.66 8 1 C8 2.32 8 3.64 8 5 C6.35 4.67 4.7 4.34 3 4 C2.67 4.66 2.34 5.32 2 6 C1.34 4.02 0.68 2.04 0 0 Z " fill="#2EB7B0" transform="translate(176,189)"/>
<path d="M0 0 C0.33 0.66 0.66 1.32 1 2 C0.0625 4.625 0.0625 4.625 -1 7 C-2.98 7 -4.96 7 -7 7 C-7.33 5.68 -7.66 4.36 -8 3 C-7.01 3 -6.02 3 -5 3 C-5 3.99 -5 4.98 -5 6 C-4.34 5.67 -3.68 5.34 -3 5 C-2.835 4.34 -2.67 3.68 -2.5 3 C-2.335 2.34 -2.17 1.68 -2 1 C-1.34 0.67 -0.68 0.34 0 0 Z " fill="#686C91" transform="translate(230,262)"/>
<path d="M0 0 C3 1 3 1 5 3 C5.39764263 4.98821313 5.73775349 6.98944339 6 9 C5.01 9 4.02 9 3 9 C3 8.01 3 7.02 3 6 C2.01 6 1.02 6 0 6 C0 4.02 0 2.04 0 0 Z " fill="#1B235E" transform="translate(222,259)"/>
<path d="M0 0 C1.2684375 0.12375 1.2684375 0.12375 2.5625 0.25 C4.5625 3.25 4.5625 3.25 4.1875 5.9375 C3.98125 6.700625 3.775 7.46375 3.5625 8.25 C3.2325 8.25 2.9025 8.25 2.5625 8.25 C2.43875 7.445625 2.315 6.64125 2.1875 5.8125 C1.98125 4.966875 1.775 4.12125 1.5625 3.25 C0.9025 2.92 0.2425 2.59 -0.4375 2.25 C-0.7675 3.57 -1.0975 4.89 -1.4375 6.25 C-2.0975 4.6 -2.7575 2.95 -3.4375 1.25 C-2.4375 0.25 -2.4375 0.25 0 0 Z " fill="#E6965E" transform="translate(400.4375,257.75)"/>
<path d="M0 0 C0.33 0.99 0.66 1.98 1 3 C1.99 3.33 2.98 3.66 4 4 C3.34 5.65 2.68 7.3 2 9 C1.01 8.67 0.02 8.34 -1 8 C-0.67 6.68 -0.34 5.36 0 4 C-0.99 4 -1.98 4 -3 4 C-2 2 -2 2 0 0 Z " fill="#5FC3C2" transform="translate(334,252)"/>
<path d="M0 0 C1.32 0.66 2.64 1.32 4 2 C3.38722388 4.96175123 2.74627478 6.38058783 1 9 C-0.61949011 6.42786866 -1.04408751 5.32330841 -0.625 2.25 C-0.41875 1.5075 -0.2125 0.765 0 0 Z " fill="#4DAFB1" transform="translate(327,252)"/>
<path d="M0 0 C0.99 0 1.98 0 3 0 C3.33 1.98 3.66 3.96 4 6 C2.68 6 1.36 6 0 6 C-1.125 2.25 -1.125 2.25 0 0 Z " fill="#2294A0" transform="translate(196,255)"/>
<path d="M0 0 C0.66 0.33 1.32 0.66 2 1 C1.67 2.65 1.34 4.3 1 6 C-0.98 6 -2.96 6 -5 6 C-5 5.01 -5 4.02 -5 3 C-2.625 1.25 -2.625 1.25 0 0 Z " fill="#1C8AA0" transform="translate(161,236)"/>
<path d="M0 0 C0.66 0 1.32 0 2 0 C2 0.66 2 1.32 2 2 C2.66 2 3.32 2 4 2 C4 2.66 4 3.32 4 4 C5.175625 4.2165625 5.175625 4.2165625 6.375 4.4375 C9 5 9 5 11 6 C10.67 6.99 10.34 7.98 10 9 C6.535 7.02 6.535 7.02 3 5 C3 4.34 3 3.68 3 3 C2.01 2.67 1.02 2.34 0 2 C0 1.34 0 0.68 0 0 Z " fill="#277E99" transform="translate(121,209)"/>
<path d="M0 0 C0.66 0 1.32 0 2 0 C2 0.66 2 1.32 2 2 C2.8971875 2.1546875 2.8971875 2.1546875 3.8125 2.3125 C6.28243264 3.08876455 7.32251235 4.07088921 9 6 C8.67 6.66 8.34 7.32 8 8 C3.96615872 5.92856799 2.07143201 4.03384128 0 0 Z " fill="#204273" transform="translate(130,264)"/>
<path d="M0 0 C2.64 0 5.28 0 8 0 C8 1.32 8 2.64 8 4 C5.69 4.33 3.38 4.66 1 5 C1.33 4.01 1.66 3.02 2 2 C1.34 1.34 0.68 0.68 0 0 Z " fill="#34718B" transform="translate(143,229)"/>
<path d="M0 0 C0 1.32 0 2.64 0 4 C-2.97 3.67 -5.94 3.34 -9 3 C-7.14340032 -0.71319936 -3.69365381 -0.09982848 0 0 Z " fill="#2F7C93" transform="translate(326,264)"/>
<path d="M0 0 C1.65 0.33 3.3 0.66 5 1 C5 1.66 5 2.32 5 3 C5.66 3.33 6.32 3.66 7 4 C4.36 4 1.72 4 -1 4 C-0.67 2.68 -0.34 1.36 0 0 Z " fill="#E6893E" transform="translate(377,248)"/>
<path d="M0 0 C-0.33 2.31 -0.66 4.62 -1 7 C-3.31 6.67 -5.62 6.34 -8 6 C-8 5.67 -8 5.34 -8 5 C-6.35 5 -4.7 5 -3 5 C-3 4.01 -3 3.02 -3 2 C-4.65 2 -6.3 2 -8 2 C-8 1.67 -8 1.34 -8 1 C-2.25 0 -2.25 0 0 0 Z " fill="#8FC9BE" transform="translate(360,247)"/>
<path d="M0 0 C0 0.99 0 1.98 0 3 C-1.65 3 -3.3 3 -5 3 C-5.33 3.66 -5.66 4.32 -6 5 C-6.33 3.68 -6.66 2.36 -7 1 C-3.375 -1.125 -3.375 -1.125 0 0 Z " fill="#38658F" transform="translate(112,238)"/>
<path d="M0 0 C0.99 0 1.98 0 3 0 C2.42655063 2.86724686 2.1385485 3.8614515 0 6 C-0.99 5.34 -1.98 4.68 -3 4 C-1.6875 2 -1.6875 2 0 0 Z M-2 7 C-1.34 7.66 -0.68 8.32 0 9 C-0.66 9 -1.32 9 -2 9 C-2 8.34 -2 7.68 -2 7 Z " fill="#26C9BB" transform="translate(196,199)"/>
<path d="M0 0 C3 1 3 1 4.125 2.8125 C4.94641784 4.86604461 5.53710172 6.83980804 6 9 C5.01 9.66 4.02 10.32 3 11 C0.85714286 3.57142857 0.85714286 3.57142857 0 0 Z " fill="#5C7B90" transform="translate(144,261)"/>
<path d="M0 0 C0.33 0 0.66 0 1 0 C1 4.29 1 8.58 1 13 C-0.65 13 -2.3 13 -4 13 C-4 12.34 -4 11.68 -4 11 C-3.01 10.67 -2.02 10.34 -1 10 C-0.67 6.7 -0.34 3.4 0 0 Z " fill="#446583" transform="translate(184,278)"/>
<path d="M0 0 C0.99 0 1.98 0 3 0 C3 0.66 3 1.32 3 2 C4.32 2 5.64 2 7 2 C7 2.99 7 3.98 7 5 C5.35 5 3.7 5 2 5 C1.34 3.35 0.68 1.7 0 0 Z " fill="#5C6286" transform="translate(235,264)"/>
<path d="M0 0 C2 2 2 2 2.125 4.625 C2.08375 5.40875 2.0425 6.1925 2 7 C0.68 7 -0.64 7 -2 7 C-2 5.02 -2 3.04 -2 1 C-1.34 0.67 -0.68 0.34 0 0 Z " fill="#1C2554" transform="translate(275,261)"/>
<path d="M0 0 C0.66 0.33 1.32 0.66 2 1 C2 5.29 2 9.58 2 14 C1.67 14 1.34 14 1 14 C1 11.03 1 8.06 1 5 C0.34 5 -0.32 5 -1 5 C-0.67 3.35 -0.34 1.7 0 0 Z " fill="#DF8B49" transform="translate(362,249)"/>
<path d="M0 0 C1.65 0 3.3 0 5 0 C5 1.65 5 3.3 5 5 C3.35 4.67 1.7 4.34 0 4 C0 2.68 0 1.36 0 0 Z " fill="#30355F" transform="translate(230,248)"/>
<path d="M0 0 C0.33 0.99 0.66 1.98 1 3 C-1.5654594 5.5654594 -3.47686668 5.54046087 -7 6 C-6.34 4.35 -5.68 2.7 -5 1 C-3.35 1.33 -1.7 1.66 0 2 C0 1.34 0 0.68 0 0 Z " fill="#4C6E8F" transform="translate(131,217)"/>
<path d="M0 0 C0.33 1.32 0.66 2.64 1 4 C-1.64 4 -4.28 4 -7 4 C-6.67 3.01 -6.34 2.02 -6 1 C-3.90006779 0.25486277 -2.22568901 0 0 0 Z " fill="#1F2A5B" transform="translate(263,264)"/>
<path d="M0 0 C2.4375 1.1875 2.4375 1.1875 5 3 C5.8125 5.6875 5.8125 5.6875 6 8 C1.3125 4.38671875 1.3125 4.38671875 0 3 C0 2.01 0 1.02 0 0 Z " fill="#4F7597" transform="translate(114,248)"/>
<path d="M0 0 C0.28875 0.639375 0.5775 1.27875 0.875 1.9375 C1.82823451 4.15206079 1.82823451 4.15206079 4 5 C2.02 5.99 2.02 5.99 0 7 C0 6.01 0 5.02 0 4 C-1.32 4.33 -2.64 4.66 -4 5 C-2.68 3.35 -1.36 1.7 0 0 Z " fill="#68A7B5" transform="translate(152,241)"/>
<path d="M0 0 C1.98 0 3.96 0 6 0 C6 1.65 6 3.3 6 5 C4.02 4.34 2.04 3.68 0 3 C0 2.01 0 1.02 0 0 Z " fill="#2896A7" transform="translate(161,213)"/>
<path d="M0 0 C0.66 0.33 1.32 0.66 2 1 C1.69381595 4.67420866 1.24228216 5.78135513 -1.5625 8.3125 C-2.366875 8.869375 -3.17125 9.42625 -4 10 C-3.49396008 7.83125748 -3.00016187 6.00032373 -2 4 C-1.01 4 -0.02 4 1 4 C0.67 2.68 0.34 1.36 0 0 Z " fill="#7CD8D0" transform="translate(207,205)"/>
<path d="M0 0 C1.32 1.32 2.64 2.64 4 4 C-0.455 4.495 -0.455 4.495 -5 5 C-4.34 4.67 -3.68 4.34 -3 4 C-3 3.34 -3 2.68 -3 2 C-2.01 1.34 -1.02 0.68 0 0 Z " fill="#75D3CF" transform="translate(197,195)"/>
<path d="M0 0 C0.598125 0.350625 1.19625 0.70125 1.8125 1.0625 C1.8125 2.0525 1.8125 3.0425 1.8125 4.0625 C-0.4975 3.7325 -2.8075 3.4025 -5.1875 3.0625 C-5.1875 2.0725 -5.1875 1.0825 -5.1875 0.0625 C-2.1875 -0.9375 -2.1875 -0.9375 0 0 Z " fill="#20336A" transform="translate(132.1875,275.9375)"/>
<path d="M0 0 C0.99 0 1.98 0 3 0 C2.1875 2.4375 2.1875 2.4375 1 5 C0.01 5.33 -0.98 5.66 -2 6 C-1.125 1.125 -1.125 1.125 0 0 Z " fill="#309CA9" transform="translate(331,256)"/>
<path d="M0 0 C0.66 0 1.32 0 2 0 C2.33 1.98 2.66 3.96 3 6 C2.01 5.67 1.02 5.34 0 5 C-0.33 5.66 -0.66 6.32 -1 7 C-1.04254356 5.00045254 -1.04080783 2.99958364 -1 1 C-0.67 0.67 -0.34 0.34 0 0 Z " fill="#1F2351" transform="translate(250,253)"/>
<path d="M0 0 C0.33 0.66 0.66 1.32 1 2 C1.99 2.33 2.98 2.66 4 3 C-0.455 4.485 -0.455 4.485 -5 6 C-4.67 4.68 -4.34 3.36 -4 2 C-3.34 2 -2.68 2 -2 2 C-1.34 1.34 -0.68 0.68 0 0 Z " fill="#D49468" transform="translate(153,249)"/>
<path d="M0 0 C0 0.99 0 1.98 0 3 C-0.66 3 -1.32 3 -2 3 C-2 3.66 -2 4.32 -2 5 C-2.66 5 -3.32 5 -4 5 C-4.33 5.66 -4.66 6.32 -5 7 C-5 5.02 -5 3.04 -5 1 C-2 0 -2 0 0 0 Z " fill="#59A3AF" transform="translate(176,241)"/>
<path d="M0 0 C-0.1875 1.8125 -0.1875 1.8125 -1 4 C-3.4375 5.8125 -3.4375 5.8125 -6 7 C-6.66 6.67 -7.32 6.34 -8 6 C-7.0479279 4.99403703 -6.08812654 3.99538437 -5.125 3 C-4.59132812 2.443125 -4.05765625 1.88625 -3.5078125 1.3125 C-2 0 -2 0 0 0 Z " fill="#69C7C5" transform="translate(186,208)"/>
<path d="M0 0 C0.99 0.33 1.98 0.66 3 1 C3 3.97 3 6.94 3 10 C0.70366176 6.55549263 0.45983515 4.06187717 0 0 Z " fill="#626488" transform="translate(217,248)"/>
<path d="M0 0 C0.99 0.33 1.98 0.66 3 1 C1.71937515 2.7074998 0.38232443 4.37373596 -1 6 C-1.66 6 -2.32 6 -3 6 C-2.42655063 3.13275314 -2.1385485 2.1385485 0 0 Z " fill="#417493" transform="translate(116,228)"/>
<path d="M0 0 C0 3 0 3 -1 6 C-4.0625 7.1875 -4.0625 7.1875 -7 8 C-6.02133662 6.85373678 -5.04205413 5.70800212 -4.0625 4.5625 C-3.51722656 3.92441406 -2.97195312 3.28632813 -2.41015625 2.62890625 C-1.63204305 1.73008851 -0.84063472 0.84063472 0 0 Z " fill="#51A2A9" transform="translate(168,225)"/>
<path d="M0 0 C1.32 0.33 2.64 0.66 4 1 C1.03 3.475 1.03 3.475 -2 6 C-2.33 4.68 -2.66 3.36 -3 2 C-2.01 2 -1.02 2 0 2 C0 1.34 0 0.68 0 0 Z " fill="#66CBC3" transform="translate(197,217)"/>
<path d="M0 0 C0.99 0.495 0.99 0.495 2 1 C2 2.32 2 3.64 2 5 C2.66 5 3.32 5 4 5 C3.67 5.99 3.34 6.98 3 8 C2.01 7.67 1.02 7.34 0 7 C0 4.69 0 2.38 0 0 Z " fill="#92CACA" transform="translate(175,205)"/>
<path d="M0 0 C0.66 1.32 1.32 2.64 2 4 C0 6 0 6 -3 7 C-2.67 5.35 -2.34 3.7 -2 2 C-1.34 2 -0.68 2 0 2 C0 1.34 0 0.68 0 0 Z " fill="#27C1BD" transform="translate(190,205)"/>
<path d="M0 0 C1.32 0.66 2.64 1.32 4 2 C3.01 3.485 3.01 3.485 2 5 C1.34 5 0.68 5 0 5 C0 5.66 0 6.32 0 7 C-0.66 7 -1.32 7 -2 7 C-2 5.68 -2 4.36 -2 3 C-1.34 2.67 -0.68 2.34 0 2 C0 1.34 0 0.68 0 0 Z " fill="#E59E70" transform="translate(174,268)"/>
<path d="M0 0 C0 1.32 0 2.64 0 4 C-0.66 4 -1.32 4 -2 4 C-2.33 5.32 -2.66 6.64 -3 8 C-4 5 -4 5 -4 1 C-2 0 -2 0 0 0 Z " fill="#1C275C" transform="translate(268,258)"/>
<path d="M0 0 C4.455 0.99 4.455 0.99 9 2 C9 2.33 9 2.66 9 3 C7.6078125 2.9071875 7.6078125 2.9071875 6.1875 2.8125 C3.01604897 2.69105736 3.01604897 2.69105736 1.125 4.5 C0.75375 4.995 0.3825 5.49 0 6 C0 4.02 0 2.04 0 0 Z " fill="#6ECAC7" transform="translate(338,250)"/>
<path d="M0 0 C0.625 1.875 0.625 1.875 1 4 C0.34 4.66 -0.32 5.32 -1 6 C-3.125 5.625 -3.125 5.625 -5 5 C-3.35 3.35 -1.7 1.7 0 0 Z " fill="#EAA764" transform="translate(186,239)"/>
<path d="M0 0 C1.32 1.32 2.64 2.64 4 4 C1.36 4.66 -1.28 5.32 -4 6 C-4 5.34 -4 4.68 -4 4 C-2.68 3.34 -1.36 2.68 0 2 C0 1.34 0 0.68 0 0 Z " fill="#538EA9" transform="translate(124,235)"/>
<path d="M0 0 C0.625 1.875 0.625 1.875 1 4 C0.34 4.66 -0.32 5.32 -1 6 C-3.125 5.625 -3.125 5.625 -5 5 C-3.35 3.35 -1.7 1.7 0 0 Z " fill="#55A3AC" transform="translate(160,233)"/>
<path d="M0 0 C0 0.66 0 1.32 0 2 C-0.66 2 -1.32 2 -2 2 C-2 2.66 -2 3.32 -2 4 C-2.66 4 -3.32 4 -4 4 C-4 4.66 -4 5.32 -4 6 C-4.99 5.67 -5.98 5.34 -7 5 C-6.34 5 -5.68 5 -5 5 C-5 3.68 -5 2.36 -5 1 C-3 0 -3 0 0 0 Z " fill="#70A6AE" transform="translate(166,224)"/>
<path d="M0 0 C0.66 0.33 1.32 0.66 2 1 C2.625 3.5625 2.625 3.5625 3 6 C1.68 6.33 0.36 6.66 -1 7 C-1.33 6.34 -1.66 5.68 -2 5 C-1.0625 2.375 -1.0625 2.375 0 0 Z " fill="#41CDC5" transform="translate(205,203)"/>
<path d="M0 0 C1.98 0.99 1.98 0.99 4 2 C4.99 1.34 5.98 0.68 7 0 C7 1.32 7 2.64 7 4 C4.69 4 2.38 4 0 4 C0 2.68 0 1.36 0 0 Z " fill="#1D284D" transform="translate(127,287)"/>
<path d="M0 0 C0 2.64 0 5.28 0 8 C-0.99 7.34 -1.98 6.68 -3 6 C-3.1875 3.375 -3.1875 3.375 -3 1 C-1 0 -1 0 0 0 Z " fill="#3F5E84" transform="translate(152,283)"/>
<path d="M0 0 C0.66 0.33 1.32 0.66 2 1 C2 1.99 2 2.98 2 4 C0.02 4.99 0.02 4.99 -2 6 C-2.99 5.34 -3.98 4.68 -5 4 C-4.0409375 3.8453125 -4.0409375 3.8453125 -3.0625 3.6875 C-2.381875 3.460625 -1.70125 3.23375 -1 3 C-0.67 2.01 -0.34 1.02 0 0 Z " fill="#608EA8" transform="translate(145,272)"/>
<path d="M0 0 C0.66 0 1.32 0 2 0 C1.835 0.598125 1.67 1.19625 1.5 1.8125 C0.8885876 4.11344336 0.8885876 4.11344336 1 7 C0.01 6.67 -0.98 6.34 -2 6 C-1.34 4.02 -0.68 2.04 0 0 Z " fill="#E2B182" transform="translate(183,260)"/>
<path d="M0 0 C1.0625 1.8125 1.0625 1.8125 2 4 C1.67 4.99 1.34 5.98 1 7 C0.67 6.01 0.34 5.02 0 4 C-0.99 3.67 -1.98 3.34 -3 3 C-2.01 2.01 -1.02 1.02 0 0 Z " fill="#202553" transform="translate(265,250)"/>
<path d="M0 0 C-0.33 1.65 -0.66 3.3 -1 5 C-2.32 4.67 -3.64 4.34 -5 4 C-5 3.01 -5 2.02 -5 1 C-2 0 -2 0 0 0 Z " fill="#376A80" transform="translate(149,249)"/>
<path d="M0 0 C0.33 1.32 0.66 2.64 1 4 C-1.375 5.5625 -1.375 5.5625 -4 7 C-4.66 6.67 -5.32 6.34 -6 6 C-4.02 4.02 -2.04 2.04 0 0 Z " fill="#ECBD79" transform="translate(205,220)"/>
<path d="M0 0 C1.98 0.495 1.98 0.495 4 1 C3.67 2.98 3.34 4.96 3 7 C2.01 6.67 1.02 6.34 0 6 C0.66 6 1.32 6 2 6 C2 5.01 2 4.02 2 3 C1.01 2.67 0.02 2.34 -1 2 C-0.67 1.34 -0.34 0.68 0 0 Z " fill="#EF8D3E" transform="translate(146,217)"/>
<path d="M0 0 C0 3 0 3 -1.5 4.6875 C-1.995 5.120625 -2.49 5.55375 -3 6 C-3.99 5.67 -4.98 5.34 -6 5 C-2.25 1.125 -2.25 1.125 0 0 Z " fill="#28A7A3" transform="translate(183,212)"/>
<path d="M0 0 C0.99 0 1.98 0 3 0 C3 0.99 3 1.98 3 3 C4.32 2.67 5.64 2.34 7 2 C7 2.99 7 3.98 7 5 C4.625 4.75 4.625 4.75 2 4 C0.6875 1.9375 0.6875 1.9375 0 0 Z " fill="#26A7B1" transform="translate(124,207)"/>
<path d="M0 0 C1.32 0 2.64 0 4 0 C3.42655063 2.86724686 3.1385485 3.8614515 1 6 C0.67 4.02 0.34 2.04 0 0 Z " fill="#EE893D" transform="translate(160,199)"/>
</svg>
